<svg width="220" height="187" viewBox="0 0 220 187" fill="none" xmlns="http://www.w3.org/2000/svg">
<path d="M130.919 178.643C138.135 179.5 163.288 182.482 183.218 165.224C198.132 152.32 202.392 134.754 204.403 126.476C210.399 101.764 206.31 73.5378 194.609 54.8406C162.034 2.7421 56.5599 2.26225 22.5243 53.1269C6.76929 76.674 3.33308 115.697 19.1396 133.468C28.2284 143.682 36.0801 138.335 64.7037 148.207C102.004 161.077 104.083 175.456 130.937 178.643H130.919Z" fill="#83E6EC" fill-opacity="0.3"/>
<path fill-rule="evenodd" clip-rule="evenodd" d="M0 183.359H204.832V185.604H0V183.359Z" fill="#B9E7EF"/>
<path d="M116.075 50.4191H186.363C190.675 50.4191 194.18 53.9152 194.18 58.2167V103.323C194.18 107.625 190.675 111.121 186.363 111.121H180.762V125.516L166.329 111.121H116.075C111.763 111.121 108.258 107.625 108.258 103.323V58.2167C108.258 53.9152 111.763 50.4191 116.075 50.4191Z" fill="#B3145C"/>
<path d="M156.897 65.0032L165.9 96.588H157.258L155.248 90.1956H146.245L144.235 96.588H135.593L144.544 65.0032H156.914H156.897ZM148.204 82.398H153.272L150.729 72.8009L148.186 82.398H148.204Z" fill="white"/>
<path d="M134.579 0H64.2914C59.9789 0 56.474 3.49609 56.474 7.79764V52.904C56.474 57.2056 59.9789 60.7016 64.2914 60.7016H69.8924V75.0973L84.3244 60.7016H134.579C138.891 60.7016 142.396 57.2056 142.396 52.904V7.79764C142.396 3.49609 138.891 0 134.579 0Z" fill="#082787"/>
<path d="M112.433 28.2258C112.433 34.6181 109.649 38.2342 106.282 40.0679L112.037 46.3232H103.069L98.8424 41.6446C93.6709 41.3018 87.0562 37.9771 87.0562 28.2258C87.0562 18.4744 94.7018 14.7727 99.7702 14.7727C104.839 14.7727 112.398 17.7889 112.398 28.2258H112.433ZM94.8908 28.2258C94.8908 32.6987 96.4714 35.5093 99.8046 35.5093C103.138 35.5093 104.632 32.6987 104.632 28.2258C104.632 23.7528 103.602 21.0794 99.8046 21.0794C96.0076 21.0794 94.8908 24.8668 94.8908 28.2258Z" fill="white"/>
<path d="M31.8364 45.5994L29.6029 46.1135C28.572 46.3535 21.923 56.2248 21.6481 57.253C20.9437 59.9094 17.5075 65.222 16.7687 73.2253C16.7687 73.2253 17.6449 76.7043 21.5965 80.406C22.6618 81.4 22.6618 80.9201 24.0878 81.2458H25.4279L25.9777 80.7659L27.5068 72.2142L31.8536 45.5994H31.8364Z" fill="white"/>
<path d="M34.551 44.7979C34.551 44.7979 27.5068 45.9461 25.8746 47.8484L21.6481 57.2055L31.51 57.4626L34.551 44.7979Z" fill="white"/>
<path d="M55.3744 177.718V179.123L54.1546 180.391L52.866 179.826L52.11 179.14L52.0241 177.683L55.3744 177.718Z" fill="#FFC5AE"/>
<path d="M27.2835 82.2094C27.2835 82.2094 21.1155 89.2359 17.6965 177.735H22.301L41.4063 98.4902L41.6812 82.6207L27.2835 82.2094Z" fill="#027CFC"/>
<path d="M50.5638 77.5822C50.5638 77.5822 59.4292 84.5401 59.3776 103.186C59.3605 111.549 55.6665 177.718 55.6665 177.718L51.629 177.666C46.4747 151.531 43.5883 128.515 39.3274 101.935C38.7089 101.849 35.5991 101.626 35.0493 100.992C33.8638 99.6041 35.015 97.1706 34.9978 96.1081C34.8947 91.8408 34.8775 82.0552 35.1524 78.4563C38.5886 78.7476 47.3337 77.8907 50.5638 77.5822Z" fill="#027CFC"/>
<path fill-rule="evenodd" clip-rule="evenodd" d="M40.0489 105.147C40.0489 105.147 40.0489 105.147 39.7397 105.14C39.4305 105.133 39.4305 105.133 39.4305 105.132L39.4306 105.132L39.4306 105.131L39.4307 105.128C39.4307 105.125 39.4308 105.122 39.431 105.118C39.4313 105.109 39.4318 105.097 39.4326 105.081C39.4342 105.05 39.4369 105.005 39.4415 104.947C39.4507 104.831 39.4676 104.665 39.4982 104.458C39.5594 104.044 39.6758 103.464 39.8969 102.792C40.3391 101.449 41.2025 99.7344 42.8858 98.2586L43.2942 98.722C41.7131 100.108 40.9014 101.718 40.4845 102.984C40.2761 103.617 40.167 104.163 40.1101 104.548C40.0816 104.741 40.0663 104.893 40.0581 104.996C40.054 105.047 40.0516 105.086 40.0503 105.112C40.0497 105.125 40.0493 105.134 40.0491 105.14L40.0489 105.146L40.0489 105.147Z" fill="#082787"/>
<path d="M51.251 49.4936C51.251 49.4936 51.9898 67.0254 53.7766 75.7657C53.7766 75.7657 50.2889 76.9139 50.4091 78.1135C50.6325 80.3757 59.4464 84.2488 64.446 80.7356C65.5456 79.9644 66.2157 79.0047 66.5765 78.3534C66.3703 77.4966 65.9064 76.1084 64.8584 74.6688C63.8791 73.3321 62.7795 72.5095 62.0579 72.0468C60.0992 65.5687 59.2745 54.652 55.0652 48.2254L51.2338 49.4936H51.251Z" fill="#F9E0D2"/>
<path d="M57.1613 86.9526C57.797 78.8808 57.8142 69.4379 56.5084 59.0182C56.1304 56.0705 55.6837 53.2428 55.1683 50.535C54.7903 48.5813 53.3815 46.9704 51.4744 46.3363C48.0725 45.2224 44.6707 44.0913 41.2688 42.9773L30.3761 46.0107C29.0016 51.9061 27.7817 58.6069 26.9742 66.0104C26.2011 73.1054 25.6856 79.6005 25.7372 85.4445C29.4655 86.4556 34.3105 87.4496 39.5851 87.8438C46.5606 88.3579 52.5739 87.7752 57.1785 86.9697L57.1613 86.9526Z" fill="white"/>
<path d="M57.1613 86.9051C57.797 78.8333 57.8142 69.3904 56.5084 58.9707C56.0273 55.1833 56.8348 51.2073 55.0824 48.2425C54.7388 47.6427 54.189 47.1971 53.5533 46.9915C51.0448 46.1689 48.5364 45.3462 46.0452 44.5065C44.3614 45.7918 43.7773 47.5227 45.1346 49.922C49.1377 56.9313 47.0245 76.9995 45.4782 87.9848C49.9796 87.9505 53.9312 87.4878 57.1785 86.9222L57.1613 86.9051Z" fill="white"/>
<path d="M49.9109 45.7919C49.9109 45.7919 53.6391 46.6831 56.2335 47.9513C57.4705 48.5511 58.4155 49.6136 58.8794 50.9161L61.886 59.1079L52.0413 58.6452L49.928 45.7919H49.9109Z" fill="white"/>
<path d="M38.5198 35.852L38.0044 43.9239L39.2414 44.6779C40.53 45.4663 42.1622 45.4491 43.4336 44.6265L44.4129 43.9924L43.5367 35.5778L38.5026 35.8692L38.5198 35.852Z" fill="#FFC5AE"/>
<path fill-rule="evenodd" clip-rule="evenodd" d="M24.812 72.2543L20.8041 71.6127L20.9457 70.7328L25.2879 71.4279L28.694 75.5687L28.0033 76.1339L24.812 72.2543Z" fill="#FFC5AE"/>
<path d="M64.4632 81.1983H25.4279L24.0019 57.0856C23.9675 56.3658 24.5345 55.7488 25.2733 55.7488H64.635C65.3566 55.7488 65.9408 56.3658 65.9064 57.0856L64.4804 81.1983H64.4632Z" fill="#89BEC8"/>
<path d="M45.5413 71.5677C46.8895 71.2499 47.7241 69.902 47.4054 68.5572C47.0867 67.2123 45.7354 66.3799 44.3872 66.6978C43.039 67.0157 42.2044 68.3636 42.5231 69.7084C42.8418 71.0532 44.1931 71.8856 45.5413 71.5677Z" fill="white"/>
<path d="M64.3945 81.1983H25.428V83.2206H64.3945V81.1983Z" fill="#669AA4"/>
<path d="M66.7139 77.7364C65.9751 75.2515 64.6522 74.4117 64.3601 74.5146C63.965 74.6517 64.1883 76.4511 65.4253 77.4451C66.3016 78.1306 65.9408 78.0449 66.7139 77.7364Z" fill="#FFC5AE"/>
<path d="M64.5319 81.4726L61.8001 80.5985C61.7314 80.5814 61.697 80.53 61.697 80.4614L61.7314 79.7588C61.7314 79.6902 61.783 79.6388 61.8517 79.6217L62.831 79.5017C62.9684 79.4846 63.0028 79.2789 62.8654 79.2275L61.027 78.5249C60.9583 78.5077 60.9239 78.4221 60.9411 78.3535L61.1301 77.5823C61.1473 77.5138 61.216 77.4623 61.2847 77.4795L62.8997 77.7537C63.0543 77.788 63.1403 77.5652 62.9856 77.4966L61.3362 76.6569C61.2675 76.6226 61.2503 76.554 61.2675 76.4855L61.4565 75.8343C61.4737 75.7657 61.5596 75.7143 61.6283 75.7314L66.0095 77.171C66.5421 77.3252 66.8857 77.8565 66.7826 78.4049L66.4734 80.153C66.3187 81.0613 65.4253 81.6611 64.5319 81.4726C64.5319 81.4726 64.5319 81.4726 64.5147 81.4726H64.5319Z" fill="#FFC5AE"/>
<path d="M22.5072 78.2848C22.49 79.3988 23.3318 80.4956 24.4314 80.7527C25.0328 80.8898 25.7372 80.9754 26.476 80.8726C26.9227 80.8041 27.3866 80.6498 27.7817 80.4613C28.3831 80.1871 28.7782 79.5702 28.7782 78.9189C28.7782 78.559 28.469 78.2848 28.1253 78.3191L27.2319 78.3877L27.8333 77.7707C28.0738 77.5308 27.9535 77.1366 27.6271 77.0509C27.5756 77.0509 27.5412 77.0338 27.5412 77.0338C27.0773 76.6568 25.72 76.194 24.105 76.8624C23.4178 77.1366 22.5415 77.4622 22.5243 78.2848H22.5072Z" fill="#FFC5AE"/>
<path d="M23.5208 77.3424C25.2732 74.9774 25.9433 74.6003 26.2182 74.7374C26.5962 74.9259 26.6477 76.3141 25.7715 77.0853C25.153 77.6337 24.2424 77.7365 23.5036 77.3424H23.5208Z" fill="#FFC5AE"/>
<path d="M59.7556 182.808H49.7391V184.041H59.7556V182.808Z" fill="#082787"/>
<path d="M52.0929 179.02C52.0929 179.02 50.5294 179.98 50.0999 182.808H59.3776V182.019C59.3776 181.437 58.9824 180.922 58.4155 180.785L55.5806 179.02H52.11H52.0929Z" fill="#082787"/>
<path d="M18.0229 177.718V179.123L19.2256 180.391L20.5313 179.826L20.9952 179.123L21.2701 177.718H18.0229Z" fill="#FFC5AE"/>
<path d="M16.1845 184.042H22.971V182.808H16.1845V184.042Z" fill="#082787"/>
<path d="M21.3732 179.02C21.3732 179.02 21.6137 179.466 21.7855 179.98C21.9573 180.511 22.404 180.683 22.593 181.111C22.8335 181.625 22.8335 181.934 22.8164 182.808H16.3391V182.019C16.3391 181.711 16.4422 181.437 16.6312 181.214C17.1638 180.563 17.5761 179.826 17.8167 179.02H21.3732Z" fill="#082787"/>
<path fill-rule="evenodd" clip-rule="evenodd" d="M18.5761 180.044C18.5761 180.044 18.5761 180.044 18.5211 179.74C18.4661 179.436 18.4662 179.436 18.4663 179.436L18.4679 179.436L18.4717 179.435C18.4749 179.435 18.4795 179.434 18.4853 179.433C18.4969 179.431 18.5135 179.428 18.5346 179.425C18.5768 179.418 18.6369 179.409 18.7102 179.4C18.8563 179.38 19.057 179.358 19.2733 179.348C19.4879 179.338 19.7273 179.339 19.9475 179.369C20.157 179.398 20.3993 179.459 20.5756 179.607L20.1778 180.079C20.1393 180.047 20.0423 180.005 19.8636 179.981C19.6957 179.958 19.498 179.955 19.3024 179.965C19.1085 179.974 18.9259 179.994 18.7911 180.011C18.724 180.02 18.6694 180.028 18.6319 180.034C18.6132 180.037 18.5988 180.04 18.5893 180.041L18.5788 180.043L18.5765 180.044L18.5761 180.044Z" fill="#B9E7EF"/>
<path fill-rule="evenodd" clip-rule="evenodd" d="M18.5187 180.898C18.5187 180.898 18.5187 180.898 18.4524 180.597C18.3861 180.296 18.3862 180.295 18.3862 180.295L18.3879 180.295L18.3916 180.294C18.3948 180.294 18.3993 180.293 18.405 180.291C18.4165 180.289 18.433 180.286 18.4539 180.282C18.4956 180.273 18.5552 180.262 18.6278 180.25C18.7724 180.225 18.9715 180.196 19.1867 180.178C19.4003 180.16 19.639 180.152 19.8601 180.174C20.0707 180.195 20.3144 180.247 20.4965 180.387L20.1194 180.876C20.0782 180.844 19.9783 180.806 19.7991 180.788C19.6304 180.771 19.4332 180.776 19.2387 180.793C19.0458 180.809 18.8648 180.835 18.7313 180.858C18.6649 180.869 18.6108 180.88 18.5738 180.887C18.5553 180.891 18.5411 180.893 18.5317 180.895L18.5214 180.898L18.5191 180.898L18.5187 180.898Z" fill="#B9E7EF"/>
<path fill-rule="evenodd" clip-rule="evenodd" d="M55.2318 179.433C55.2319 179.433 55.2319 179.433 55.2026 179.74C55.1733 180.047 55.1733 180.047 55.1734 180.047L55.173 180.047L55.1706 180.047L55.16 180.046C55.1504 180.045 55.1359 180.044 55.1169 180.042C55.0791 180.04 55.0239 180.036 54.9563 180.033C54.8205 180.026 54.6368 180.022 54.4429 180.029C54.2473 180.036 54.0507 180.055 53.8857 180.092C53.7099 180.131 53.6177 180.181 53.5829 180.215L53.1456 179.779C53.3084 179.617 53.5448 179.535 53.7507 179.49C53.9674 179.441 54.2057 179.42 54.4203 179.412C54.6366 179.405 54.8385 179.41 54.9856 179.417C55.0594 179.42 55.1201 179.424 55.1627 179.427C55.184 179.429 55.2009 179.43 55.2126 179.431C55.2185 179.432 55.2231 179.432 55.2263 179.432L55.2302 179.433L55.2318 179.433Z" fill="#B9E7EF"/>
<path fill-rule="evenodd" clip-rule="evenodd" d="M56.1424 180.118C56.1425 180.118 56.1426 180.118 56.1132 180.425C56.0839 180.733 56.084 180.733 56.084 180.733L56.0836 180.733L56.0812 180.732L56.0706 180.731C56.061 180.731 56.0465 180.729 56.0276 180.728C55.9897 180.725 55.9345 180.722 55.8669 180.718C55.7311 180.712 55.5475 180.707 55.3536 180.714C55.1579 180.722 54.9614 180.74 54.7963 180.777C54.6205 180.816 54.5283 180.866 54.4935 180.901L54.0562 180.464C54.219 180.302 54.4554 180.221 54.6613 180.175C54.878 180.127 55.1163 180.106 55.3309 180.098C55.5472 180.09 55.7491 180.095 55.8962 180.102C55.97 180.106 56.0307 180.11 56.0733 180.113C56.0947 180.114 56.1115 180.116 56.1232 180.117C56.1291 180.117 56.1337 180.118 56.1369 180.118L56.1408 180.118L56.1424 180.118Z" fill="#B9E7EF"/>
<path d="M44.9799 29.8709C45.9077 30.0766 46.6293 30.8135 46.7839 31.7561C46.9557 32.6815 47.2134 33.8126 47.5571 34.3781C47.7461 34.6866 47.6258 35.0808 47.2822 35.2008L46.5606 35.4578C46.5606 35.4578 47.2134 38.097 46.4231 39.3652C45.6328 40.6334 41.7155 40.0336 41.7155 40.0336C41.7155 40.0336 39.5507 38.8339 38.7947 37.7371C38.0388 36.6403 36.7846 34.0183 38.1934 32.2531C39.6194 30.4879 42.1107 29.2368 42.1107 29.2368L44.9455 29.8709H44.9799Z" fill="#FFC5AE"/>
<path fill-rule="evenodd" clip-rule="evenodd" d="M44.0658 40.1365C44.0657 40.1365 44.0657 40.1365 44.0693 40.4792C44.073 40.8219 44.0729 40.8219 44.0728 40.8219L44.0718 40.822L44.0694 40.822L44.0613 40.822C44.0543 40.822 44.0444 40.8221 44.0316 40.822C44.006 40.8219 43.9692 40.8215 43.9224 40.8206C43.8288 40.8186 43.6952 40.8141 43.5326 40.8042C43.2081 40.7843 42.7642 40.7423 42.2898 40.6532C41.8172 40.5645 41.3027 40.4269 40.8425 40.2109C40.3847 39.9961 39.9537 39.6908 39.6865 39.2518L40.274 38.896C40.4449 39.1769 40.7441 39.4071 41.1351 39.5907C41.5238 39.7731 41.9768 39.8969 42.4169 39.9796C42.8553 40.0619 43.2694 40.1013 43.5747 40.12C43.727 40.1293 43.8512 40.1334 43.9368 40.1352C43.9795 40.1361 44.0125 40.1364 44.0345 40.1365C44.0455 40.1365 44.0537 40.1365 44.0589 40.1365L44.0646 40.1365L44.0658 40.1365Z" fill="#FFA383"/>
<path d="M37.9872 35.9034C36.3207 35.2179 35.685 33.11 36.2691 31.7904C36.9907 30.128 39.4132 30.1452 39.9974 31.1049C40.5128 31.9618 39.8256 34.0526 37.9872 35.9034Z" fill="#B3145C"/>
<path d="M44.6707 27.4374C43.0041 27.6431 42.3513 26.5634 40.7706 26.7519C38.7604 26.9918 36.8361 29.0998 37.1798 30.4022C37.4375 31.3448 38.8463 31.7218 39.7913 31.9618C40.238 32.0817 45.6328 33.4013 47.5399 30.2309C48.6223 28.4314 47.9351 26.2549 47.7117 25.6551C47.0932 26.3578 46.0624 27.2832 44.6879 27.4374H44.6707Z" fill="#B3145C"/>
<path d="M40.908 35.2521C40.8221 34.5666 39.671 32.8357 38.9837 32.9214C38.2965 33.0071 37.8154 33.6412 37.9013 34.3267C37.9872 35.0122 38.6229 35.4921 39.3102 35.4064C39.9974 35.3207 41.0111 35.9377 40.908 35.2521Z" fill="#FFC5AE"/>
<path fill-rule="evenodd" clip-rule="evenodd" d="M219.883 185.604H210.519V183.359H219.883V185.604Z" fill="#B9E7EF"/>
<path d="M147.638 183.424L132.292 183.28C132.724 178.078 133.79 172.388 135.644 167.052C138.899 157.694 144.057 150.935 147.978 146.664C149.748 152.314 151.597 160.9 150.397 171.065C149.899 175.292 148.905 179.517 147.638 183.424Z" fill="#99CC67"/>
<path fill-rule="evenodd" clip-rule="evenodd" d="M144.384 157.313C144.384 157.313 144.384 157.312 145.466 157.704C146.548 158.096 146.548 158.096 146.548 158.096L146.545 158.104L146.535 158.132C146.526 158.158 146.512 158.196 146.494 158.248C146.457 158.35 146.404 158.503 146.335 158.703C146.197 159.102 145.998 159.688 145.758 160.427C145.276 161.907 144.628 164.002 143.959 166.457C142.618 171.383 141.212 177.704 140.897 183.413L138.599 183.286C138.927 177.339 140.381 170.837 141.738 165.854C142.418 163.355 143.078 161.224 143.569 159.717C143.814 158.963 144.017 158.364 144.159 157.953C144.23 157.747 144.286 157.588 144.324 157.48C144.343 157.426 144.358 157.385 144.368 157.357L144.38 157.324L144.384 157.313Z" fill="#84B25A"/>
<path d="M76.8013 87.2521C85.0337 90.7757 118.84 106.307 129.138 141.049C133.083 154.359 134.175 172.502 129.995 183.69C119.015 183.615 108.036 183.542 97.055 183.467C90.8999 178.532 83.3933 171.045 77.6699 160.301C60.2991 127.69 74.3076 93.1328 76.7996 87.2521H76.8013Z" fill="#99CC67"/>
<path fill-rule="evenodd" clip-rule="evenodd" d="M98.8544 133.996C104.418 145.874 111.514 162.618 117.645 182.086L115.449 182.776C109.357 163.428 102.302 146.781 96.7698 134.971C94.0043 129.067 91.6204 124.374 89.9293 121.159C89.0838 119.552 88.4116 118.315 87.9515 117.481C87.7215 117.063 87.5445 116.747 87.4254 116.536C87.3659 116.43 87.3208 116.351 87.2908 116.298C87.2759 116.272 87.2646 116.252 87.2573 116.239L87.2468 116.221C87.2468 116.221 87.2468 116.221 88.2447 115.648C89.2426 115.076 89.2428 115.076 89.243 115.076L89.2555 115.098C89.2637 115.113 89.2758 115.134 89.2916 115.161C89.3232 115.217 89.3699 115.299 89.4311 115.408C89.5535 115.625 89.7339 115.948 89.9674 116.371C90.4344 117.218 91.1138 118.469 91.9667 120.09C93.6724 123.332 96.0723 128.057 98.8544 133.996Z" fill="#84B25A"/>
<path fill-rule="evenodd" clip-rule="evenodd" d="M111.598 164.734L109.4 164.053L115.54 144.296L117.738 144.978L111.598 164.734Z" fill="#84B25A"/>
<path fill-rule="evenodd" clip-rule="evenodd" d="M92.2635 131.914C94.4376 132.956 96.6116 133.998 98.7853 135.04L97.7896 137.113C95.6161 136.072 93.4427 135.029 91.2693 133.987C88.0473 132.442 84.8251 130.898 81.6021 129.353L82.5975 127.28C85.8199 128.824 89.0419 130.369 92.2635 131.914Z" fill="#84B25A"/>
</svg>
