<svg width="44" height="48" viewBox="0 0 44 48" fill="none">
  <path
    fill-rule="evenodd"
    clip-rule="evenodd"
    d="M19.3171 15.4546H12.8781V20.7955H7.51221V27.2046H12.8781V32.5455H19.3171V27.2046H24.6829V20.7955H19.3171V15.4546Z"
    fill="#84B25A"
  />
  <path
    d="M4.78447 47.5C2.1466 47.5 0 45.4384 0 42.9068V5.09318C0 2.56159 2.1466 0.5 4.78447 0.5H27.233C29.8709 0.5 32.0175 2.56159 32.0175 5.09318V22.5045C32.0175 23.0814 31.5476 23.5407 30.9816 23.5407C30.4155 23.5407 29.9456 23.0707 29.9456 22.5045V5.09318C29.9456 3.70455 28.7282 2.57227 27.2437 2.57227H4.78447C3.28932 2.57227 2.08252 3.70455 2.08252 5.09318V6.03318C2.08252 6.28955 2.28544 6.4925 2.54175 6.4925H26.4854C27.0621 6.4925 27.5214 6.9625 27.5214 7.52864C27.5214 8.09477 27.0515 8.56477 26.4854 8.56477H2.53107C2.27476 8.56477 2.07184 8.76773 2.07184 9.02409V38.9759C2.07184 39.2323 2.27476 39.4352 2.53107 39.4352H26.4854C27.0621 39.4352 27.5214 39.9052 27.5214 40.4714C27.5214 41.0375 27.0515 41.5075 26.4854 41.5075H2.53107C2.27476 41.5075 2.07184 41.7105 2.07184 41.9668V42.9068C2.07184 44.2955 3.28932 45.4277 4.77379 45.4277H27.233C28.1087 45.4277 28.9417 45.0218 29.4544 44.3489C29.6573 44.0818 29.9563 43.9323 30.2874 43.9323C30.6184 43.9323 30.7252 44.007 30.9068 44.1459C31.1311 44.3168 31.2699 44.5518 31.3126 44.8295C31.3553 45.1073 31.2806 45.3743 31.1097 45.5986C30.2126 46.795 28.7602 47.5107 27.233 47.5107H4.78447V47.5Z"
    fill="#A2B7D4"
  />
  <path
    d="M32.4766 41.5075C32.3805 41.5075 32.2951 41.4968 32.2097 41.4755C31.8359 41.3793 31.5475 41.0802 31.4621 40.6957L28.4718 27.2152C28.397 26.8627 28.4931 26.5102 28.7495 26.2539C28.9417 26.0616 29.2087 25.9548 29.4863 25.9548C29.764 25.9548 29.6359 25.9548 29.7106 25.9761L43.1776 28.967C43.5514 29.0525 43.8504 29.3409 43.9572 29.7148C44.0533 30.0886 43.9465 30.4839 43.6582 30.7509L41.2126 32.9834C41.1164 33.0689 41.063 33.1864 41.063 33.3145C41.063 33.4427 41.1058 33.5602 41.2019 33.6457L43.6902 36.1345C43.8825 36.3268 43.9893 36.5939 43.9893 36.8716C43.9893 37.1493 43.8825 37.4164 43.6902 37.6086L40.1019 41.2084C39.9203 41.39 39.6533 41.4968 39.365 41.4968C39.0766 41.4968 38.8097 41.39 38.6281 41.2084L36.1397 38.7195C36.0543 38.6341 35.9368 38.5807 35.8087 38.5807C35.6805 38.5807 35.563 38.6341 35.4776 38.7302L33.2456 41.1764C33.0533 41.39 32.7757 41.5075 32.4766 41.5075ZM35.766 35.8355C36.0329 35.8355 36.3106 35.9423 36.5029 36.1345L39.0339 38.6661C39.1194 38.7516 39.2368 38.805 39.365 38.805C39.4931 38.805 39.5999 38.7516 39.6961 38.6661L41.1698 37.192C41.3514 37.0105 41.3514 36.722 41.1698 36.5405L38.6388 34.0089C38.4359 33.8059 38.3291 33.5389 38.3397 33.2505C38.3397 32.9727 38.4679 32.695 38.6708 32.5134L40.1446 31.1568C40.2728 31.0393 40.3262 30.8684 40.2834 30.6975C40.2407 30.5266 40.1019 30.4091 39.9417 30.3664L31.5689 28.5077C31.5368 28.5077 31.5048 28.497 31.4728 28.497C31.3553 28.497 31.2378 28.5398 31.1417 28.6359C31.0349 28.7427 30.9815 28.903 31.0135 29.0632L32.8718 37.4377C32.9038 37.6086 33.032 37.7368 33.2029 37.7795C33.2456 37.7795 33.2776 37.7902 33.3203 37.7902C33.4485 37.7902 33.5766 37.7368 33.6621 37.6407L35.0184 36.1666C35.2106 35.9636 35.4776 35.8355 35.7553 35.8355H35.7873H35.766Z"
    fill="#A2B7D4"
  />
</svg>