<svg width="180" height="110" viewBox="0 0 180 110" fill="none" xmlns="http://www.w3.org/2000/svg">
<path d="M23.4306 110H147.381C165.961 88.5889 170.891 59.7551 159.827 37.0378C150.644 18.1838 132.666 10.0631 125.709 6.92536C99.5363 -4.87909 74.9053 1.48619 67.4095 3.77382C39.8605 12.1779 5.93585 38.1988 7.03533 72.1677C7.61618 90.2545 17.9056 103.766 23.4375 110H23.4306Z" fill="#83E6EC" fill-opacity="0.29"/>
<g clip-path="url(#clip0_14321_73390)">
<path d="M100.094 73.8244H88.0177V61.719H76.3712V73.8244H64.2944V85.4985H76.3712V97.6039H88.0177V85.4985H100.094V73.8244Z" fill="white"/>
</g>
<path fill-rule="evenodd" clip-rule="evenodd" d="M0.5 108.778C0.5 108.103 0.884233 107.556 1.35821 107.556H178.642C179.116 107.556 179.5 108.103 179.5 108.778C179.5 109.453 179.116 110 178.642 110H1.35821C0.884233 110 0.5 109.453 0.5 108.778Z" fill="#B9E7EF"/>
<path d="M136.121 38.3472H50.7515V48.1953H136.121V38.3472Z" fill="#B3145C"/>
<path d="M40.8499 32.3586H76.7181C77.5501 32.3586 78.2346 33.0435 78.2346 33.8759V47.1309H39.3335V33.8759C39.3335 33.0435 40.018 32.3586 40.8499 32.3586Z" fill="#B3145C"/>
<path d="M132.935 42.0736H42.6528V47.1308H132.935V42.0736Z" fill="#DCDCDC"/>
<path d="M135.059 44.3361H44.7769V47.1308H135.059V44.3361Z" fill="white"/>
<path d="M136.081 108.083H39.3738L37.6074 47.1309H137.847L136.081 108.083Z" fill="#B3145C"/>
<g clip-path="url(#clip1_14321_73390)">
<path d="M104 71.2146H91.9235V59.1093H80.2769V71.2146H68.2002V82.8888H80.2769V94.9942H91.9235V82.8888H104V71.2146Z" fill="white"/>
</g>
<defs>
<clipPath id="clip0_14321_73390">
<rect width="35.8" height="35.8849" fill="white" transform="translate(64.2944 61.719)"/>
</clipPath>
<clipPath id="clip1_14321_73390">
<rect width="35.8" height="35.8849" fill="white" transform="translate(68.2002 59.1093)"/>
</clipPath>
</defs>
</svg>
