<svg width="180" height="110" viewBox="0 0 180 110" fill="none" xmlns="http://www.w3.org/2000/svg">
    <path
        d="M23.4311 110H147.381C165.962 88.5889 170.892 59.7551 159.828 37.0378C150.645 18.1838 132.666 10.0631 125.71 6.92536C99.5367 -4.87909 74.9058 1.48619 67.41 3.77382C39.861 12.1779 5.93634 38.1988 7.03581 72.1677C7.61667 90.2545 17.9061 103.766 23.438 110H23.4311Z"
        fill="#83E6EC" fill-opacity="0.29" />
    <path fill-rule="evenodd" clip-rule="evenodd"
        d="M0.5 108.778C0.5 108.103 0.884233 107.556 1.35821 107.556H178.642C179.116 107.556 179.5 108.103 179.5 108.778C179.5 109.453 179.116 110 178.642 110H1.35821C0.884233 110 0.5 109.453 0.5 108.778Z"
        fill="#B9E7EF" />
    <path d="M135.361 37.9956H49.6895V47.8551H135.361V37.9956Z" fill="#669AA4" />
    <path
        d="M39.7542 32H75.749C76.5839 32 77.2708 32.6857 77.2708 33.519V46.7893H38.2324V33.519C38.2324 32.6857 38.9193 32 39.7542 32Z"
        fill="#669AA4" />
    <path d="M132.163 41.7263H41.5625V46.7893H132.163V41.7263Z" fill="#DCDCDC" />
    <path d="M134.296 43.9912H43.6953V46.7892H134.296V43.9912Z" fill="white" />
    <path d="M135.321 107.812H38.2726L36.5 46.7893H137.094L135.321 107.812Z" fill="#89BEC8" />
    <path fill-rule="evenodd" clip-rule="evenodd"
        d="M75.9316 67.4996C75.9316 60.1588 81.9028 54.209 89.2701 54.209C96.6374 54.209 102.609 60.1588 102.609 67.4996V76.0174C102.609 76.7085 102.046 77.2687 101.353 77.2687C100.659 77.2687 100.097 76.7085 100.097 76.0174V67.4996C100.097 61.5409 95.2503 56.7116 89.2701 56.7116C83.29 56.7116 78.4433 61.5409 78.4433 67.4996V76.0174C78.4433 76.7085 77.881 77.2687 77.1874 77.2687C76.4939 77.2687 75.9316 76.7085 75.9316 76.0174V67.4996Z"
        fill="white" />
    <path d="M106.679 74.8953H76.3848V97.3898H106.679V74.8953Z" fill="#669AA4" />
    <path d="M102.609 74.8953H72.4277V97.3898H102.609V74.8953Z" fill="#B9E7EF" />
    <path
        d="M87.517 87.4424C89.1714 87.4424 90.5125 86.1013 90.5125 84.4469C90.5125 82.7925 89.1714 81.4514 87.517 81.4514C85.8626 81.4514 84.5215 82.7925 84.5215 84.4469C84.5215 86.1013 85.8626 87.4424 87.517 87.4424Z"
        fill="#669AA4" />
    <path d="M89.2698 83.9382H85.7656V90.7205H89.2698V83.9382Z" fill="#669AA4" />
    <path d="M103.739 71.2781H98.7656V74.8953H103.739V71.2781Z" fill="#669AA4" />
</svg>