<svg width="230" height="227" viewBox="0 0 230 227" fill="none" xmlns="http://www.w3.org/2000/svg">
<path d="M219.46 225.424C223.145 214.507 222.918 205.877 221.665 199.466C218.459 183.057 207.934 178.046 208.741 163.729C209.579 148.846 221.45 145.396 227.299 131.628C239.945 101.853 204.273 62.1881 200.786 58.3389C175.781 30.7264 136.346 16.1468 100.39 22.993C89.8272 25.0037 63.6302 29.991 53.0731 49.6309C46.7138 61.4615 51.3092 68.7805 43.337 83.7132C34.7961 99.7111 25.6924 98.4767 14.7117 112.508C-3.87277 136.251 -0.00559125 168.173 1.08232 177.141C3.8906 200.312 13.9981 216.943 20.0991 225.424H219.46Z" fill="#83E6EC" fill-opacity="0.3"/>
<path d="M29.7699 171.15C29.9672 171.054 30.1848 170.931 30.4169 170.777C31.235 170.231 31.6411 169.656 31.8239 169.761C32.0444 169.886 31.6324 170.797 31.8529 170.92C32.027 171.016 32.4564 170.54 32.6333 170.313C32.8538 170.029 33.0946 169.717 33.1004 169.326L33.5385 169.268L33.3876 168.241L32.2881 168.454C31.85 168.448 31.1683 168.527 30.5213 168.991C29.7612 169.533 29.4682 170.301 29.3551 170.82C29.3028 171.063 29.5494 171.264 29.7728 171.153L29.7699 171.15Z" fill="#FB9C98"/>
<path d="M44.1043 158.532C47.0344 158.64 49.3408 160.099 49.8485 162.025C50.5274 164.604 47.6147 166.948 47.3594 167.342C45.288 170.561 33.3412 169.361 33.3412 169.361L33.2803 168.042C33.2803 168.042 38.6299 166.224 44.0376 165.728C44.3915 165.223 44.9804 164.234 45.1458 162.859C45.4127 160.659 44.4147 159.01 44.1014 158.532H44.1043Z" fill="#DCDCDC"/>
<path fill-rule="evenodd" clip-rule="evenodd" d="M28.9333 171.553L24.62 161.707L24.1103 161.933L28.57 172.113H40.3474V171.553H28.9333Z" fill="#2E3192"/>
<path d="M46.0626 222.634H44.261V223.075H46.0626V222.634Z" fill="#F6A19E"/>
<path d="M46.0539 222.634C46.0539 222.634 46.8343 223.393 46.0539 224.178H41.4005C41.3773 224.081 41.2815 223.626 41.5513 223.177C41.7689 222.815 42.0967 222.672 42.2041 222.631C42.9468 222.631 43.6894 222.631 44.4321 222.631C44.4321 222.631 45.2386 223.107 46.0539 222.631V222.634Z" fill="#2E3192"/>
<path d="M42.2041 222.631C41.4759 222.631 40.8841 223.224 40.8841 223.956V224.172H41.5978C41.5833 224.011 41.5804 223.761 41.6674 223.475C41.8008 223.028 42.0706 222.751 42.207 222.628L42.2041 222.631Z" fill="#2E3192"/>
<path d="M44.6178 221.805L44.67 222.701L45.8711 222.681L45.9465 221.753L44.6178 221.805Z" fill="#F6A19E"/>
<path fill-rule="evenodd" clip-rule="evenodd" d="M43.2601 222.844C43.2986 222.783 43.3371 222.722 43.3763 222.66L43.4398 222.701C43.4007 222.762 43.3623 222.823 43.3239 222.885L43.3239 222.885C43.2854 222.946 43.2469 223.008 43.2077 223.069L43.1442 223.028C43.1833 222.967 43.2216 222.906 43.2601 222.844L43.2601 222.844Z" fill="#E1EEF7"/>
<path fill-rule="evenodd" clip-rule="evenodd" d="M43.7211 222.891C43.7537 222.826 43.7863 222.762 43.818 222.696L43.8858 222.729C43.8538 222.795 43.821 222.86 43.7884 222.925L43.7884 222.925C43.7557 222.99 43.7232 223.055 43.6914 223.121L43.6237 223.087C43.6557 223.021 43.6884 222.956 43.721 222.891L43.7211 222.891Z" fill="#E1EEF7"/>
<path d="M49.892 173.345C49.892 173.345 51.7197 178.994 51.4673 181.32C51.2149 183.646 48.5894 194.595 48.5894 194.595L46.196 222.266L44.4989 222.176L40.6201 198.818C40.6201 198.818 40.5388 178.635 41.5107 174.308C42.4826 169.98 49.8978 173.348 49.8978 173.348L49.892 173.345Z" fill="#2E3192"/>
<path d="M40.7233 224.577L46.1774 224.581L46.1778 224.006L40.7237 224.003L40.7233 224.577Z" fill="#C4C4C4"/>
<path d="M53.5776 221.896L51.9144 222.172L51.9809 222.578L53.644 222.302L53.5776 221.896Z" fill="#F6A19E"/>
<path d="M53.5619 221.902C53.5619 221.902 54.3974 222.479 53.794 223.326L49.5003 224.038C49.4655 223.956 49.306 223.55 49.4887 223.095C49.6338 222.727 49.9152 222.546 50.008 222.491C50.6927 222.377 51.3803 222.263 52.0649 222.15C52.0649 222.15 52.8801 222.465 53.5619 221.902Z" fill="#2E3192"/>
<path d="M50.008 222.491C49.335 222.602 48.8795 223.241 48.9898 223.918L49.0217 224.117L49.6802 224.009C49.6425 223.863 49.6019 223.632 49.6396 223.355C49.6947 222.923 49.9036 222.622 50.008 222.491V222.491Z" fill="#2E3192"/>
<path d="M51.711 220.903L52.2738 222.193L53.4459 221.942L53.0571 220.924L51.711 220.903Z" fill="#F6A19E"/>
<path fill-rule="evenodd" clip-rule="evenodd" d="M51.0938 222.338L51.0944 222.337L51.1613 222.365L51.1606 222.367C51.1086 222.492 51.0566 222.617 51.0046 222.739L50.9379 222.71C50.9898 222.588 51.0418 222.463 51.0938 222.338Z" fill="#E1EEF7"/>
<path fill-rule="evenodd" clip-rule="evenodd" d="M51.4472 222.498C51.4676 222.433 51.4878 222.368 51.5081 222.302L51.5774 222.324C51.5571 222.39 51.5367 222.455 51.5164 222.519L51.5164 222.519C51.4961 222.584 51.4758 222.649 51.4555 222.715L51.3863 222.693C51.4066 222.628 51.4269 222.563 51.4472 222.498L51.4472 222.498Z" fill="#E1EEF7"/>
<path d="M50.948 176.648C50.948 176.648 51.7777 178.23 51.6617 181.309C51.4934 185.744 45.5839 198.065 45.5839 198.065L53.4546 220.927L51.5021 221.823L39.7904 201.418C38.8388 199.764 38.4268 197.852 38.6067 195.947C39.1376 190.367 40.3445 178.688 41.2467 177.413L41.0697 174.182L50.9451 176.645L50.948 176.648Z" fill="#027CFC"/>
<path d="M28.4035 171.48C28.6095 171.532 28.8416 171.605 29.0911 171.705C29.9759 172.058 30.472 172.522 30.6258 172.382C30.8085 172.218 30.237 171.439 30.4227 171.278C30.5677 171.153 31.0696 171.518 31.2814 171.699C31.5483 171.923 31.8384 172.171 31.9196 172.539L32.3577 172.656L32.0444 173.73L31.3249 173.531C30.913 173.625 30.2486 173.686 29.5436 173.38C28.7168 173.018 28.2846 172.349 28.0728 171.883C27.9741 171.664 28.1714 171.424 28.4035 171.483V171.48Z" fill="#FB9C98"/>
<path d="M44.9311 157.382C45.5462 156.76 46.5819 156.962 46.9561 157.749C47.0837 158.018 47.2056 158.292 47.3187 158.575C49.4133 163.703 48.4937 168.921 47.3332 172.49C46.7965 174.144 45.2444 175.247 43.5183 175.189C42.4449 175.151 41.3396 175.093 40.2023 175.011C37.0691 174.78 34.3827 174.529 31.7514 174.054C31.7775 173.852 31.8065 173.648 31.8355 173.447C31.8936 173.029 31.9516 172.615 32.0125 172.204C33.8692 172.166 35.7781 172.093 37.7422 171.985C39.9441 171.862 42.0793 171.699 44.1362 171.503C43.9506 168.807 43.791 166.796 43.7011 165.681C43.7011 165.681 42.8423 159.909 44.6178 157.729C44.7193 157.604 44.8267 157.487 44.9311 157.379V157.382Z" fill="white"/>
<path d="M43.9186 168.471C43.8287 167.272 43.7533 166.326 43.701 165.681C43.701 165.681 42.8423 159.909 44.6178 157.729C44.7193 157.604 44.8267 157.487 44.9311 157.379C45.5461 156.757 46.5818 156.959 46.9561 157.747C47.0837 158.015 47.2056 158.289 47.3187 158.572C49.4133 163.7 48.4937 168.918 47.3332 172.487C47.2317 172.805 47.0895 173.099 46.9184 173.374" fill="white"/>
<path d="M41.0814 175.072C40.7913 175.055 40.5011 175.034 40.2081 175.011C37.0749 174.78 34.3885 174.529 31.7572 174.054C31.7833 173.852 31.8123 173.648 31.8413 173.447C31.8994 173.029 31.9574 172.615 32.0183 172.204C33.875 172.166 35.7839 172.093 37.748 171.985C38.8794 171.921 39.9905 171.848 41.0843 171.766" fill="white"/>
<path d="M46.3382 156.489C46.4397 156.387 45.0501 154.116 45.0501 154.116L42.999 155.088L43.7359 157.957C43.7359 157.957 44.9717 157.857 46.3382 156.489V156.489Z" fill="#F6A19E"/>
<path d="M45.3837 154.752C45.346 154.84 45.3025 154.927 45.2561 155.009C44.8615 155.71 44.1362 156.279 43.3674 156.521L43.0019 155.091L45.053 154.119C45.053 154.119 45.2009 154.396 45.3866 154.755L45.3837 154.752Z" fill="#F6A19E"/>
<path d="M42.9032 151.052C42.7872 151.084 41.9111 151.347 41.4092 152.176C40.7448 153.279 40.887 155.146 42.03 155.721C43.1237 156.273 44.6468 155.397 45.1806 154.224C45.6535 153.185 45.4475 151.694 44.5424 151.151C43.907 150.769 43.1411 150.985 42.9032 151.052V151.052Z" fill="#F6A19E"/>
<path d="M46.1815 156.159C46.1815 156.159 52.4131 156.533 51.6762 177.141C48.6097 177.757 45.4417 177.675 42.4101 176.902L40.7361 176.508L41.0494 164.368C41.0813 160.878 43.0657 157.703 46.1786 156.159H46.1815Z" fill="white"/>
<path d="M44.232 153.938C43.7852 153.553 44.4147 152.698 43.9012 152.059C43.3442 151.364 42.2476 151.939 41.2844 151.309C40.8319 151.011 40.3358 150.398 40.1617 149.009C41.4237 148.28 42.1722 148.338 42.6219 148.536C43.1905 148.787 43.205 149.216 43.8954 149.535C44.7745 149.937 45.227 149.465 45.9262 149.78C46.7675 150.159 47.4783 151.461 47.0751 152.587C46.5964 153.912 44.7745 154.408 44.232 153.938V153.938Z" fill="#2E3192"/>
<path d="M44.5656 153.667C44.6091 153.331 44.9108 153.095 45.2444 153.139C45.5781 153.182 45.8131 153.486 45.7695 153.821C45.726 154.157 45.4243 154.393 45.0907 154.35C44.7571 154.306 44.5221 154.002 44.5656 153.667Z" fill="#F6A19E"/>
<path d="M48.9404 224.519L53.9756 223.685L53.8894 223.158L48.8541 223.992L48.9404 224.519Z" fill="#C4C4C4"/>
<path fill-rule="evenodd" clip-rule="evenodd" d="M47.0795 173.646C47.0795 173.646 47.0794 173.646 46.8372 173.508C46.5949 173.37 46.5949 173.37 46.5949 173.37L46.5949 173.37L46.595 173.37L46.5959 173.368L46.5998 173.361C46.6034 173.354 46.6089 173.345 46.6162 173.331C46.6307 173.304 46.6524 173.264 46.68 173.211C46.7354 173.104 46.8149 172.947 46.9101 172.745C47.1005 172.341 47.3535 171.76 47.602 171.055C48.1 169.64 48.5748 167.74 48.5026 165.767L49.0592 165.747C49.135 167.816 48.6379 169.791 48.127 171.242C47.8711 171.969 47.6104 172.568 47.4133 172.985C47.3147 173.194 47.2319 173.358 47.1735 173.471C47.1442 173.527 47.1211 173.57 47.1051 173.6C47.097 173.614 47.0908 173.626 47.0865 173.634L47.0815 173.643L47.0801 173.645L47.0796 173.646L47.0795 173.646Z" fill="#DCDCDC"/>
<path fill-rule="evenodd" clip-rule="evenodd" d="M43.5304 174.912C44.8275 174.955 46.0179 174.292 46.6889 173.227L47.1595 173.527C46.3857 174.755 45.0117 175.522 43.512 175.472M41.0989 174.793C41.9262 174.845 42.7386 174.886 43.5303 174.912L43.5304 174.912M41.0989 174.793L41.0639 175.352ZM41.0639 175.352C41.8959 175.405 42.7139 175.446 43.512 175.472Z" fill="#DCDCDC"/>
<path fill-rule="evenodd" clip-rule="evenodd" d="M44.2405 169.015C44.2946 169.756 44.3549 170.582 44.417 171.484L44.4357 171.756L44.1656 171.782C43.16 171.879 42.1399 171.966 41.1024 172.045L41.0604 171.486C42.0014 171.415 42.9281 171.336 43.8424 171.25C43.7871 170.455 43.7336 169.722 43.685 169.057C43.6708 168.863 43.6571 168.674 43.6438 168.492L44.1993 168.451C44.2126 168.633 44.2263 168.821 44.2405 169.015Z" fill="#DCDCDC"/>
<path d="M55.0763 138.107L28.8909 138.174C26.6193 138.18 24.7713 136.332 24.7655 134.047L24.6988 107.707C24.693 105.422 26.5294 103.563 28.801 103.557L49.686 103.502L59.1233 112.951L59.1785 133.954C59.1843 136.239 57.3479 138.098 55.0763 138.104V138.107Z" fill="white"/>
<path d="M49.6831 103.505L49.7238 109.823C49.7354 111.55 51.1279 112.942 52.8453 112.945L59.1291 112.954L49.686 103.505H49.6831Z" fill="#C4C4C4"/>
<path d="M52.5011 115.244L43.1044 115.269L43.1099 117.361L52.5065 117.336L52.5011 115.244Z" fill="#C4C4C4"/>
<path d="M52.5125 119.601L38.7671 119.637L38.7725 121.729L52.5179 121.693L52.5125 119.601Z" fill="#C4C4C4"/>
<path d="M52.5238 123.958L38.7784 123.994L38.7838 126.086L52.5292 126.05L52.5238 123.958Z" fill="#C4C4C4"/>
<path d="M52.5351 128.318L38.7897 128.354L38.7952 130.446L52.5406 130.41L52.5351 128.318Z" fill="#C4C4C4"/>
<path d="M33.3441 117.679C34.1228 117.679 34.754 117.044 34.754 116.261C34.754 115.477 34.1228 114.842 33.3441 114.842C32.5654 114.842 31.9342 115.477 31.9342 116.261C31.9342 117.044 32.5654 117.679 33.3441 117.679Z" fill="#C4C4C4"/>
<path d="M33.3441 122.266C34.1228 122.266 34.754 121.631 34.754 120.848C34.754 120.065 34.1228 119.43 33.3441 119.43C32.5654 119.43 31.9342 120.065 31.9342 120.848C31.9342 121.631 32.5654 122.266 33.3441 122.266Z" fill="#C4C4C4"/>
<path d="M33.3441 126.416C34.1228 126.416 34.754 125.781 34.754 124.998C34.754 124.215 34.1228 123.58 33.3441 123.58C32.5654 123.58 31.9342 124.215 31.9342 124.998C31.9342 125.781 32.5654 126.416 33.3441 126.416Z" fill="#C4C4C4"/>
<path d="M33.3441 130.785C34.1228 130.785 34.754 130.15 34.754 129.366C34.754 128.583 34.1228 127.948 33.3441 127.948C32.5654 127.948 31.9342 128.583 31.9342 129.366C31.9342 130.15 32.5654 130.785 33.3441 130.785Z" fill="#C4C4C4"/>
<path fill-rule="evenodd" clip-rule="evenodd" d="M54.8712 130.94C55.0406 131.079 55.0659 131.33 54.9276 131.501L53.24 133.581L52.1296 132.411C51.9786 132.252 51.9843 132 52.1425 131.848C52.3007 131.696 52.5513 131.702 52.7024 131.861L53.1934 132.378L54.314 130.997C54.4523 130.826 54.7018 130.801 54.8712 130.94Z" fill="#84B25A"/>
<path fill-rule="evenodd" clip-rule="evenodd" d="M53.4952 129.333C51.9723 129.333 50.7377 130.575 50.7377 132.107C50.7377 133.639 51.9723 134.88 53.4952 134.88C55.0181 134.88 56.2527 133.639 56.2527 132.107C56.2527 130.575 55.0181 129.333 53.4952 129.333ZM49.9457 132.107C49.9457 130.135 51.5348 128.536 53.4952 128.536C55.4555 128.536 57.0447 130.135 57.0447 132.107C57.0447 134.079 55.4555 135.677 53.4952 135.677C51.5348 135.677 49.9457 134.079 49.9457 132.107Z" fill="#84B25A"/>
<path d="M197.904 98.0594L184.234 87.7054C182.728 86.5643 181.518 85.0352 180.906 83.2404C178.397 75.8689 185.786 67.3651 193.984 71.0801C194.173 71.1647 194.364 71.2581 194.55 71.3544L197.901 73.0936L201.252 71.3544C201.44 71.2581 201.629 71.1647 201.817 71.0801C210.016 67.368 217.405 75.8718 214.895 83.2404C214.283 85.0352 213.076 86.5643 211.571 87.7054L197.901 98.0594H197.904Z" fill="#B3145C"/>
<path fill-rule="evenodd" clip-rule="evenodd" d="M203.066 73.6232C203.377 73.6658 203.633 73.8914 203.716 74.1963L206.585 84.7609L208.362 78.3876C208.446 78.0886 208.696 77.8667 209.001 77.821C209.307 77.7754 209.61 77.9144 209.776 78.1762L211.373 80.6899H216.224V82.2657H210.944C210.677 82.2657 210.428 82.1286 210.284 81.9021L209.398 80.5074L207.329 87.9269C207.234 88.268 206.924 88.5033 206.572 88.5021C206.22 88.5009 205.912 88.2635 205.819 87.9218L202.69 76.3998L199.421 81.9218C199.28 82.1604 199.024 82.3066 198.748 82.3066H179.2V80.7307H198.303L202.287 74.0008C202.448 73.7292 202.755 73.5806 203.066 73.6232Z" fill="white"/>
<path fill-rule="evenodd" clip-rule="evenodd" d="M49.6604 32.1129C41.5867 43.3738 35.0513 57.4323 38.7046 70.6741C40.8961 78.6173 46.39 84.9514 53.5941 90.0016C60.7993 95.0528 69.6757 98.7906 78.5463 101.546C96.2866 107.058 113.882 108.605 117.732 108.937C133.455 110.293 147.775 107.644 159.938 105.393C161.907 105.029 163.819 104.675 165.672 104.351C172.297 103.189 178.198 102.395 183.147 102.879C188.127 103.366 192.201 105.155 195.085 109.194C204.205 121.965 203.362 141.214 195.137 157.976L194.026 157.424C202.135 140.9 202.835 122.182 194.079 109.921C191.458 106.251 187.759 104.582 183.027 104.119C178.265 103.653 172.517 104.416 165.885 105.578C164.048 105.9 162.146 106.252 160.184 106.615C148.025 108.866 133.529 111.55 117.626 110.178C113.76 109.845 96.0545 108.29 78.1807 102.737C69.2443 99.9608 60.2353 96.1762 52.8858 91.024C45.5349 85.8708 39.8045 79.3204 37.5109 71.0074L38.1077 70.8408L37.5109 71.0074C33.6967 57.1823 40.5412 42.7017 48.6557 31.384C56.793 20.0344 66.3354 11.6873 68.2317 10.0634L69.0347 11.0123C67.1654 12.6131 57.7113 20.884 49.6604 32.1129Z" fill="#C4C4C4"/>
<path fill-rule="evenodd" clip-rule="evenodd" d="M186.228 225.561L151.673 89.9142L152.825 89.6172L187.38 225.264L186.228 225.561Z" fill="#C4C4C4"/>
<path fill-rule="evenodd" clip-rule="evenodd" d="M204.688 225.561L170.133 89.9142L171.285 89.6172L205.84 225.264L204.688 225.561Z" fill="#C4C4C4"/>
<path fill-rule="evenodd" clip-rule="evenodd" d="M201.237 209.986H182.505V208.79H201.237V209.986Z" fill="#C4C4C4"/>
<path fill-rule="evenodd" clip-rule="evenodd" d="M197.712 196.361H179.102V195.164H197.712V196.361Z" fill="#C4C4C4"/>
<path fill-rule="evenodd" clip-rule="evenodd" d="M194.289 182.736H175.507V181.539H194.289V182.736Z" fill="#C4C4C4"/>
<path fill-rule="evenodd" clip-rule="evenodd" d="M190.77 169.11H172.003V167.914H190.77V169.11Z" fill="#C4C4C4"/>
<path fill-rule="evenodd" clip-rule="evenodd" d="M187.251 155.485H169.174V154.288H187.251V155.485Z" fill="#C4C4C4"/>
<path fill-rule="evenodd" clip-rule="evenodd" d="M187.457 155.514H168.721V154.318H187.457V155.514Z" fill="#C4C4C4"/>
<path fill-rule="evenodd" clip-rule="evenodd" d="M183.929 141.889H165.321V140.692H183.929V141.889Z" fill="#C4C4C4"/>
<path fill-rule="evenodd" clip-rule="evenodd" d="M180.506 128.263H161.724V127.067H180.506V128.263Z" fill="#C4C4C4"/>
<path fill-rule="evenodd" clip-rule="evenodd" d="M176.987 114.638H158.219V113.442H176.987V114.638Z" fill="#C4C4C4"/>
<path fill-rule="evenodd" clip-rule="evenodd" d="M173.471 101.016H155.394V99.8191H173.471V101.016Z" fill="#C4C4C4"/>
<path d="M73.2952 4.61085L83.13 0L78.1546 10.4299L73.2952 4.61085Z" fill="#C4C4C4"/>
<path d="M72.3582 0.577815L73.2952 4.61085L83.0517 0.0233459" fill="#C4C4C4"/>
<path d="M73.7246 6.45519L83.0923 0.0612793L74.5166 11.4367L73.7246 6.45519Z" fill="#C4C4C4"/>
<path d="M163.688 33.1368H71.2442C66.8204 33.1368 63.2342 36.7442 63.2342 41.1942V178.014C63.2342 182.464 66.8204 186.071 71.2442 186.071H163.688C168.112 186.071 171.698 182.464 171.698 178.014V41.1942C171.698 36.7442 168.112 33.1368 163.688 33.1368Z" fill="#89BEC8"/>
<path d="M171.695 52.8614H173.038C174.016 52.8614 174.808 53.658 174.808 54.6415V67.047C174.808 68.0305 174.016 68.8272 173.038 68.8272H171.695V52.8614V52.8614Z" fill="#082787"/>
<path d="M171.695 70.3913H173.038C174.016 70.3913 174.808 71.188 174.808 72.1715V76.5926C174.808 77.5761 174.016 78.3728 173.038 78.3728H171.695V70.3884V70.3913Z" fill="#082787"/>
<path d="M122.988 176.992H112.095C110.462 176.992 109.138 178.324 109.138 179.966C109.138 181.608 110.462 182.94 112.095 182.94H122.988C124.621 182.94 125.945 181.608 125.945 179.966C125.945 178.324 124.621 176.992 122.988 176.992Z" fill="#082787"/>
<path d="M75.0591 38.4597H159.867C163.302 38.4597 166.093 41.2642 166.093 44.7223V168.74C166.093 171.039 164.236 172.907 161.95 172.907H72.979C70.693 172.907 68.8362 171.039 68.8362 168.74V44.7223C68.8362 41.2671 71.6242 38.4597 75.062 38.4597H75.0591Z" fill="#FDFDFF"/>
<path d="M161.596 38.4597H73.3881C70.9047 38.4597 68.8914 40.4821 68.8914 42.9743V45.7758H166.093V42.9743C166.093 40.4821 164.08 38.4597 161.596 38.4597V38.4597Z" fill="white"/>
<path d="M160.746 43.3887C161.446 43.3887 162.014 42.819 162.014 42.1163C162.014 41.4136 161.446 40.844 160.746 40.844C160.046 40.844 159.478 41.4136 159.478 42.1163C159.478 42.819 160.046 43.3887 160.746 43.3887Z" fill="#C4C4C4"/>
<path d="M155.455 43.3887C156.155 43.3887 156.722 42.819 156.722 42.1163C156.722 41.4136 156.155 40.844 155.455 40.844C154.754 40.844 154.187 41.4136 154.187 42.1163C154.187 42.819 154.754 43.3887 155.455 43.3887Z" fill="#C4C4C4"/>
<path d="M150.163 43.3887C150.863 43.3887 151.431 42.819 151.431 42.1163C151.431 41.4136 150.863 40.844 150.163 40.844C149.463 40.844 148.895 41.4136 148.895 42.1163C148.895 42.819 149.463 43.3887 150.163 43.3887Z" fill="#C4C4C4"/>
<path d="M151.445 89.7948H107.83C106.965 89.7948 106.263 89.0886 106.263 88.219C106.263 87.3493 106.965 86.6431 107.83 86.6431H151.445C152.31 86.6431 153.012 87.3493 153.012 88.219C153.012 89.0886 152.31 89.7948 151.445 89.7948Z" fill="#C4C4C4"/>
<path d="M122.533 96.7461H107.897C107.032 96.7461 106.33 96.0399 106.33 95.1703C106.33 94.3006 107.032 93.5944 107.897 93.5944H122.533C123.397 93.5944 124.099 94.3006 124.099 95.1703C124.099 96.0399 123.397 96.7461 122.533 96.7461Z" fill="#C4C4C4"/>
<path d="M151.445 113.392H107.83C106.965 113.392 106.263 112.686 106.263 111.816C106.263 110.946 106.965 110.24 107.83 110.24H151.445C152.31 110.24 153.012 110.946 153.012 111.816C153.012 112.686 152.31 113.392 151.445 113.392Z" fill="#C4C4C4"/>
<path d="M122.533 120.343H107.897C107.032 120.343 106.33 119.637 106.33 118.767C106.33 117.898 107.032 117.191 107.897 117.191H122.533C123.397 117.191 124.099 117.898 124.099 118.767C124.099 119.637 123.397 120.343 122.533 120.343Z" fill="#C4C4C4"/>
<path d="M151.445 136.992H107.83C106.965 136.992 106.263 136.286 106.263 135.416C106.263 134.546 106.965 133.84 107.83 133.84H151.445C152.31 133.84 153.012 134.546 153.012 135.416C153.012 136.286 152.31 136.992 151.445 136.992Z" fill="#C4C4C4"/>
<path d="M94.2444 96.5474C97.1674 93.6071 97.1674 88.84 94.2444 85.8997C91.3214 82.9594 86.5822 82.9594 83.6592 85.8997C80.7362 88.84 80.7362 93.6071 83.6592 96.5474C86.5822 99.4877 91.3214 99.4877 94.2444 96.5474Z" fill="white"/>
<path fill-rule="evenodd" clip-rule="evenodd" d="M97.2994 82.2769C97.8828 82.7558 97.9699 83.6198 97.4938 84.2068L90.009 93.4343C89.7617 93.7392 89.3962 93.9225 89.0054 93.9378C88.6146 93.953 88.2361 93.7987 87.966 93.5141L84.5776 89.9421C84.0577 89.3941 84.0779 88.5259 84.6227 88.003C85.1675 87.48 86.0306 87.5003 86.5505 88.0484L88.8726 90.4962L95.3809 82.4725C95.857 81.8856 96.7159 81.798 97.2994 82.2769Z" fill="#84B25A"/>
<path d="M94.2434 120.146C97.1664 117.206 97.1664 112.439 94.2434 109.499C91.3204 106.558 86.5812 106.558 83.6582 109.499C80.7352 112.439 80.7352 117.206 83.6582 120.146C86.5812 123.087 91.3204 123.087 94.2434 120.146Z" fill="white"/>
<path fill-rule="evenodd" clip-rule="evenodd" d="M97.2994 105.877C97.8829 106.356 97.9699 107.22 97.4938 107.807L90.009 117.034C89.7617 117.339 89.3963 117.522 89.0054 117.538C88.6146 117.553 88.2361 117.399 87.9661 117.114L84.5776 113.542C84.0577 112.994 84.0779 112.126 84.6227 111.603C85.1675 111.08 86.0306 111.1 86.5505 111.648L88.8726 114.096L95.3809 106.073C95.857 105.486 96.7159 105.398 97.2994 105.877Z" fill="#84B25A"/>
<path d="M88.9525 145.951C93.0863 145.951 96.4374 142.58 96.4374 138.422C96.4374 134.264 93.0863 130.893 88.9525 130.893C84.8188 130.893 81.4677 134.264 81.4677 138.422C81.4677 142.58 84.8188 145.951 88.9525 145.951Z" fill="white"/>
<path fill-rule="evenodd" clip-rule="evenodd" d="M97.2994 130.25C97.8828 130.729 97.9699 131.593 97.4938 132.18L90.009 141.408C89.7617 141.712 89.3962 141.896 89.0054 141.911C88.6146 141.926 88.2361 141.772 87.9661 141.487L84.5776 137.915C84.0577 137.367 84.0779 136.499 84.6227 135.976C85.1675 135.453 86.0306 135.474 86.5505 136.022L88.8726 138.469L95.3809 130.446C95.857 129.859 96.7159 129.771 97.2994 130.25Z" fill="#84B25A"/>
<path d="M92.3577 74.1408C98.193 72.7554 101.807 66.874 100.43 61.0042C99.0524 55.1345 93.2055 51.4992 87.3703 52.8846C81.535 54.27 77.9211 60.1514 79.2983 66.0212C80.6756 71.8909 86.5225 75.5262 92.3577 74.1408Z" fill="white"/>
<path d="M92.3577 74.1408C98.193 72.7554 101.807 66.874 100.43 61.0042C99.0524 55.1345 93.2055 51.4992 87.3703 52.8846C81.535 54.27 77.9211 60.1514 79.2983 66.0212C80.6756 71.8909 86.5225 75.5262 92.3577 74.1408Z" fill="#DCDCDC"/>
<path d="M89.8664 74.4273C93.6552 74.4273 96.9886 72.475 98.9294 69.5188C97.1917 66.2766 93.7829 64.0733 89.8664 64.0733C85.9499 64.0733 82.5411 66.2766 80.8033 69.5188C82.7471 72.475 86.0804 74.4273 89.8664 74.4273Z" fill="#2E3192"/>
<path d="M89.8664 63.0052C92.1768 63.0052 94.0498 61.1212 94.0498 58.7971C94.0498 56.473 92.1768 54.589 89.8664 54.589C87.556 54.589 85.683 56.473 85.683 58.7971C85.683 61.1212 87.556 63.0052 89.8664 63.0052Z" fill="#2E3192"/>
<path fill-rule="evenodd" clip-rule="evenodd" d="M105.96 58.838C105.96 58.0571 106.59 57.4241 107.366 57.4241H127.807C128.583 57.4241 129.213 58.0571 129.213 58.838C129.213 59.6188 128.583 60.2519 127.807 60.2519H107.366C106.59 60.2519 105.96 59.6188 105.96 58.838Z" fill="#C4C4C4"/>
<path fill-rule="evenodd" clip-rule="evenodd" d="M105.96 68.226C105.96 67.4451 106.59 66.8121 107.366 66.8121H142.887C143.663 66.8121 144.293 67.4451 144.293 68.226C144.293 69.0069 143.663 69.6399 142.887 69.6399H107.366C106.59 69.6399 105.96 69.0069 105.96 68.226Z" fill="#C4C4C4"/>
<path d="M100.479 148.598H155.017C157.947 148.598 160.326 150.991 160.326 153.938V161.24C160.326 164.187 157.947 166.58 155.017 166.58H100.476C97.5456 166.58 95.1667 164.187 95.1667 161.24V153.938C95.1667 150.991 97.5456 148.598 100.476 148.598H100.479Z" fill="white"/>
<path fill-rule="evenodd" clip-rule="evenodd" d="M136.593 150.866C136.762 150.879 136.899 151.009 136.922 151.178L138.296 161.308L139.148 155.19C139.171 155.022 139.307 154.894 139.474 154.879C139.641 154.865 139.796 154.969 139.847 155.13L140.64 157.63H142.899C143.097 157.63 143.258 157.792 143.258 157.992C143.258 158.192 143.097 158.354 142.899 158.354H140.378C140.221 158.354 140.082 158.252 140.035 158.102L139.642 156.863L138.648 164.001C138.623 164.18 138.471 164.313 138.291 164.313C138.111 164.312 137.96 164.179 137.935 164L136.435 152.938L134.897 158.133C134.851 158.286 134.711 158.391 134.552 158.391H125.219C125.021 158.391 124.86 158.229 124.86 158.03C124.86 157.83 125.021 157.668 125.219 157.668H134.284L136.221 151.124C136.269 150.961 136.424 150.853 136.593 150.866Z" fill="#B3145C"/>
<path fill-rule="evenodd" clip-rule="evenodd" d="M152.381 150.866C152.55 150.879 152.687 151.009 152.71 151.178L154.085 161.312L154.939 155.189C154.962 155.022 155.097 154.893 155.265 154.879C155.432 154.865 155.587 154.969 155.638 155.13L156.431 157.63H158.686C158.885 157.63 159.046 157.792 159.046 157.992C159.046 158.192 158.885 158.354 158.686 158.354H156.168C156.012 158.354 155.873 158.252 155.826 158.102L155.432 156.861L154.436 164.001C154.411 164.18 154.258 164.313 154.079 164.313C153.899 164.312 153.747 164.179 153.723 164L152.223 152.939L150.688 158.133C150.642 158.287 150.501 158.392 150.341 158.391L141.009 158.354C140.81 158.353 140.649 158.19 140.65 157.99C140.651 157.79 140.813 157.629 141.011 157.63L150.075 157.667L152.009 151.124C152.057 150.961 152.212 150.853 152.381 150.866Z" fill="#B3145C"/>
<path fill-rule="evenodd" clip-rule="evenodd" d="M105.012 150.866C105.181 150.879 105.318 151.009 105.34 151.178L106.717 161.311L107.57 155.19C107.593 155.022 107.728 154.894 107.895 154.879C108.063 154.865 108.217 154.969 108.268 155.13L109.062 157.63H111.32C111.519 157.63 111.68 157.792 111.68 157.992C111.68 158.192 111.519 158.354 111.32 158.354H108.799C108.642 158.354 108.504 158.252 108.456 158.102L108.063 156.863L107.069 164.001C107.044 164.18 106.892 164.313 106.713 164.313C106.533 164.312 106.381 164.179 106.357 164L104.854 152.939L103.318 158.133C103.273 158.286 103.133 158.391 102.974 158.391H96.3388C96.1401 158.391 95.979 158.229 95.979 158.03C95.979 157.83 96.1401 157.668 96.3388 157.668H102.705L104.639 151.124C104.688 150.961 104.843 150.853 105.012 150.866Z" fill="#B3145C"/>
<path fill-rule="evenodd" clip-rule="evenodd" d="M120.802 150.866C120.971 150.879 121.108 151.009 121.131 151.178L122.506 161.312L123.36 155.189C123.384 155.022 123.519 154.893 123.687 154.879C123.855 154.865 124.009 154.97 124.06 155.131L124.851 157.668H127.108C127.307 157.668 127.468 157.83 127.468 158.03C127.468 158.229 127.307 158.391 127.108 158.391H124.587C124.43 158.391 124.291 158.289 124.244 158.138L123.851 156.879L122.857 164.001C122.832 164.18 122.68 164.313 122.5 164.313C122.321 164.312 122.169 164.179 122.144 164L120.644 152.939L119.109 158.133C119.064 158.287 118.923 158.392 118.763 158.391L109.427 158.354C109.228 158.353 109.068 158.19 109.069 157.99C109.07 157.79 109.231 157.629 109.43 157.63L118.496 157.667L120.43 151.124C120.478 150.961 120.633 150.853 120.802 150.866Z" fill="#B3145C"/>
<path d="M75.4653 222.573H73.7826V222.984H75.4653V222.573Z" fill="#F6A19E"/>
<path d="M75.4594 222.573C75.4594 222.573 76.1905 223.279 75.4594 224.014H71.1136L71.16 223.413L73.8116 222.573H73.9451C73.9451 222.573 74.6993 223.016 75.4594 222.573V222.573Z" fill="#B3145C"/>
<path d="M70.9947 224.481H75.59V224.011H70.9947V224.481Z" fill="#B3145C"/>
<path fill-rule="evenodd" clip-rule="evenodd" d="M72.8723 222.544L72.8729 222.543L73.1025 222.691C73.0298 222.805 72.9584 222.917 72.89 223.031L72.6561 222.89C72.7268 222.772 72.8001 222.657 72.8723 222.544Z" fill="#E1EEF7"/>
<path fill-rule="evenodd" clip-rule="evenodd" d="M73.2804 222.588L73.2806 222.587L73.5245 222.71L73.524 222.711C73.4633 222.833 73.4023 222.956 73.3412 223.076L73.0984 222.951C73.1589 222.832 73.2195 222.71 73.2804 222.588Z" fill="#E1EEF7"/>
<path d="M75.4015 221.735L75.3289 222.573H74.1511L74.1163 221.802L75.4015 221.735Z" fill="#F6A19E"/>
<path d="M84.8939 221.761C84.8939 221.761 84.862 222.287 84.9983 222.652C85.1347 223.016 84.0323 223.083 84.0148 223.072C83.9974 223.06 83.4955 222.652 83.4955 222.652C83.4955 222.652 83.6493 222.19 83.6261 221.694" fill="#F6A19E"/>
<path d="M83.1271 223.387C83.1677 222.978 83.3302 222.681 83.4288 222.532C83.5826 222.474 83.7857 222.418 84.0294 222.395C84.4732 222.354 84.833 222.453 85.0418 222.532C85.1347 222.652 85.3552 222.964 85.3813 223.416C85.3987 223.702 85.332 223.933 85.2826 224.067H83.1851C83.1445 223.912 83.101 223.676 83.1271 223.387V223.387Z" fill="#B3145C"/>
<path d="M85.361 224.052H83.1242V223.86C83.1242 223.375 83.5159 222.981 83.9974 222.981H84.4877C84.9693 222.981 85.361 223.375 85.361 223.86V224.052Z" fill="#B3145C"/>
<path d="M83.1213 224.481H85.3871V224.017H83.1213V224.481Z" fill="#B3145C"/>
<path fill-rule="evenodd" clip-rule="evenodd" d="M84.5839 222.6C84.5839 222.6 84.5839 222.6 84.566 222.654L84.5482 222.708L84.5482 222.708L84.5477 222.708L84.5455 222.708C84.5434 222.707 84.5402 222.706 84.5359 222.705C84.5272 222.702 84.5143 222.699 84.4978 222.695C84.4646 222.687 84.4172 222.677 84.3606 222.671C84.2468 222.658 84.0995 222.658 83.9582 222.708L83.9206 222.601C84.0839 222.543 84.25 222.543 84.3733 222.557C84.4353 222.565 84.4874 222.575 84.5242 222.584C84.5426 222.588 84.5572 222.592 84.5674 222.595C84.5725 222.597 84.5764 222.598 84.5792 222.599L84.5825 222.6L84.5835 222.6L84.5838 222.6L84.5839 222.6L84.5839 222.6Z" fill="#E1EEF7"/>
<path fill-rule="evenodd" clip-rule="evenodd" d="M84.5839 222.825C84.5839 222.825 84.5839 222.825 84.566 222.879L84.5482 222.933L84.5482 222.933L84.5477 222.933L84.5455 222.932C84.5434 222.932 84.5402 222.931 84.5359 222.929C84.5272 222.927 84.5143 222.923 84.4978 222.919C84.4646 222.911 84.4172 222.902 84.3606 222.895C84.2468 222.882 84.0995 222.883 83.9582 222.933L83.9206 222.825C84.0839 222.768 84.25 222.768 84.3733 222.782C84.4353 222.789 84.4874 222.8 84.5242 222.809C84.5426 222.813 84.5572 222.817 84.5674 222.82C84.5725 222.822 84.5764 222.823 84.5792 222.824L84.5825 222.825L84.5835 222.825L84.5838 222.825L84.5839 222.825L84.5839 222.825Z" fill="#E1EEF7"/>
<path d="M71.8215 166.746L69.4948 182.963H70.6582L73.7449 174.065L75.8656 164.931L71.8215 166.746Z" fill="#F6A19E"/>
<path d="M75.416 167.806C75.4595 167.637 75.503 167.467 75.5436 167.295C76.1238 164.893 75.7264 162.696 75.8308 160.811C75.8308 160.811 73.0574 162.314 71.659 167.172L75.416 167.803V167.806Z" fill="#F9E0D2"/>
<path d="M75.7438 173.149C75.7438 173.149 74.1714 175.956 74.0814 176.257C73.6666 177.605 73.1473 180.001 73.0515 180.532C72.5468 183.313 72.599 198.094 73.8087 221.872L76.0542 221.764C77.7716 208.985 79.3499 196.475 81.4503 184.002C81.2965 180.331 81.1427 176.657 80.989 172.986L75.7496 173.152L75.7438 173.149Z" fill="#027CFC"/>
<path d="M85.3696 174.497C85.3696 174.497 90.4843 180.331 89.2455 192.001C87.9835 203.905 85.2971 221.919 85.2971 221.919L83.1155 221.837L80.8033 184.562C80.8033 184.562 79.17 181.335 79.0685 174.772L85.3696 174.497V174.497Z" fill="#027CFC"/>
<path d="M74.9025 174.696C74.9025 171.637 74.9982 168.67 75.1142 164.972C75.1607 163.495 75.5378 162.124 75.8163 160.831C77.3713 160.315 78.9234 159.798 80.4784 159.282L84.3137 160.355C84.5922 162.661 84.5835 164.914 84.8417 167.263C85.1028 169.627 85.1376 172.174 85.3697 174.5C84.0584 174.862 82.9327 175.063 81.076 175.201C78.6188 175.384 76.5242 174.982 74.9054 174.696H74.9025Z" fill="#F9E0D2"/>
<path d="M81.72 158.838L81.7432 156.664L79.5964 156.559L79.5703 158.987C79.5239 159.427 78.9901 159.775 78.5723 159.912L77.8181 160.163C77.8964 160.834 78.5781 162.363 79.2309 162.462C80.4668 162.649 81.9985 160.548 82.6977 159.9C82.2364 159.772 81.7491 159.317 81.72 158.838Z" fill="#F6A19E"/>
<path d="M82.3351 154.315C83.0575 154.837 83.0343 155.803 83.0256 156.083C83.0023 156.985 82.4889 158.377 81.4299 158.496C80.4146 158.61 79.4369 157.49 79.3586 156.375C79.2918 155.438 79.8546 154.42 80.7627 154.116C80.8526 154.087 81.6649 153.83 82.3322 154.315H82.3351Z" fill="#F6A19E"/>
<path d="M82.2713 157.128C82.2219 157.341 82.0682 157.507 81.8796 157.551C81.6243 157.606 81.3342 157.434 81.2472 157.128H82.2742H82.2713Z" fill="white"/>
<path d="M83.0227 152.891C83.3737 153.471 82.4685 154.898 81.2762 155.461C80.3681 155.89 79.022 155.949 78.7087 155.362C78.4331 154.843 79.0481 153.976 79.5094 153.541C80.6379 152.47 82.6397 152.251 83.0256 152.891H83.0227Z" fill="#B3145C"/>
<path d="M86.9305 163.846C87.2293 164.406 87.5426 165.106 87.795 165.938C88.1547 167.132 88.2621 168.194 88.2795 168.999C89.553 167.28 90.8266 165.562 92.0973 163.846L93.0982 164.485C93.0982 164.485 90.8411 170.774 88.2359 173.397C87.9342 173.701 87.4323 173.645 87.1945 173.289C86.4141 172.125 84.8997 169.475 84.8446 166.42C84.8243 165.389 84.9374 163.948 85.7265 163.627C86.1356 163.46 86.6026 163.653 86.9305 163.84V163.846Z" fill="#F6A19E"/>
<path d="M86.9304 163.846C87.2293 164.406 87.5426 165.106 87.795 165.938C88.1547 167.132 88.262 168.194 88.2795 168.999C89.553 167.28 90.8266 165.562 92.0973 163.846L93.5769 163.758C93.5769 163.758 90.8382 170.774 88.233 173.4C87.9313 173.704 87.4294 173.648 87.1915 173.292C86.4111 172.128 84.8968 169.478 84.8416 166.423C84.8213 165.392 84.9345 163.951 85.7236 163.63C86.1326 163.463 86.5997 163.656 86.9275 163.843L86.9304 163.846Z" fill="#F6A19E"/>
<path d="M84.772 167.161C84.5399 166.525 84.5748 165.862 84.5051 165.398C84.1106 162.754 84.3137 160.355 84.3137 160.355C84.3137 160.355 86.6984 161.666 87.3714 164.205C87.56 164.917 87.7341 165.588 87.8878 166.183L84.772 167.161V167.161Z" fill="#F9E0D2"/>
<path d="M78.8277 156.077C78.8044 155.815 78.9988 155.581 79.2628 155.558C79.5239 155.535 79.756 155.73 79.7792 155.996C79.8024 156.258 79.608 156.492 79.344 156.515C79.0829 156.538 78.8509 156.343 78.8277 156.077Z" fill="#F6A19E"/>
<path d="M79.0453 156.057C79.0336 155.914 79.1381 155.785 79.2831 155.774C79.4253 155.762 79.5529 155.867 79.5645 156.013C79.5762 156.156 79.4717 156.284 79.3267 156.296C79.1845 156.308 79.0569 156.203 79.0453 156.057Z" fill="#B3145C"/>
<path fill-rule="evenodd" clip-rule="evenodd" d="M80.3434 182.162C80.5335 182.797 80.7119 183.526 80.8464 184.335L80.8465 184.336C81.0102 185.342 81.0716 186.253 81.0804 187.041L80.8048 187.044C80.7961 186.269 80.7357 185.371 80.5745 184.381C80.4421 183.585 80.2666 182.867 80.0795 182.241L80.3434 182.162Z" fill="#2E3192"/>
<path fill-rule="evenodd" clip-rule="evenodd" d="M83.1452 165.965C83.1462 165.964 83.1466 165.964 83.1466 165.964L83.1466 165.964L83.3164 166.152C83.2805 166.184 83.1744 166.259 83.0152 166.341C82.8528 166.425 82.6286 166.52 82.3531 166.591C81.8011 166.734 81.0443 166.779 80.172 166.442L80.2626 166.205C81.0787 166.521 81.7811 166.477 82.2903 166.346C82.5453 166.28 82.752 166.191 82.9 166.115C82.9739 166.077 83.0329 166.042 83.0755 166.014C83.0968 166.001 83.1137 165.989 83.1262 165.98C83.1325 165.975 83.1374 165.971 83.141 165.968L83.1452 165.965Z" fill="#FFC5AE"/>
<path fill-rule="evenodd" clip-rule="evenodd" d="M75.2904 164.918C75.2904 164.917 75.2904 164.917 75.4276 164.931C75.5647 164.945 75.5647 164.945 75.5647 164.945L75.5647 164.945L75.5647 164.945C75.5647 164.945 75.5647 164.945 75.5647 164.945L75.5645 164.947C75.5643 164.949 75.5641 164.953 75.5638 164.958C75.5632 164.968 75.5625 164.983 75.5622 165.003C75.5616 165.043 75.5627 165.101 75.5697 165.171C75.5838 165.312 75.6213 165.497 75.7132 165.682C75.8045 165.865 75.9499 166.048 76.1833 166.187C76.4173 166.327 76.7478 166.428 77.2161 166.433L77.2132 166.71C76.7067 166.705 76.3264 166.595 76.0426 166.426C75.7581 166.256 75.5786 166.03 75.4668 165.806C75.3557 165.583 75.3119 165.362 75.2955 165.199C75.2873 165.116 75.2859 165.048 75.2866 164.999C75.2869 164.974 75.2878 164.955 75.2887 164.941C75.2891 164.934 75.2895 164.929 75.2898 164.925L75.2902 164.92L75.2904 164.918L75.2904 164.918L75.2904 164.918Z" fill="#FFC5AE"/>
<path d="M94.6068 162.862C94.7199 162.638 94.6474 162.363 94.4385 162.226L93.5798 161.666L91.7637 164.298L93.4492 164.091L94.6068 162.859V162.862Z" fill="#F6A19E"/>
<path d="M93.5798 161.666L94.4559 160.408L94.7286 160.571L94.0091 161.995L93.7161 161.864L93.5798 161.666Z" fill="#F6A19E"/>
<path d="M92.8661 162.976L92.9996 162.115L93.8351 161.879L92.8661 162.976Z" fill="#F6A19E"/>
<path d="M69.4948 182.963L69.4455 183.395C69.4455 183.395 68.5461 184.434 69.4049 185.916C70.2636 187.396 70.5218 185.741 70.5218 185.741L70.6581 182.966H69.4948V182.963Z" fill="#FB9C98"/>
<path d="M70.5943 183.144C71.16 184.241 71.1803 184.562 71.0788 184.641C70.9396 184.749 70.4116 184.516 70.2781 184.043C70.1853 183.71 70.31 183.351 70.5943 183.144Z" fill="#FB9C98"/>
<path d="M70.1591 160.172C69.724 159.095 69.6369 157.478 70.5044 156.684C71.337 155.92 72.3321 156.579 73.1299 155.809C73.9277 155.041 73.2111 154.002 73.8232 152.806C74.7574 150.985 78.2097 149.777 79.6284 151.119C80.2782 151.735 80.5828 152.964 80.1564 153.9C79.6545 155 78.5346 154.828 77.7891 156.101C77.1015 157.271 77.7426 157.945 77.0667 158.745C76.2283 159.737 74.9431 159.054 74.0785 160.043C73.2372 161.003 73.9364 162.331 73.301 162.649C72.5729 163.014 70.8119 161.782 70.162 160.172H70.1591Z" fill="#B3145C"/>
<path d="M156.945 201.594C156.945 201.594 182.268 197.864 171.326 187.234C171.326 187.234 191.597 169.187 175.905 171.365C175.905 171.365 178.506 142.666 159.395 165.716C159.395 165.716 151.571 158.945 155.289 177.704C155.289 177.704 138.393 171.947 156.923 201.594H156.945Z" fill="#99CC67"/>
<path fill-rule="evenodd" clip-rule="evenodd" d="M164.455 180.071C162.928 186.408 160.456 195.005 156.676 204.039L156.676 204.04C152.89 213.052 149.727 218.681 147.499 222.067C146.384 223.761 145.503 224.895 144.894 225.612C144.589 225.97 144.352 226.224 144.188 226.391C144.106 226.475 144.042 226.537 143.997 226.58C143.974 226.601 143.956 226.618 143.943 226.63C143.937 226.635 143.931 226.64 143.927 226.644L143.922 226.649L143.92 226.65L143.919 226.651C143.919 226.651 143.918 226.652 143.466 226.132C143.014 225.612 143.014 225.612 143.014 225.612L143.013 225.613C143.014 225.612 143.016 225.61 143.019 225.608C143.025 225.602 143.037 225.591 143.053 225.576C143.085 225.545 143.137 225.496 143.207 225.424C143.347 225.281 143.562 225.051 143.847 224.716C144.416 224.046 145.264 222.958 146.351 221.307C148.524 218.005 151.648 212.454 155.408 203.505C159.152 194.557 161.602 186.034 163.117 179.747C163.875 176.604 164.397 174.022 164.731 172.227C164.897 171.33 165.017 170.629 165.094 170.155C165.133 169.917 165.161 169.736 165.179 169.615C165.189 169.554 165.195 169.509 165.2 169.478L165.205 169.445L165.206 169.435L165.206 169.434C165.206 169.434 165.206 169.434 165.887 169.532C166.568 169.63 166.568 169.63 166.568 169.63L166.566 169.643C166.565 169.652 166.563 169.664 166.561 169.68C166.556 169.713 166.549 169.761 166.539 169.824C166.52 169.949 166.491 170.135 166.452 170.377C166.373 170.862 166.252 171.572 166.083 172.48C165.746 174.295 165.218 176.901 164.455 180.071Z" fill="#84B25A"/>
<path d="M156.407 218.326C156.407 218.326 174.077 225.075 167.779 213.108C167.779 213.108 185.148 212.095 178.162 206.899C178.162 206.899 189.319 187.493 168.768 202.349C168.768 202.349 165.565 196.29 162.405 205.971C162.405 205.971 153.161 194.932 156.235 218.413" fill="#99CC67"/>
<path fill-rule="evenodd" clip-rule="evenodd" d="M168.42 206.942C168.421 206.942 168.421 206.941 168.875 207.459C169.33 207.977 169.33 207.977 169.33 207.977L169.287 208.015C169.259 208.04 169.217 208.077 169.162 208.126C169.051 208.223 168.888 208.366 168.679 208.551C168.259 208.92 167.651 209.454 166.898 210.113C165.391 211.432 163.304 213.252 160.978 215.257C156.33 219.264 150.718 224.024 146.898 227L146.054 225.91C149.844 222.957 155.432 218.219 160.081 214.21C162.404 212.208 164.489 210.39 165.993 209.074C166.745 208.415 167.352 207.882 167.771 207.514C167.981 207.329 168.143 207.186 168.253 207.089C168.308 207.041 168.35 207.004 168.378 206.979L168.42 206.942L168.42 206.942Z" fill="#84B25A"/>
<path fill-rule="evenodd" clip-rule="evenodd" d="M3.68607 225.885C3.68607 225.273 4.10041 224.776 4.61152 224.776H228.928C229.439 224.776 229.854 225.273 229.854 225.885C229.854 226.498 229.439 226.994 228.928 226.994H4.61152C4.10041 226.994 3.68607 226.498 3.68607 225.885Z" fill="#B9E7EF"/>
</svg>
