<svg width="166" height="188" viewBox="0 0 166 188" fill="none" xmlns="http://www.w3.org/2000/svg">
<path d="M14.3469 166.321C9.85262 161.478 -0.273976 150.552 0.547099 136.873C1.20972 125.846 8.34011 124.088 11.3939 109.602C14.4334 95.1875 8.3113 92.4921 10.861 78.6978C11.2355 76.6798 15.5713 54.8136 31.8056 46.9868C45.4037 40.4284 52.7934 50.7056 68.3218 44.4643C82.5538 38.7419 80.5371 28.4071 94.3945 22.5261C108.065 16.7316 128.188 17.7118 138.934 29.6322C149.536 41.4086 147.044 59.3397 146.684 61.891C144.984 74.1285 139.179 76.7951 139.741 88.2831C140.159 97.0757 143.976 103.85 147.332 109.818C154.304 122.214 159.144 122.329 162.601 131.223C165.007 137.406 168.118 151.402 161.507 158.22C151.87 168.166 127.223 156.981 107.733 164.303C102.36 166.321 99.1049 168.483 99.1049 168.483C91.0526 173.946 89.5257 180.677 76.2157 184.641C54.9397 190.998 29.4432 182.58 14.3613 166.307L14.3469 166.321Z" fill="#83E6EC" fill-opacity="0.3"/>
<path d="M101.28 156.332C111.652 156.39 120.107 148.03 120.165 137.637L120.424 92.6938L55.6168 92.3335L55.5159 110.02C55.3719 135.46 75.8555 156.188 101.28 156.332Z" fill="#F6A19E"/>
<path d="M36.4007 44.2049L37.0922 43.513C39.9011 40.7023 44.4386 40.7023 47.2332 43.513L49.7972 46.0787C51.9435 48.2264 51.9435 51.7002 49.7972 53.8479L47.939 63.7792L36.4007 51.9741C34.2544 49.8264 34.2544 46.3526 36.4007 44.2049Z" fill="#E7827F"/>
<path d="M106.336 23.3621V15.1173C107.071 15.1173 107.661 15.7083 107.661 16.4434V22.036C107.661 22.7712 107.071 23.3621 106.336 23.3621Z" fill="#653087"/>
<path d="M106.336 34.1006V25.8558C107.071 25.8558 107.661 26.4468 107.661 27.1819V32.7745C107.661 33.5097 107.071 34.1006 106.336 34.1006Z" fill="#653087"/>
<path d="M49.9412 111.519H100.992C104.063 111.519 106.552 109.028 106.552 105.955L106.552 5.79141C106.552 2.71859 104.063 0.227577 100.992 0.227577H49.9412C46.8704 0.227577 44.381 2.71859 44.381 5.79141L44.381 105.955C44.381 109.028 46.8704 111.519 49.9412 111.519Z" fill="#095FB9"/>
<path d="M46.8442 101.559H104.103L104.103 10.2021H46.8442L46.8442 101.559Z" fill="#082787"/>
<path d="M80.2057 103.014H72.8449C70.9146 103.014 69.3589 104.571 69.3589 106.503C69.3589 108.434 70.9146 109.991 72.8449 109.991H80.2057C82.136 109.991 83.6917 108.434 83.6917 106.503C83.6917 104.571 82.136 103.014 80.2057 103.014Z" fill="#082787"/>
<path d="M92.0466 112.023C104.348 108.607 114.187 116.045 117.601 128.354L130.565 187.856L83.274 187.913L79.4567 140.909C76.0428 128.599 79.7304 115.439 92.0322 112.023H92.0466Z" fill="#F6A19E"/>
<path d="M121.115 144.21H114.115C102.807 144.21 93.6311 135.028 93.6311 123.713V112.83C93.6311 98.7767 105.04 87.3607 119.084 87.3607H121.13V144.195L121.115 144.21Z" fill="#F6A19E"/>
<path d="M93.3574 115.122V120.124C93.3574 123.799 94.5242 128.124 96.6993 131.511L99.9836 136.628" stroke="#E7827F" stroke-width="4.12311" stroke-miterlimit="10"/>
<path d="M76.4401 9.19173C78.7086 8.65515 80.1128 6.38003 79.5766 4.11011C79.0403 1.84019 76.7667 0.435045 74.4982 0.971631C72.2298 1.50822 70.8255 3.78334 71.3618 6.05326C71.898 8.32318 74.1717 9.72832 76.4401 9.19173Z" fill="#082787"/>
<path d="M75.9132 6.96136C76.9507 6.71596 77.5929 5.67546 77.3476 4.63734C77.1024 3.59922 76.0626 2.95659 75.0251 3.20199C73.9877 3.44739 73.3454 4.48789 73.5907 5.52601C73.8359 6.56413 74.8758 7.20676 75.9132 6.96136Z" fill="#095FB9"/>
<path d="M75.7259 4.52305C75.7259 4.0618 75.3514 3.70145 74.9048 3.70145C74.4583 3.70145 74.0837 4.07621 74.0837 4.52305C74.0837 4.96989 74.4583 5.34465 74.9048 5.34465C75.3514 5.34465 75.7259 4.96989 75.7259 4.52305Z" fill="#EFEEFE"/>
<path d="M80.0431 92.4464C82.7377 89.7501 82.7377 85.3785 80.0431 82.6822C77.3485 79.9859 72.9797 79.9859 70.2851 82.6822C67.5905 85.3785 67.5906 89.7501 70.2851 92.4464C72.9797 95.1428 77.3485 95.1428 80.0431 92.4464Z" fill="#EFEEFE"/>
<path d="M96.4109 92.457C99.1055 89.7607 99.1055 85.3891 96.4109 82.6928C93.7163 79.9965 89.3475 79.9965 86.6529 82.6928C83.9583 85.3891 83.9584 89.7607 86.6529 92.457C89.3475 95.1533 93.7163 95.1533 96.4109 92.457Z" fill="#B3145C"/>
<path d="M71.8597 88.7524C72.5255 88.5949 72.9377 87.9271 72.7803 87.2609C72.6229 86.5946 71.9555 86.1822 71.2897 86.3397C70.6239 86.4972 70.2117 87.165 70.3691 87.8312C70.5265 88.4975 71.1938 88.9099 71.8597 88.7524Z" fill="#082787"/>
<path d="M76.0401 88.4409C76.5239 87.9568 76.5239 87.1719 76.0401 86.6878C75.5563 86.2037 74.7719 86.2037 74.2881 86.6878C73.8044 87.1719 73.8044 87.9568 74.2881 88.4409C74.7719 88.925 75.5563 88.925 76.0401 88.4409Z" fill="#082787"/>
<path d="M78.9488 88.8208C79.6242 88.7114 80.083 88.0748 79.9736 87.399C79.8642 86.7232 79.2281 86.2641 78.5527 86.3735C77.8773 86.483 77.4185 87.1196 77.5279 87.7954C77.6373 88.4712 78.2734 88.9303 78.9488 88.8208Z" fill="#082787"/>
<path d="M89.5833 87.2887C89.5833 87.2887 89.5833 87.2599 89.5689 87.2454C90.1451 87.0004 90.7933 86.813 91.4848 86.7986C92.205 86.7986 92.882 86.9716 93.4726 87.2022C93.4438 87.2454 93.415 87.3031 93.3862 87.3608L93.1701 87.8797L95.3308 88.7733L95.5469 88.2544C95.6333 88.067 95.6478 87.8652 95.6334 87.6634C95.6189 86.568 93.7607 85.7031 91.4704 85.732C89.9434 85.7608 88.6326 86.1788 87.9124 86.7842C87.4226 87.0869 87.2209 87.7211 87.4658 88.2544L87.6963 88.7589L89.8282 87.7932L89.5977 87.2887H89.5833Z" fill="#EFEEFE"/>
<path d="M101.15 14.1372H49.2642V66.0567H101.15V14.1372Z" fill="#DBF8F9"/>
<mask id="mask0_15115_57" style="mask-type:luminance" maskUnits="userSpaceOnUse" x="49" y="14" width="53" height="53">
<path d="M101.15 14.1372H49.2642V66.0567H101.15V14.1372Z" fill="white"/>
</mask>
<g mask="url(#mask0_15115_57)">
<path d="M64.4901 45.0553C65.4985 46.0643 65.9738 47.5057 65.7434 48.9183C64.8359 54.4389 62.2862 68.5358 58.9299 74.5609C54.7093 82.1427 48.6736 91.2957 48.6736 91.2957L45.4614 89.4795C45.4614 89.4795 52.6062 73.5664 54.6516 69.6313C56.265 66.5611 58.3825 54.2371 59.2324 48.9903C59.4917 47.4192 60.0823 45.9201 60.9754 44.594L62.0989 43.34L64.4757 45.0553H64.4901Z" fill="#F9E0D2"/>
<path d="M78.29 30.6989C78.29 30.6989 81.5023 28.9115 81.2718 26.8936" stroke="#B3145C" stroke-width="5.32014" stroke-miterlimit="10" stroke-linecap="round"/>
<path d="M78.3188 30.5836C78.4052 30.4971 79.3559 29.6035 80.6812 29.8485C81.8192 30.0647 82.3954 30.9584 82.4818 31.1025" stroke="#B3145C" stroke-width="5.32014" stroke-miterlimit="10" stroke-linecap="round"/>
<path d="M59.4484 79.1014C59.1171 74.7483 59.0307 69.7467 59.4484 64.2405C60.039 56.3704 61.4795 49.5814 63.0497 44.104C67.1406 42.7491 71.2172 41.3942 75.3082 40.0536L85.9533 43.023C87.293 48.7742 88.4454 55.5344 88.9927 63.145C89.4105 68.9683 89.3961 74.3303 89.1368 79.1014C86.1982 79.7645 82.8563 80.3122 79.1687 80.5861C71.3036 81.1482 64.5622 80.2545 59.4484 79.1014Z" fill="#EFEEFE"/>
<path d="M59.4484 79.1014C59.1171 74.7483 59.0307 69.7466 59.4484 64.2404C60.0102 56.8028 60.572 49.1345 61.9693 43.686C62.1133 43.1238 62.5743 42.6914 63.1505 42.6049C67.0398 41.9419 71.5629 41.4085 75.3802 40.4284L85.9533 43.0229C87.293 48.7741 88.4454 55.5343 88.9927 63.145C89.4105 68.9683 89.3961 74.3303 89.1368 79.1014C86.1982 79.7644 82.8563 80.3121 79.1687 80.586C71.3036 81.1482 64.5622 80.2545 59.4484 79.1014Z" fill="#F9E0D2"/>
<path d="M59.2036 74.042C59.1316 71.0007 59.2036 67.7287 59.4485 64.2405C59.6933 60.9829 59.9382 57.6821 60.2551 54.5542" stroke="#FFC5AE" stroke-width="5.32014" stroke-miterlimit="10"/>
<path d="M85.9534 43.0229L76.6478 40.4284C76.7775 42.0428 78.1747 44.3058 79.2695 48.0823C79.9321 50.4029 80.1482 52.1326 80.1626 63.6062C80.1626 68.6367 80.1338 74.3015 80.0186 80.5139C83.3749 80.2257 86.4287 79.7212 89.1368 79.1014C89.3817 74.3303 89.4105 68.9683 88.9928 63.145C88.4454 55.5343 87.293 48.7741 85.9534 43.0229Z" fill="#FFC5AE"/>
<path d="M79.0246 42.331L72.5856 42.2878L73.205 33.0483H78.362L79.0246 42.331Z" fill="#F6A19E"/>
<path d="M73.2051 33.0483L72.8593 38.1365C74.3863 37.8915 75.9276 36.8248 76.691 35.4411C77.08 34.7348 77.3104 33.8844 77.3393 33.0483H73.2051Z" fill="#E7827F"/>
<path d="M71.4044 41.7545C71.8078 41.3798 72.2543 40.9617 72.7729 41.005C73.133 41.0338 73.205 41.25 73.7524 41.5671C74.2422 41.841 74.7032 41.9563 75.0057 42.014C75.0345 42.2446 75.0489 42.8212 74.732 43.441C74.4007 44.0896 73.8821 44.4211 73.6804 44.5364C73.2195 44.3635 72.6 44.0896 71.9662 43.6139C71.4477 43.2248 71.0587 42.8212 70.785 42.4896C70.9147 42.3023 71.1019 42.0284 71.4044 41.7545Z" fill="#FFC5AE"/>
<path d="M79.7593 41.7256C79.5144 41.4229 79.2551 41.2211 79.0678 41.1058C78.8518 41.1058 78.5925 41.1202 78.3188 41.1635C77.9299 41.2067 77.6274 41.2788 77.4113 41.3365C76.4318 41.5815 75.2217 41.9418 75.0057 41.9995C75.0777 42.3743 75.2217 42.8355 75.4378 43.34C75.6251 43.7724 75.8412 44.1328 76.0428 44.4211C76.5326 44.0607 77.2096 43.6139 78.0739 43.2535C78.9094 42.9076 79.6584 42.7346 80.2346 42.6337C80.1626 42.4175 80.033 42.0572 79.7449 41.7112L79.7593 41.7256Z" fill="#FFC5AE"/>
<path d="M74.4583 27.5855C74.2422 27.6288 72.5568 27.9891 71.5053 29.4449C70.108 31.3908 70.0936 34.879 72.1391 36.1186C74.0982 37.3006 77.0656 35.9024 78.2323 33.8124C79.2695 31.953 79.0966 29.1566 77.4977 28.0179C76.3741 27.2107 74.9048 27.499 74.4583 27.5855Z" fill="#F6A19E"/>
<path d="M69.7191 24.7315C69.0132 26.0143 71.8366 28.6954 72.1103 28.9548C74.5159 31.2034 78.4628 32.6736 79.6584 31.4052C80.2922 30.7277 80.0761 29.344 79.5288 28.1044C79.3271 27.6431 79.0678 27.1963 78.7941 26.8215C76.3453 23.4919 70.5546 23.218 69.7335 24.7315H69.7191Z" fill="#B3145C"/>
<path d="M79.5576 33.5097C79.6152 32.9043 79.1543 32.371 78.5493 32.3133C77.9442 32.2557 77.4113 32.7169 77.3537 33.3223C77.296 33.9277 77.757 34.461 78.362 34.5187C78.967 34.5763 79.5 34.1151 79.5576 33.5097Z" fill="#F6A19E"/>
<path d="M75.1785 43.8878C73.9829 48.7886 72.9169 54.9434 72.6865 62.0928C72.4704 68.3918 72.9602 73.9412 73.6516 78.5104" stroke="#FFC5AE" stroke-width="7.18219" stroke-miterlimit="10"/>
<path d="M78.7797 26.8215C76.3309 23.4919 70.5402 23.218 69.7191 24.7315C69.0132 26.0143 71.8366 28.6954 72.1103 28.9548C72.1103 28.9548 72.1391 28.9836 72.1535 28.9836C72.6721 28.8539 73.3347 28.6809 74.2566 28.4503C76.7918 27.8305 78.3188 27.6287 79.2119 27.4702C79.0822 27.2395 78.9382 27.0089 78.7941 26.8071L78.7797 26.8215Z" fill="#B3145C"/>
<path d="M82.669 42.1148L86.3279 43.1238C86.3279 43.1238 89.3097 43.6427 92.1186 46.9579C94.2361 49.4516 100.488 59.2243 103.484 63.9377C104.492 65.5377 104.636 67.5412 103.873 69.2709L95.0572 88.9462L91.8593 87.4183L97.5492 67.3539L88.0564 56.255L82.669 42.1148Z" fill="#FFC5AE"/>
<path d="M75.1065 42.0283L76.0428 44.4355L74.9192 45.4156L73.6804 44.522L75.1065 42.0283Z" fill="#082787"/>
<path d="M74.9192 45.4156L77.6273 61.1991L74.7032 72.1249L69.6039 61.6459L74.9192 45.4156Z" fill="#082787"/>
</g>
<path opacity="0.2" d="M46.8298 42.9798V63.5919L100.2 10.1877H79.6008L46.8298 42.9798Z" fill="white"/>
<path opacity="0.2" d="M104.103 21.8198L46.8298 79.1302V101.587H55.1414L104.103 52.6083V21.8198Z" fill="white"/>
<path d="M102.101 48.6588H102.116L110.902 58.6478L116.52 65.062C119.43 68.3773 121.029 72.6438 121.029 77.069V98.9207H106.667V76.723C106.667 76.0023 106.394 75.3105 105.918 74.7771L100.805 68.9971C95.5469 63.0297 96.1231 53.92 102.087 48.6588H102.101Z" fill="#F6A19E"/>
<path d="M102.116 48.6588L105.443 56.5433H109.059L102.116 48.6588Z" fill="#FFB6B6"/>
<path d="M52.384 102.691L52.3903 101.494C52.4083 98.0555 49.6368 95.253 46.2001 95.235L44.5579 95.2264C41.1212 95.2084 38.3205 97.9817 38.3025 101.421L38.2963 102.617C38.2783 106.056 41.0497 108.858 44.4865 108.876L46.1286 108.885C49.5654 108.903 52.366 106.13 52.384 102.691Z" fill="#F6A19E"/>
<path d="M52.0169 87.7702L52.0095 89.1683C51.9919 92.5412 49.2406 95.2799 45.8555 95.2621L44.4583 95.2548C41.0876 95.2371 38.3506 92.4841 38.3684 89.0968L38.3757 87.6987C38.3933 84.3258 41.1446 81.5871 44.5297 81.6049L45.927 81.6122C49.2976 81.6298 52.0346 84.3829 52.0169 87.7702Z" fill="#F6A19E"/>
<path d="M45.9943 83.7284C48.5728 83.7284 50.6615 85.8184 50.6615 88.3985C50.6615 90.9787 48.5728 93.0687 45.9943 93.0687V83.7428V83.7284Z" fill="#FFB6B6"/>
<path d="M45.9943 97.3497C48.5728 97.3497 50.6615 99.4397 50.6615 102.02C50.6615 104.6 48.5728 106.69 45.9943 106.69V97.3641V97.3497Z" fill="#FFB6B6"/>
<path d="M38.3598 74.9934V73.5952C38.3886 70.2079 40.751 67.4837 43.6608 67.5125H44.8708C47.7805 67.5413 50.1141 70.2944 50.0997 73.6817V75.0799C50.0709 78.4672 47.7085 81.1915 44.7987 81.1626H43.5887C40.679 81.1338 38.3454 78.3807 38.3598 74.9934Z" fill="#F6A19E"/>
<path d="M44.9284 69.6602C47.1467 69.6602 48.9329 71.7502 48.9329 74.3303C48.9329 76.9104 47.1323 79.0005 44.9284 79.0005V69.6746V69.6602Z" fill="#FFB6B6"/>
<path d="M64.2903 92.4547C66.9849 89.7584 66.9849 85.3868 64.2903 82.6905C61.5957 79.9942 57.2269 79.9942 54.5324 82.6905C51.8378 85.3868 51.8378 89.7584 54.5324 92.4547C57.2269 95.151 61.5957 95.151 64.2903 92.4547Z" fill="#EFEEFE"/>
<path d="M60.5288 84.8959H56.942C56.0827 84.8959 55.3862 85.5929 55.3862 86.4526V88.7012C55.3862 89.561 56.0827 90.2579 56.942 90.2579H60.5288C61.388 90.2579 62.0845 89.561 62.0845 88.7012V86.4526C62.0845 85.5929 61.388 84.8959 60.5288 84.8959Z" fill="#082787"/>
<path d="M62.0269 87.5193L64.1444 90.1714V84.8671L62.0269 87.5193Z" fill="#082787"/>
</svg>
