<svg width="20" height="20" viewBox="0 0 20 20" fill="none" xmlns="http://www.w3.org/2000/svg">
<path d="M9.99984 1.66667C5.39984 1.66667 1.6665 5.40001 1.6665 10C1.6665 14.6 5.39984 18.3333 9.99984 18.3333C14.5998 18.3333 18.3332 14.6 18.3332 10C18.3332 5.40001 14.5998 1.66667 9.99984 1.66667ZM5.8915 15.2333C6.24984 14.4833 8.43317 13.75 9.99984 13.75C11.5665 13.75 13.7582 14.4833 14.1082 15.2333C12.9748 16.1333 11.5498 16.6667 9.99984 16.6667C8.44984 16.6667 7.02484 16.1333 5.8915 15.2333ZM15.2998 14.025C14.1082 12.575 11.2165 12.0833 9.99984 12.0833C8.78317 12.0833 5.8915 12.575 4.69984 14.025C3.84984 12.9083 3.33317 11.5167 3.33317 10C3.33317 6.32501 6.32484 3.33334 9.99984 3.33334C13.6748 3.33334 16.6665 6.32501 16.6665 10C16.6665 11.5167 16.1498 12.9083 15.2998 14.025V14.025ZM9.99984 5.00001C8.38317 5.00001 7.08317 6.30001 7.08317 7.91667C7.08317 9.53334 8.38317 10.8333 9.99984 10.8333C11.6165 10.8333 12.9165 9.53334 12.9165 7.91667C12.9165 6.30001 11.6165 5.00001 9.99984 5.00001ZM9.99984 9.16667C9.30817 9.16667 8.74984 8.60834 8.74984 7.91667C8.74984 7.22501 9.30817 6.66667 9.99984 6.66667C10.6915 6.66667 11.2498 7.22501 11.2498 7.91667C11.2498 8.60834 10.6915 9.16667 9.99984 9.16667Z" fill="#CBD2E6"/>
</svg>
