<svg width="77" height="77" viewBox="0 0 77 77" fill="none" xmlns="http://www.w3.org/2000/svg">
<circle cx="38.8188" cy="38.1818" r="25.4545" fill="#0476D9"/>
<path fill-rule="evenodd" clip-rule="evenodd" d="M22.2823 21.6455C13.1496 30.7782 13.1496 45.5853 22.2823 54.718C31.415 63.8507 46.2221 63.8507 55.3548 54.718C64.4875 45.5853 64.4875 30.7782 55.3548 21.6455C46.2221 12.5128 31.415 12.5128 22.2823 21.6455ZM19.7276 57.2727C9.18401 46.7291 9.18401 29.6345 19.7276 19.0909C30.2713 8.54723 47.3658 8.54724 57.9094 19.0909C68.4531 29.6345 68.4531 46.729 57.9094 57.2727C47.3658 67.8163 30.2713 67.8163 19.7276 57.2727Z" fill="#0476D9"/>
<path d="M29.7194 35.9535C31.7871 35.9535 33.4633 34.2773 33.4633 32.2097C33.4633 30.142 31.7871 28.4658 29.7194 28.4658C27.6518 28.4658 25.9756 30.142 25.9756 32.2097C25.9756 34.2773 27.6518 35.9535 29.7194 35.9535Z" fill="white"/>
<path d="M47.4626 35.9535C49.5303 35.9535 51.2065 34.2773 51.2065 32.2097C51.2065 30.142 49.5303 28.4658 47.4626 28.4658C45.3949 28.4658 43.7188 30.142 43.7188 32.2097C43.7188 34.2773 45.3949 35.9535 47.4626 35.9535Z" fill="white"/>
<path fill-rule="evenodd" clip-rule="evenodd" d="M40.3851 49.6461C35.82 49.1958 31.6711 50.1099 28.7405 51.8223C27.8791 52.3256 26.7728 52.0354 26.2695 51.174C25.7662 50.3126 26.0564 49.2063 26.9178 48.703C30.5994 46.5518 35.5325 45.5368 40.7407 46.0508L40.7415 46.0509C44.1962 46.3934 47.3906 47.3664 50.0768 48.8037C50.9565 49.2744 51.288 50.369 50.8173 51.2487C50.3467 52.1283 49.252 52.4599 48.3724 51.9892C46.1302 50.7895 43.3983 49.9449 40.3859 49.6462" fill="white"/>
</svg>
