<svg width="77" height="76" viewBox="0 0 77 76" fill="none" xmlns="http://www.w3.org/2000/svg">
<ellipse cx="38.8188" cy="38" rx="25.4545" ry="25.3333" fill="white"/>
<path fill-rule="evenodd" clip-rule="evenodd" d="M22.2823 21.5424C13.1496 30.6316 13.1496 45.3682 22.2823 54.4574C31.415 63.5466 46.2221 63.5466 55.3548 54.4574C64.4875 45.3682 64.4875 30.6316 55.3548 21.5424C46.2221 12.4531 31.415 12.4531 22.2823 21.5424ZM19.7276 56.9999C9.18401 46.5065 9.18401 29.4933 19.7276 18.9999C30.2713 8.50646 47.3658 8.50647 57.9094 18.9999C68.4531 29.4933 68.4531 46.5065 57.9094 56.9999C47.3658 67.4933 30.2713 67.4933 19.7276 56.9999Z" fill="#0476D9"/>
<path d="M29.7194 35.7822C31.7871 35.7822 33.4633 34.114 33.4633 32.0562C33.4633 29.9984 31.7871 28.3302 29.7194 28.3302C27.6518 28.3302 25.9756 29.9984 25.9756 32.0562C25.9756 34.114 27.6518 35.7822 29.7194 35.7822Z" fill="#0476D9"/>
<path d="M47.4626 35.7822C49.5303 35.7822 51.2065 34.114 51.2065 32.0562C51.2065 29.9984 49.5303 28.3302 47.4626 28.3302C45.3949 28.3302 43.7188 29.9984 43.7188 32.0562C43.7188 34.114 45.3949 35.7822 47.4626 35.7822Z" fill="#0476D9"/>
<path fill-rule="evenodd" clip-rule="evenodd" d="M40.3851 49.4097C35.82 48.9615 31.6711 49.8713 28.7405 51.5756C27.8791 52.0765 26.7728 51.7876 26.2695 50.9303C25.7662 50.0731 26.0564 48.972 26.9178 48.4711C30.5994 46.3301 35.5325 45.32 40.7407 45.8316L40.7415 45.8317C44.1962 46.1725 47.3906 47.1409 50.0768 48.5713C50.9565 49.0398 51.288 50.1292 50.8173 51.0047C50.3467 51.8801 49.252 52.2101 48.3724 51.7417C46.1302 50.5476 43.3983 49.7071 40.3859 49.4098" fill="#0476D9"/>
</svg>
