<svg width="20" height="21" viewBox="0 0 20 21" fill="none" xmlns="http://www.w3.org/2000/svg">
<g clip-path="url(#clip0_12763_69815)">
<path d="M9.99992 13.1668C11.4727 13.1668 12.6666 11.9729 12.6666 10.5002C12.6666 9.0274 11.4727 7.8335 9.99992 7.8335C8.52716 7.8335 7.33325 9.0274 7.33325 10.5002C7.33325 11.9729 8.52716 13.1668 9.99992 13.1668Z"/>
<path d="M7.50008 2.1665L5.97508 3.83317H3.33341C2.41675 3.83317 1.66675 4.58317 1.66675 5.49984V15.4998C1.66675 16.4165 2.41675 17.1665 3.33341 17.1665H16.6667C17.5834 17.1665 18.3334 16.4165 18.3334 15.4998V5.49984C18.3334 4.58317 17.5834 3.83317 16.6667 3.83317H14.0251L12.5001 2.1665H7.50008ZM10.0001 14.6665C7.70008 14.6665 5.83342 12.7998 5.83342 10.4998C5.83342 8.19984 7.70008 6.33317 10.0001 6.33317C12.3001 6.33317 14.1667 8.19984 14.1667 10.4998C14.1667 12.7998 12.3001 14.6665 10.0001 14.6665Z"/>
</g>
<defs>
<clipPath id="clip0_12763_69815">
<rect width="20" height="20" fill="white" transform="translate(0 0.5)"/>
</clipPath>
</defs>
</svg>
