<svg width="18" height="18" viewBox="0 0 18 18" fill="none" xmlns="http://www.w3.org/2000/svg">
<g clip-path="url(#clip0_13929_66503)">
<path d="M1.5 16.5L12 12.75L5.25 6L1.5 16.5Z" fill="#84B25A"/>
<path d="M10.8975 9.39748L15.09 5.20498C15.4575 4.83748 16.05 4.83748 16.4175 5.20498L16.86 5.64748L17.655 4.85248L17.2125 4.40998C16.41 3.60748 15.0975 3.60748 14.295 4.40998L10.1025 8.60248L10.8975 9.39748Z" fill="#84B25A"/>
<path d="M7.54504 5.15997L7.10254 5.60247L7.89754 6.39747L8.34004 5.95497C9.14254 5.15247 9.14254 3.83997 8.34004 3.03747L7.89754 2.59497L7.10254 3.39747L7.54504 3.83997C7.90504 4.19997 7.90504 4.79997 7.54504 5.15997Z" fill="#84B25A"/>
<path d="M12.795 8.90998L11.6025 10.1025L12.3975 10.8975L13.59 9.70498C13.9575 9.33748 14.55 9.33748 14.9175 9.70498L16.125 10.9125L16.92 10.1175L15.7125 8.90998C14.9025 8.10748 13.5975 8.10748 12.795 8.90998Z" fill="#84B25A"/>
<path d="M11.295 4.40997L8.60254 7.10247L9.39754 7.89747L12.09 5.20497C12.8925 4.40247 12.8925 3.08997 12.09 2.28747L10.8975 1.09497L10.1025 1.88997L11.295 3.08247C11.655 3.44997 11.655 4.04997 11.295 4.40997Z" fill="#84B25A"/>
</g>
<defs>
<clipPath id="clip0_13929_66503">
<rect width="18" height="18" fill="white"/>
</clipPath>
</defs>
</svg>
