<svg width="17" height="17" viewBox="0 0 17 17" fill="none" xmlns="http://www.w3.org/2000/svg">
<path d="M13.4384 1.42903L2.77202 1.35241C2.03871 1.34714 1.44108 1.94287 1.43581 2.67618L1.34295 14.6758L4.0287 12.0284L13.3618 12.0954C14.0951 12.1007 14.6994 11.505 14.7047 10.7717L14.7621 2.77191C14.7674 2.03859 14.1717 1.4343 13.4384 1.42903ZM4.0718 6.02854L12.0716 6.086L12.062 7.4193L4.06222 7.36183L4.0718 6.02854ZM9.38105 9.40009L4.04785 9.36178L4.05743 8.02848L9.39063 8.06679L9.38105 9.40009ZM12.0764 5.41935L4.07659 5.36189L4.08616 4.02859L12.086 4.08605L12.0764 5.41935Z" fill="white"/>
</svg>
