<svg width="20" height="21" viewBox="0 0 20 21" fill="none" xmlns="http://www.w3.org/2000/svg">
<g clip-path="url(#clip0_12763_69728)">
<path d="M16.125 8.86781C15.5583 5.99281 13.0333 3.83447 10 3.83447C7.59167 3.83447 5.5 5.20114 4.45833 7.20114C1.95 7.46781 0 9.59281 0 12.1678C0 14.9261 2.24167 17.1678 5 17.1678H15.8333C18.1333 17.1678 20 15.3011 20 13.0011C20 10.8011 18.2917 9.01781 16.125 8.86781ZM15.8333 15.5011H5C3.15833 15.5011 1.66667 14.0095 1.66667 12.1678C1.66667 10.4595 2.94167 9.03447 4.63333 8.85947L5.525 8.76781L5.94167 7.97614C6.73333 6.45114 8.28333 5.50114 10 5.50114C12.1833 5.50114 14.0667 7.05114 14.4917 9.19281L14.7417 10.4428L16.0167 10.5345C17.3167 10.6178 18.3333 11.7095 18.3333 13.0011C18.3333 14.3761 17.2083 15.5011 15.8333 15.5011ZM6.66667 11.3345H8.79167V13.8345H11.2083V11.3345H13.3333L10 8.00114L6.66667 11.3345Z"/>
</g>
<defs>
<clipPath id="clip0_12763_69728">
<rect width="20" height="20" fill="white" transform="translate(0 0.500977)"/>
</clipPath>
</defs>
</svg>
