<svg width="94" height="90" viewBox="0 0 94 90" fill="none" xmlns="http://www.w3.org/2000/svg">
<path d="M1.92273 89.2227C0.854545 89.2227 0 88.3682 0 87.3C0 86.2318 0.854545 85.3773 1.92273 85.3773H85.8818C88.0182 85.3773 89.9409 83.6682 89.9409 81.3182C89.9409 78.9682 88.2318 77.2591 85.8818 77.2591H44.0091C39.5227 77.2591 35.8909 73.6273 35.8909 69.1409C35.8909 64.6546 39.5227 61.0227 44.0091 61.0227H76.0545C83.7454 61.0227 89.9409 54.8273 89.9409 46.9227C89.9409 39.0182 85.2409 34.5318 78.8318 33.25C78.4045 33.25 77.7636 32.8227 77.55 32.3955C77.3364 31.9682 77.1227 31.3273 77.3364 30.9C77.7636 29.4046 77.7636 27.6955 77.7636 26.2C77.7636 14.2364 68.15 4.62274 56.1864 4.62274C44.2227 4.62274 40.5909 9.1091 36.9591 16.5864C36.5318 17.2273 35.8909 17.6546 35.25 17.6546C34.6091 17.6546 34.8227 17.6546 34.3955 17.6546C32.9 17.0136 31.4045 16.8 29.9091 16.8C23.5 16.8 18.1591 22.1409 18.1591 28.55C18.1591 34.9591 18.1591 30.0455 18.1591 30.6864C18.1591 31.3273 18.1591 31.7546 17.7318 32.1818C17.3045 32.6091 16.8773 32.8227 16.2364 33.0364C8.97273 33.6773 3.63182 39.6591 3.63182 46.9227C3.63182 54.1864 9.82727 61.0227 17.5182 61.0227H22.4318C23.5 61.0227 24.3545 61.8773 24.3545 62.9455C24.3545 64.0136 23.5 64.8682 22.4318 64.8682H17.5182C8.11818 65.0818 0 57.1773 0 47.1364C0 37.0955 5.55455 31.7546 13.4591 29.6182C13.8864 29.6182 14.1 29.1909 14.1 28.7636C14.1 20.0046 21.15 12.9546 29.9091 12.9546C38.6682 12.9546 32.2591 12.9546 33.5409 13.3818C33.5409 13.3818 33.5409 13.3818 33.7545 13.3818C34.1818 13.3818 34.3955 13.3818 34.6091 12.9546C39.3091 5.26365 47.4273 0.777283 56.1864 0.777283C70.2864 0.777283 81.6091 12.3136 81.6091 26.4136C81.6091 40.5136 81.6091 28.3364 81.6091 29.1909C81.6091 29.6182 81.6091 30.0455 82.25 30.2591C89.3 32.8227 94 39.6591 94 47.1364C94 54.6136 85.8818 65.0818 76.0545 65.0818H44.0091C41.8727 65.0818 39.95 66.7909 39.95 69.1409C39.95 71.4909 41.6591 73.2 44.0091 73.2H86.0954C90.5818 73.2 94.2136 76.8318 94.2136 81.3182C94.2136 85.8046 90.5818 89.4364 86.0954 89.4364H1.92273V89.2227Z" fill="#999999"/>
<path d="M49.9909 20.2182C41.0182 20.2182 33.7545 27.4818 33.7545 36.4546C33.7545 45.4273 41.0182 52.6909 49.9909 52.6909C58.9636 52.6909 66.2272 45.4273 66.2272 36.4546C66.2272 27.4818 58.9636 20.2182 49.9909 20.2182ZM62.3818 36.4546C62.3818 39.0182 61.5272 41.3682 60.2454 43.2909L42.9409 25.9864C44.8636 24.7046 47.2136 23.85 49.7772 23.85C56.6136 23.85 62.1682 29.4046 62.1682 36.2409L62.3818 36.4546ZM37.6 36.4546C37.6 33.4637 38.6682 30.9 40.3772 28.7637L57.8954 46.2818C55.7591 47.9909 53.1954 49.0591 50.2045 49.0591C43.3682 49.0591 37.8136 43.5046 37.8136 36.6682L37.6 36.4546Z" fill="#999999"/>
</svg>
