<svg width="180" height="143" viewBox="0 0 180 143" fill="none" xmlns="http://www.w3.org/2000/svg">
<g clip-path="url(#clip0_15573_74453)">
<path d="M18.6301 141.57H159.252C180.332 114.014 185.926 76.9048 173.373 47.6676C162.955 23.4026 142.558 12.9512 134.666 8.91293C104.973 -6.27939 77.0286 1.91273 68.5246 4.8569C37.2699 15.673 -1.21781 49.1619 0.029552 92.8798C0.688535 116.158 12.3619 133.547 18.638 141.57H18.6301Z" fill="#83E6EC" fill-opacity="0.29"/>
<path d="M97.1877 87.7802L81.6102 87.9433C80.2543 87.9433 79.149 86.8607 79.1343 85.5111L78.9722 69.835C78.9722 68.4706 80.048 67.3583 81.3891 67.3435L93.8128 67.21L99.472 72.7863L99.6046 85.2886C99.6046 86.653 98.5288 87.7654 97.1877 87.7802V87.7802Z" fill="white"/>
<path d="M93.813 67.21L93.8719 70.977C93.8719 72.0003 94.7267 72.8308 95.7436 72.816L99.4869 72.7863L93.8277 67.21H93.813Z" fill="#C4C4C4"/>
<path d="M94.2738 74.1404L87.436 74.2125L87.449 75.4582L94.2868 75.3861L94.2738 74.1404Z" fill="#C4C4C4"/>
<path d="M94.2863 76.7207L84.2949 76.826L84.3079 78.0717L94.2993 77.9664L94.2863 76.7207Z" fill="#C4C4C4"/>
<path d="M94.3132 79.3304L84.3218 79.4357L84.3347 80.6814L94.3262 80.5761L94.3132 79.3304Z" fill="#C4C4C4"/>
<path d="M94.3406 81.9255L84.3491 82.0308L84.3621 83.2765L94.3535 83.1712L94.3406 81.9255Z" fill="#C4C4C4"/>
<path d="M41.9167 57.2973L16.4035 50.6951C14.189 50.0973 12.8532 47.845 13.4143 45.6382L19.9467 20.0097C20.5384 17.7852 22.7778 16.4462 24.9746 17.0133L45.3239 22.2733L52.149 33.8597L46.9446 54.3009C46.353 56.5254 44.1135 57.8645 41.9167 57.2973V57.2973Z" fill="white"/>
<path d="M45.3242 22.2513L43.7871 28.4186C43.3434 30.0869 44.3794 31.8178 46.0466 32.2419L52.1733 33.844L45.3483 22.2577L45.3242 22.2513Z" fill="#C4C4C4"/>
<path d="M43.0704 33.7683L31.8789 30.876L31.3603 32.9091L42.5518 35.8015L43.0704 33.7683Z" fill="#C4C4C4"/>
<path d="M41.9678 37.985L25.6157 33.7603L25.0971 35.7926L41.4492 40.0173L41.9678 37.985Z" fill="#C4C4C4"/>
<path d="M40.8765 42.2555L24.5244 38.0308L24.0058 40.0631L40.358 44.2878L40.8765 42.2555Z" fill="#C4C4C4"/>
<path d="M39.7916 46.502L23.4395 42.2773L22.9209 44.3097L39.273 48.5344L39.7916 46.502Z" fill="#C4C4C4"/>
<path d="M163.177 50.3314L137.806 57.4667C135.591 58.0646 133.317 56.787 132.707 54.5932L125.644 29.108C125.053 26.8836 126.327 24.5958 128.511 23.9802L148.745 18.284L160.406 24.8796L166.044 45.2036C166.636 47.4281 165.361 49.7159 163.177 50.3314V50.3314Z" fill="white"/>
<path d="M148.723 18.2839L150.453 24.3992C150.896 26.0675 152.653 27.0445 154.307 26.5719L160.408 24.8729L148.747 18.2774L148.723 18.2839Z" fill="#C4C4C4"/>
<path d="M152.493 29.3816L141.365 32.5094L141.926 34.5314L153.054 31.4036L152.493 29.3816Z" fill="#C4C4C4"/>
<path d="M153.636 33.5866L137.376 38.1554L137.937 40.1766L154.197 35.6079L153.636 33.5866Z" fill="#C4C4C4"/>
<path d="M154.816 37.8332L138.556 42.402L139.117 44.4232L155.377 39.8545L154.816 37.8332Z" fill="#C4C4C4"/>
<path d="M155.989 42.0559L139.729 46.6247L140.29 48.6459L156.55 44.0772L155.989 42.0559Z" fill="#C4C4C4"/>
<path d="M69.1479 68.0297L53.8073 59.2193C52.4802 58.4386 52.0136 56.7443 52.7663 55.4171L61.5177 40.0069C62.2932 38.6738 63.9785 38.2064 65.2997 38.9642L77.5363 45.9876L79.9062 54.6948L72.9299 66.9869C72.1544 68.3201 70.4691 68.7874 69.1479 68.0297V68.0297Z" fill="white"/>
<path d="M77.5366 45.9745L75.4532 49.689C74.8716 50.6889 75.2362 51.9926 76.24 52.5636L79.9209 54.6901L77.551 45.9829L77.5366 45.9745Z" fill="#C4C4C4"/>
<path d="M74.0476 53.0196L67.3179 49.1565L66.623 50.3799L73.3527 54.2431L74.0476 53.0196Z" fill="#C4C4C4"/>
<path d="M72.5906 55.5503L62.7578 49.9064L62.063 51.1296L71.8957 56.7736L72.5906 55.5503Z" fill="#C4C4C4"/>
<path d="M71.1316 58.1181L61.2988 52.4742L60.604 53.6974L70.4368 59.3413L71.1316 58.1181Z" fill="#C4C4C4"/>
<path d="M69.6809 60.6716L59.8481 55.0276L59.1533 56.2509L68.9861 61.8948L69.6809 60.6716Z" fill="#C4C4C4"/>
<path d="M125.031 61.7248L109.866 70.8379C108.538 71.6172 106.841 71.1941 106.061 69.883L97.0084 54.6499C96.2343 53.3159 96.6569 51.6101 97.962 50.8247L110.055 43.5534L118.761 45.7526L125.984 57.8997C126.759 59.2337 126.336 60.9395 125.031 61.7248V61.7248Z" fill="white"/>
<path d="M110.042 43.5532L112.237 47.2023C112.818 48.2027 114.126 48.5234 115.113 47.9245L118.763 45.7439L110.056 43.5448L110.042 43.5532Z" fill="#C4C4C4"/>
<path d="M114.432 50.0655L107.78 54.0624L108.499 55.2717L115.151 51.2748L114.432 50.0655Z" fill="#C4C4C4"/>
<path d="M115.911 52.5833L106.192 58.4228L106.911 59.6319L116.63 53.7924L115.911 52.5833Z" fill="#C4C4C4"/>
<path d="M117.42 55.1216L107.701 60.9611L108.42 62.1702L118.139 56.3308L117.42 55.1216Z" fill="#C4C4C4"/>
<path d="M118.921 57.6456L109.202 63.4851L109.921 64.6942L119.64 58.8548L118.921 57.6456Z" fill="#C4C4C4"/>
<path d="M140.611 78.4764H37.9907V141.653H140.611V78.4764Z" fill="#C9005A"/>
<path d="M39.594 72.0349H77.5897C78.4818 72.0349 79.193 72.7628 79.193 73.6483V87.7686H37.9907V73.6483C37.9907 72.7507 38.714 72.0349 39.594 72.0349V72.0349Z" fill="#C9005A"/>
<g clip-path="url(#clip1_15573_74453)">
<path d="M108.854 103.356H95.6538V90.09H82.9239V103.356H69.7236V116.149H82.9239V129.415H95.6538V116.149H108.854V103.356Z" fill="white"/>
</g>
<path fill-rule="evenodd" clip-rule="evenodd" d="M8.5376 141.927C8.5376 141.335 8.8858 140.855 9.31532 140.855H169.973C170.403 140.855 170.751 141.335 170.751 141.927C170.751 142.52 170.403 143 169.973 143H9.31532C8.8858 143 8.5376 142.52 8.5376 141.927Z" fill="#B9E7EF"/>
</g>
<defs>
<clipPath id="clip0_15573_74453">
<rect width="180" height="143" fill="white"/>
</clipPath>
<clipPath id="clip1_15573_74453">
<rect width="39.1304" height="39.325" fill="white" transform="translate(69.7236 90.09)"/>
</clipPath>
</defs>
</svg>
