<svg width="18" height="18" viewBox="0 0 18 18" fill="none" xmlns="http://www.w3.org/2000/svg">
<g clip-path="url(#clip0_13929_66557)">
<path d="M5.07 3.62998L3.72 2.28748L2.6625 3.34498L4.005 4.68748L5.07 3.62998ZM0.75 7.87498H3V9.37498H0.75V7.87498ZM8.25 0.412476H9.75V2.62498H8.25V0.412476ZM14.28 2.28373L15.336 3.33898L13.9935 4.68148L12.9382 3.62548L14.28 2.28373ZM12.93 13.62L14.2725 14.97L15.33 13.9125L13.98 12.57L12.93 13.62ZM15 7.87498H17.25V9.37498H15V7.87498ZM9 4.12498C6.5175 4.12498 4.5 6.14248 4.5 8.62498C4.5 11.1075 6.5175 13.125 9 13.125C11.4825 13.125 13.5 11.1075 13.5 8.62498C13.5 6.14248 11.4825 4.12498 9 4.12498ZM9 11.625C7.3425 11.625 6 10.2825 6 8.62498C6 6.96748 7.3425 5.62498 9 5.62498C10.6575 5.62498 12 6.96748 12 8.62498C12 10.2825 10.6575 11.625 9 11.625ZM8.25 14.625H9.75V16.8375H8.25V14.625ZM2.6625 13.905L3.72 14.9625L5.0625 13.6125L4.005 12.555L2.6625 13.905Z" fill="#3FB1B9"/>
</g>
<defs>
<clipPath id="clip0_13929_66557">
<rect width="18" height="18" fill="white"/>
</clipPath>
</defs>
</svg>
