<svg width="60" height="78" viewBox="0 0 60 78" fill="none" xmlns="http://www.w3.org/2000/svg">
<path d="M4.65789 78C2.38995 78 0.5 76.1295 0.5 73.8849V16.4604C0.5 14.2158 2.38995 12.3453 4.65789 12.3453H9.76076C10.1388 12.3453 10.5167 11.9712 10.5167 11.5971V9.16547C10.5167 8.23022 11.2727 7.48201 12.2177 7.48201H20.1555C20.5335 7.48201 20.9115 7.29496 20.9115 6.92086C22.0455 2.80576 25.6364 0 29.7943 0C33.9521 0 37.7321 2.80576 38.677 6.92086C38.677 7.29496 39.055 7.48201 39.433 7.48201H47.3708C48.3158 7.48201 49.0718 8.23022 49.0718 9.16547V11.5971C49.0718 11.9712 49.4498 12.3453 49.8277 12.3453H54.9306C57.1986 12.3453 59.0885 14.2158 59.0885 16.4604V73.8849C59.0885 76.1295 57.1986 78 54.9306 78H4.65789ZM4.65789 15.7122C4.2799 15.7122 3.90191 16.0863 3.90191 16.4604V73.8849C3.90191 74.259 4.2799 74.6331 4.65789 74.6331H55.1196C55.4976 74.6331 55.8756 74.259 55.8756 73.8849V16.4604C55.8756 16.0863 55.4976 15.7122 55.1196 15.7122H50.0167C49.6387 15.7122 49.2608 16.0863 49.2608 16.4604V18.8921C49.2608 19.8273 48.5048 20.5755 47.5598 20.5755H12.2177C11.2727 20.5755 10.5167 19.8273 10.5167 18.8921V16.4604C10.5167 16.0863 10.1388 15.7122 9.76076 15.7122H4.65789ZM14.6746 10.6619C14.2966 10.6619 13.9187 11.036 13.9187 11.4101V16.4604C13.9187 16.8345 14.2966 17.2086 14.6746 17.2086H45.1029C45.4809 17.2086 45.8588 16.8345 45.8588 16.4604V11.4101C45.8588 11.036 45.4809 10.6619 45.1029 10.6619H37.5431C36.5981 10.6619 35.8421 9.91367 35.8421 8.97842C35.8421 5.79856 33.1962 3.17986 29.9832 3.17986C26.7703 3.17986 24.1244 5.79856 24.1244 8.97842C24.1244 12.1583 23.3684 10.6619 22.4234 10.6619H14.8636H14.6746Z" />
<path d="M29.3206 63.0359C20.0598 63.0359 12.5 55.5539 12.5 46.3884C12.5 37.223 20.0598 29.741 29.3206 29.741C38.5813 29.741 46.1411 37.223 46.1411 46.3884C46.1411 55.5539 38.5813 63.0359 29.3206 63.0359ZM29.3206 33.1079C21.9498 33.1079 15.9019 39.0935 15.9019 46.3884C15.9019 53.6834 21.9498 59.669 29.3206 59.669C36.6914 59.669 42.7392 53.6834 42.7392 46.3884C42.7392 39.0935 36.6914 33.1079 29.3206 33.1079Z" />
<path d="M30.1148 53.1223C29.1699 53.1223 28.4139 52.3741 28.4139 51.4389V49.0072C28.4139 48.6331 28.0359 48.259 27.6579 48.259H25.201C24.256 48.259 23.5 47.5108 23.5 46.5756C23.5 45.6403 24.256 44.8921 25.201 44.8921H27.6579C28.0359 44.8921 28.4139 44.518 28.4139 44.1439V41.7123C28.4139 40.777 29.1699 40.0288 30.1148 40.0288C31.0598 40.0288 31.8158 40.777 31.8158 41.7123V44.1439C31.8158 44.518 32.1938 44.8921 32.5718 44.8921H35.0287C35.9737 44.8921 36.7297 45.6403 36.7297 46.5756C36.7297 47.5108 35.9737 48.259 35.0287 48.259H32.5718C32.1938 48.259 31.8158 48.6331 31.8158 49.0072V51.4389C31.8158 52.3741 31.0598 53.1223 30.1148 53.1223Z" />
<path d="M28.5 8.97838C28.5 8.04312 29.256 7.29492 30.201 7.29492C31.1459 7.29492 31.9019 8.04312 31.9019 8.97838C31.9019 9.91363 31.1459 10.6618 30.201 10.6618C29.256 10.6618 28.5 9.91363 28.5 8.97838Z" />
</svg>
