<svg width="18" height="18" viewBox="0 0 18 18" fill="none" xmlns="http://www.w3.org/2000/svg">
<g clip-path="url(#clip0_12763_69765)">
<path d="M11.25 1.50098H4.5C3.675 1.50098 3 2.17598 3 3.00098V15.001C3 15.826 3.675 16.501 4.5 16.501H13.5C14.325 16.501 15 15.826 15 15.001V5.25098L11.25 1.50098ZM4.5 15.001V3.00098H10.5V6.00098H13.5V15.001H4.5ZM12 7.50098V11.251C12 12.9085 10.6575 14.251 9 14.251C7.3425 14.251 6 12.9085 6 11.251V6.37598C6 5.27348 6.945 4.39598 8.07 4.50848C9.045 4.60598 9.75 5.49848 9.75 6.48098V11.251H8.25V6.37598C8.25 6.16598 8.085 6.00098 7.875 6.00098C7.665 6.00098 7.5 6.16598 7.5 6.37598V11.251C7.5 12.076 8.175 12.751 9 12.751C9.825 12.751 10.5 12.076 10.5 11.251V7.50098H12Z"/>
</g>
<defs>
<clipPath id="clip0_12763_69765">
<rect width="18" height="18" fill="white" transform="translate(0 0.000976562)"/>
</clipPath>
</defs>
</svg>
