<svg width="77" height="76" viewBox="0 0 77 76" fill="none" xmlns="http://www.w3.org/2000/svg">
<ellipse cx="38.1821" cy="38" rx="25.4545" ry="25.3333" fill="white"/>
<path fill-rule="evenodd" clip-rule="evenodd" d="M21.6456 21.5198C12.5128 30.5994 12.5128 45.3205 21.6456 54.4001C30.7783 63.4798 45.5854 63.4798 54.7181 54.4001C63.8508 45.3205 63.8508 30.5994 54.7181 21.5198C45.5854 12.4401 30.7783 12.4401 21.6456 21.5198ZM19.0909 56.9399C8.54729 46.4576 8.54729 29.4623 19.0909 18.98C29.6345 8.49762 46.7291 8.49763 57.2727 18.98C67.8164 29.4623 67.8164 46.4576 57.2727 56.9399C46.7291 67.4223 29.6345 67.4223 19.0909 56.9399Z" fill="#0476D9"/>
<path fill-rule="evenodd" clip-rule="evenodd" d="M52.9301 42.5981C53.8421 43.0002 54.2535 44.0612 53.8491 44.9679C51.1977 50.9119 45.2076 55.0652 38.2371 55.0652C31.5845 55.0652 25.8278 51.2833 23.0091 45.7716C22.5569 44.8874 22.9113 43.8063 23.8006 43.3568C24.6899 42.9073 25.7774 43.2596 26.2295 44.1437C28.4565 48.4984 32.9975 51.4734 38.2371 51.4734C43.7274 51.4734 48.4532 48.2047 50.5464 43.5118C50.9509 42.6051 52.0181 42.196 52.9301 42.5981Z" fill="#0476D9"/>
<path d="M29.0798 35.7452C31.1475 35.7452 32.8236 34.0788 32.8236 32.0231C32.8236 29.9675 31.1475 28.301 29.0798 28.301C27.0121 28.301 25.3359 29.9675 25.3359 32.0231C25.3359 34.0788 27.0121 35.7452 29.0798 35.7452Z" fill="#0476D9"/>
<path d="M46.8239 35.7452C48.8916 35.7452 50.5677 34.0788 50.5677 32.0231C50.5677 29.9675 48.8916 28.301 46.8239 28.301C44.7562 28.301 43.0801 29.9675 43.0801 32.0231C43.0801 34.0788 44.7562 35.7452 46.8239 35.7452Z" fill="#0476D9"/>
</svg>
