<svg width="18" height="17" viewBox="0 0 18 17" xmlns="http://www.w3.org/2000/svg">
<path d="M8.99163 0.166656C4.39163 0.166656 0.666626 3.89999 0.666626 8.49999C0.666626 13.1 4.39163 16.8333 8.99163 16.8333C13.6 16.8333 17.3333 13.1 17.3333 8.49999C17.3333 3.89999 13.6 0.166656 8.99163 0.166656ZM8.99996 15.1667C5.31663 15.1667 2.33329 12.1833 2.33329 8.49999C2.33329 4.81666 5.31663 1.83332 8.99996 1.83332C12.6833 1.83332 15.6666 4.81666 15.6666 8.49999C15.6666 12.1833 12.6833 15.1667 8.99996 15.1667ZM11.9166 7.66666C12.6083 7.66666 13.1666 7.10832 13.1666 6.41666C13.1666 5.72499 12.6083 5.16666 11.9166 5.16666C11.225 5.16666 10.6666 5.72499 10.6666 6.41666C10.6666 7.10832 11.225 7.66666 11.9166 7.66666ZM6.08329 7.66666C6.77496 7.66666 7.33329 7.10832 7.33329 6.41666C7.33329 5.72499 6.77496 5.16666 6.08329 5.16666C5.39163 5.16666 4.83329 5.72499 4.83329 6.41666C4.83329 7.10832 5.39163 7.66666 6.08329 7.66666ZM8.99996 13.0833C10.9416 13.0833 12.5916 11.8667 13.2583 10.1667H4.74163C5.40829 11.8667 7.05829 13.0833 8.99996 13.0833Z" />
</svg>
