<svg width="77" height="77" viewBox="0 0 77 77" fill="none" xmlns="http://www.w3.org/2000/svg">
<ellipse cx="38.1821" cy="38.1818" rx="25.4545" ry="25.4545" fill="#0476D9"/>
<path fill-rule="evenodd" clip-rule="evenodd" d="M21.6456 21.6228C12.5128 30.7459 12.5128 45.5373 21.6456 54.6604C30.7783 63.7835 45.5854 63.7835 54.7181 54.6604C63.8508 45.5373 63.8508 30.7459 54.7181 21.6228C45.5854 12.4997 30.7783 12.4997 21.6456 21.6228ZM19.0909 57.2124C8.54729 46.6799 8.54729 29.6033 19.0909 19.0708C29.6345 8.5383 46.7291 8.5383 57.2727 19.0708C67.8164 29.6033 67.8164 46.6799 57.2727 57.2124C46.7291 67.7449 29.6345 67.7449 19.0909 57.2124Z" fill="#0476D9"/>
<path fill-rule="evenodd" clip-rule="evenodd" d="M52.9301 42.8019C53.8421 43.2059 54.2535 44.2719 53.8491 45.183C51.1977 51.1555 45.2077 55.3286 38.2371 55.3286C31.5845 55.3286 25.8278 51.5286 23.0091 45.9905C22.5569 45.1021 22.9113 44.0158 23.8006 43.5641C24.6899 43.1125 25.7774 43.4665 26.2295 44.3549C28.4565 48.7304 32.9975 51.7196 38.2371 51.7196C43.7274 51.7196 48.4532 48.4352 50.5464 43.7199C50.9509 42.8089 52.0181 42.3979 52.9301 42.8019Z" fill="white"/>
<path d="M29.0798 35.9162C31.1475 35.9162 32.8236 34.2418 32.8236 32.1763C32.8236 30.1108 31.1475 28.4364 29.0798 28.4364C27.0121 28.4364 25.3359 30.1108 25.3359 32.1763C25.3359 34.2418 27.0121 35.9162 29.0798 35.9162Z" fill="white"/>
<path d="M46.8239 35.9162C48.8916 35.9162 50.5677 34.2418 50.5677 32.1763C50.5677 30.1108 48.8916 28.4364 46.8239 28.4364C44.7562 28.4364 43.0801 30.1108 43.0801 32.1763C43.0801 34.2418 44.7562 35.9162 46.8239 35.9162Z" fill="white"/>
</svg>
