<svg width="78" height="77" viewBox="0 0 78 77" fill="none" xmlns="http://www.w3.org/2000/svg">
<circle cx="39.0004" cy="38.1818" r="25.4545" fill="#0476D9"/>
<path fill-rule="evenodd" clip-rule="evenodd" d="M22.4639 21.6455C13.3312 30.7782 13.3312 45.5853 22.4639 54.718C31.5966 63.8507 46.4037 63.8507 55.5364 54.718C64.6692 45.5853 64.6692 30.7782 55.5364 21.6455C46.4037 12.5128 31.5966 12.5128 22.4639 21.6455ZM19.9093 57.2727C9.36565 46.7291 9.36565 29.6345 19.9093 19.0909C30.4529 8.54723 47.5475 8.54723 58.0911 19.0908C68.6347 29.6345 68.6347 46.729 58.0911 57.2727C47.5475 67.8163 30.4529 67.8163 19.9093 57.2727Z" fill="#0476D9"/>
<path d="M29.8972 35.9565C31.9648 35.9565 33.641 34.2803 33.641 32.2126C33.641 30.1449 31.9648 28.4688 29.8972 28.4688C27.8295 28.4688 26.1533 30.1449 26.1533 32.2126C26.1533 34.2803 27.8295 35.9565 29.8972 35.9565Z" fill="white"/>
<path d="M47.6413 35.9565C49.709 35.9565 51.3851 34.2803 51.3851 32.2126C51.3851 30.1449 49.709 28.4688 47.6413 28.4688C45.5736 28.4688 43.8975 30.1449 43.8975 32.2126C43.8975 34.2803 45.5736 35.9565 47.6413 35.9565Z" fill="white"/>
<path fill-rule="evenodd" clip-rule="evenodd" d="M47.8333 43.38C48.831 43.38 49.6397 44.1888 49.6397 45.1864C49.6397 48.0713 47.395 49.4213 45.8845 49.9804C45.0856 50.2761 44.3104 50.4313 43.7509 50.5141C43.4669 50.5561 43.2277 50.581 43.055 50.5956C42.9684 50.6029 42.8979 50.6077 42.846 50.6107C42.82 50.6122 42.7987 50.6134 42.7823 50.6141L42.7614 50.6151L42.7538 50.6154L42.7507 50.6155L42.7494 50.6156C42.7487 50.6156 42.7481 50.6156 42.6817 48.8104L42.7481 50.6156L42.7149 50.6168H33.8514L33.7148 50.5945C33.7126 50.5942 33.709 50.5937 33.7041 50.593C33.6877 50.5908 33.6569 50.5869 33.6137 50.5825C33.5266 50.5736 33.3936 50.5631 33.2311 50.5597C32.8932 50.5528 32.4911 50.5784 32.1256 50.6755C31.7593 50.7728 31.5347 50.9127 31.4053 51.0581C31.3032 51.1728 31.1324 51.4293 31.1324 52.0553C31.1324 53.0529 30.3236 53.8617 29.3259 53.8617C28.3283 53.8617 27.5195 53.0529 27.5195 52.0553C27.5195 50.6769 27.9327 49.5256 28.7066 48.6561C29.4532 47.8173 30.3967 47.3965 31.1985 47.1837C32.0009 46.9706 32.7669 46.9366 33.3051 46.9477C33.5805 46.9533 33.8125 46.9711 33.981 46.9884C34.0334 46.9937 34.08 46.999 34.1202 47.004H42.636C42.6599 47.0026 42.699 46.9999 42.7511 46.9955C42.8601 46.9863 43.0234 46.9696 43.2223 46.9401C43.6288 46.88 44.1415 46.7732 44.6305 46.5922C45.6958 46.1979 46.0269 45.7359 46.0269 45.1864C46.0269 44.1888 46.8357 43.38 47.8333 43.38ZM42.6095 47.0054L42.6107 47.0054C42.6091 47.0055 42.6087 47.0055 42.6095 47.0054Z" fill="white"/>
</svg>
