<svg width="78" height="76" viewBox="0 0 78 76" fill="none" xmlns="http://www.w3.org/2000/svg">
<ellipse cx="39.0004" cy="38" rx="25.4545" ry="25.3333" fill="white"/>
<path fill-rule="evenodd" clip-rule="evenodd" d="M22.4639 21.5425C13.3312 30.6317 13.3312 45.3683 22.4639 54.4575C31.5966 63.5467 46.4037 63.5467 55.5364 54.4575C64.6692 45.3683 64.6692 30.6317 55.5364 21.5425C46.4037 12.4532 31.5966 12.4533 22.4639 21.5425ZM19.9093 57C9.36565 46.5066 9.36565 29.4934 19.9093 19C30.4529 8.50659 47.5475 8.50658 58.0911 19C68.6347 29.4934 68.6347 46.5066 58.0911 57C47.5475 67.4934 30.4529 67.4934 19.9093 57Z" fill="#0476D9"/>
<path d="M29.8972 35.7852C31.9648 35.7852 33.641 34.117 33.641 32.0592C33.641 30.0013 31.9648 28.3331 29.8972 28.3331C27.8295 28.3331 26.1533 30.0013 26.1533 32.0592C26.1533 34.117 27.8295 35.7852 29.8972 35.7852Z" fill="#0476D9"/>
<path d="M47.6413 35.7852C49.709 35.7852 51.3851 34.117 51.3851 32.0592C51.3851 30.0013 49.709 28.3331 47.6413 28.3331C45.5736 28.3331 43.8975 30.0013 43.8975 32.0592C43.8975 34.117 45.5736 35.7852 47.6413 35.7852Z" fill="#0476D9"/>
<path fill-rule="evenodd" clip-rule="evenodd" d="M47.8333 43.1733C48.831 43.1733 49.6397 43.9782 49.6397 44.9712C49.6397 47.8423 47.395 49.1859 45.8845 49.7423C45.0856 50.0366 44.3104 50.1911 43.7509 50.2735C43.4669 50.3153 43.2277 50.34 43.055 50.3545C42.9684 50.3618 42.8979 50.3666 42.846 50.3696C42.82 50.3711 42.7987 50.3722 42.7823 50.373L42.7614 50.374L42.7538 50.3743L42.7507 50.3744L42.7494 50.3744C42.7487 50.3745 42.7481 50.3745 42.6817 48.5779L42.7481 50.3745L42.7149 50.3757H33.8514L33.7148 50.3535C33.7126 50.3531 33.709 50.3526 33.7041 50.352C33.6877 50.3498 33.6569 50.3459 33.6137 50.3415C33.5266 50.3326 33.3936 50.3222 33.2311 50.3189C32.8932 50.312 32.4911 50.3375 32.1256 50.4341C31.7593 50.5309 31.5347 50.6701 31.4053 50.8149C31.3032 50.929 31.1324 51.1843 31.1324 51.8073C31.1324 52.8002 30.3236 53.6051 29.3259 53.6051C28.3283 53.6051 27.5195 52.8002 27.5195 51.8073C27.5195 50.4355 27.9327 49.2897 28.7066 48.4243C29.4532 47.5895 30.3967 47.1707 31.1985 46.9589C32.0009 46.7468 32.7669 46.713 33.3051 46.724C33.5805 46.7296 33.8125 46.7474 33.981 46.7645C34.0334 46.7698 34.08 46.7751 34.1202 46.7801H42.636C42.6599 46.7786 42.699 46.776 42.7511 46.7717C42.8601 46.7625 43.0234 46.7458 43.2223 46.7165C43.6288 46.6567 44.1415 46.5504 44.6305 46.3703C45.6958 45.9778 46.0269 45.518 46.0269 44.9712C46.0269 43.9782 46.8357 43.1733 47.8333 43.1733ZM42.6095 46.7815L42.6107 46.7814C42.6091 46.7815 42.6087 46.7815 42.6095 46.7815Z" fill="#0476D9"/>
</svg>
