<svg width="20" height="20" viewBox="0 0 20 20" fill="none" xmlns="http://www.w3.org/2000/svg">
<path d="M8.0689 9.06847C10.2969 9.06847 12.1031 7.26228 12.1031 5.03423C12.1031 2.80619 10.2969 1 8.0689 1C5.84086 1 4.03467 2.80619 4.03467 5.03423C4.03467 7.26228 5.84086 9.06847 8.0689 9.06847Z" fill="#CBD2E6"/>
<path d="M8.7445 10.0971C8.52262 10.087 8.30073 10.0769 8.06876 10.0769C5.72152 10.075 3.41766 10.7094 1.4022 11.9125C0.967581 12.18 0.609891 12.5558 0.364146 13.0031C0.118402 13.4504 -0.00697238 13.9538 0.000299223 14.4641V17.1368H9.33955C8.51143 15.9546 8.06771 14.546 8.06876 13.1026C8.07239 12.0635 8.30301 11.0377 8.7445 10.0971V10.0971Z" fill="#CBD2E6"/>
<path d="M18.9108 13.1027C18.9061 12.8897 18.8859 12.6773 18.8502 12.4673L20 11.4487L18.9914 9.70386L17.529 10.198C17.2052 9.92513 16.8367 9.71017 16.4398 9.56266L16.1372 8.05991H14.1201L13.8175 9.56266C13.4206 9.71017 13.0521 9.92513 12.7283 10.198L11.2659 9.70386L10.2573 11.4487L11.4071 12.4673C11.3715 12.6773 11.3512 12.8897 11.3466 13.1027C11.3512 13.3157 11.3715 13.528 11.4071 13.7381L10.2573 14.7567L11.2659 16.5015L12.7283 16.0073C13.0521 16.2803 13.4206 16.4952 13.8175 16.6427L14.1201 18.1455H16.1372L16.4398 16.6427C16.8367 16.4952 17.2052 16.2803 17.529 16.0073L18.9914 16.5015L20 14.7567L18.8502 13.7381C18.8859 13.528 18.9061 13.3157 18.9108 13.1027ZM15.1287 15.1198C14.7297 15.1198 14.3397 15.0015 14.008 14.7799C13.6763 14.5582 13.4178 14.2432 13.2651 13.8746C13.1124 13.506 13.0725 13.1005 13.1503 12.7092C13.2281 12.3179 13.4202 11.9585 13.7023 11.6764C13.9844 11.3943 14.3439 11.2022 14.7351 11.1243C15.1264 11.0465 15.532 11.0865 15.9006 11.2391C16.2692 11.3918 16.5842 11.6503 16.8058 11.982C17.0275 12.3138 17.1458 12.7037 17.1458 13.1027C17.1442 13.6372 16.9312 14.1493 16.5532 14.5273C16.1753 14.9052 15.6631 15.1182 15.1287 15.1198V15.1198Z" fill="#CBD2E6"/>
</svg>
