<svg width="48" height="48" viewBox="0 0 48 48" fill="none" xmlns="http://www.w3.org/2000/svg">
<path d="M12 24.25C11.5858 24.25 11.25 24.5858 11.25 25C11.25 25.4142 11.5858 25.75 12 25.75V24.25ZM36 25.75C36.4142 25.75 36.75 25.4142 36.75 25C36.75 24.5858 36.4142 24.25 36 24.25V25.75ZM12 32.25C11.5858 32.25 11.25 32.5858 11.25 33C11.25 33.4142 11.5858 33.75 12 33.75V32.25ZM36 33.75C36.4142 33.75 36.75 33.4142 36.75 33C36.75 32.5858 36.4142 32.25 36 32.25V33.75ZM12 16.25C11.5858 16.25 11.25 16.5858 11.25 17C11.25 17.4142 11.5858 17.75 12 17.75V16.25ZM36 17.75C36.4142 17.75 36.75 17.4142 36.75 17C36.75 16.5858 36.4142 16.25 36 16.25V17.75ZM12 25.75H36V24.25H12V25.75ZM12 33.75H36V32.25H12V33.75ZM12 17.75H36V16.25H12V17.75Z" fill="black"/>
</svg>
