<svg width="24" height="24" viewBox="0 0 24 24" fill="none" xmlns="http://www.w3.org/2000/svg">
        <path fill-rule="evenodd" clip-rule="evenodd"
            d="M19.999 4H3.99902C2.89902 4 2.00902 4.9 2.00902 6L1.99902 18C1.99902 19.1 2.89902 20 3.99902 20H19.999C21.099 20 21.999 19.1 21.999 18V6C21.999 4.9 21.099 4 19.999 4ZM19.999 17C19.999 17.55 19.549 18 18.999 18H4.99902C4.44902 18 3.99902 17.55 3.99902 17V8L10.939 12.34C11.589 12.75 12.409 12.75 13.059 12.34L19.999 8V17ZM3.99902 6L11.999 11L19.999 6H3.99902Z"
            fill="#858C94" />
</svg>