<svg width="23" height="24" viewBox="0 0 23 24" fill="none" xmlns="http://www.w3.org/2000/svg">
<g clip-path="url(#clip0_44686_56146)">
<path d="M21.8194 17.6938L19.2246 15.1187V10.4263C19.2246 8.65236 18.6595 6.96996 17.5755 5.56223C16.5721 4.24607 15.1421 3.23891 13.5622 2.73534V2.44921C13.5622 1.76252 13.2739 1.09871 12.7549 0.640916C12.2936 0.228898 11.7054 0 11.0827 0C10.4599 0 9.87178 0.228898 9.41048 0.640916C8.90306 1.11016 8.60321 1.76252 8.60321 2.44921V2.73534C7.01173 3.23891 5.59324 4.23462 4.57838 5.56223C3.50587 6.96996 2.92924 8.65236 2.92924 10.4263V15.1187L0.345974 17.6938C0.126857 17.9113 0 18.2089 0 18.5179V19.8226C0 20.4635 0.530493 20.99 1.17631 20.99H7.40384C7.72675 22.7296 9.27209 24.0114 11.0712 24.0114C12.8702 24.0114 14.4156 22.7296 14.7385 20.99H20.966C21.6118 20.99 22.1423 20.4635 22.1423 19.8226V18.5179C22.1423 18.2089 22.0155 17.9113 21.7963 17.6938H21.8194ZM13.3315 20.9785C13.0317 21.9399 12.1206 22.6381 11.0827 22.6381C10.0448 22.6381 9.12217 21.9514 8.83386 20.9785H13.3431H13.3315ZM13.0201 4.00572C15.8571 4.85265 17.8407 7.48498 17.8407 10.4263V15.1989C17.8407 15.5079 17.9676 15.8054 18.1867 16.0229L20.7815 18.598V19.6052H1.38389V18.598L3.9787 16.0229C4.19781 15.8054 4.32467 15.5079 4.32467 15.1989V10.4263C4.32467 7.48498 6.30825 4.8412 9.14524 4.00572C9.65267 3.85694 9.98711 3.41059 9.98711 2.88412V2.44921C9.98711 2.1402 10.114 1.85408 10.3446 1.64807C10.7482 1.27039 11.4171 1.27039 11.8323 1.64807C12.0629 1.85408 12.1898 2.15165 12.1898 2.44921V2.88412C12.1898 3.39914 12.5242 3.85694 13.0317 4.00572H13.0201Z" fill="#AAAAAA"/>
</g>
<defs>
<clipPath id="clip0_44686_56146">
<rect width="22.1538" height="24" fill="white"/>
</clipPath>
</defs>
</svg>
