<svg width="20" height="20" viewBox="0 0 20 20" fill="none" xmlns="http://www.w3.org/2000/svg">
<path d="M0.909091 13.3333H19.0909V15H0.909091V13.3333ZM1.95455 9.95833L2.72727 8.725L3.5 9.95833L4.68182 9.33333L3.90909 8.1H5.45455V6.85H3.90909L4.68182 5.625L3.5 5L2.72727 6.225L1.95455 5L0.772727 5.625L1.54545 6.85H0V8.1H1.54545L0.772727 9.33333L1.95455 9.95833ZM8.04545 9.33333L9.22727 9.95833L10 8.725L10.7727 9.95833L11.9545 9.33333L11.1818 8.1H12.7273V6.85H11.1818L11.9545 5.625L10.7727 5L10 6.225L9.22727 5L8.04545 5.625L8.81818 6.85H7.27273V8.1H8.81818L8.04545 9.33333ZM20 6.85H18.4545L19.2273 5.625L18.0455 5L17.2727 6.225L16.5 5L15.3182 5.625L16.0909 6.85H14.5455V8.1H16.0909L15.3182 9.33333L16.5 9.95833L17.2727 8.725L18.0455 9.95833L19.2273 9.33333L18.4545 8.1H20V6.85Z" fill="#CBD2E6"/>
</svg>
