<svg width="20" height="21" viewBox="0 0 20 21" fill="none" xmlns="http://www.w3.org/2000/svg">
<g clip-path="url(#clip0_12763_69812)">
<path d="M16.6667 3.83317V13.8332H6.66675V3.83317H16.6667ZM16.6667 2.1665H6.66675C5.75008 2.1665 5.00008 2.9165 5.00008 3.83317V13.8332C5.00008 14.7498 5.75008 15.4998 6.66675 15.4998H16.6667C17.5834 15.4998 18.3334 14.7498 18.3334 13.8332V3.83317C18.3334 2.9165 17.5834 2.1665 16.6667 2.1665ZM9.58342 10.2248L10.9917 12.1082L13.0584 9.52484L15.8334 12.9998H7.50008L9.58342 10.2248ZM1.66675 5.49984V17.1665C1.66675 18.0832 2.41675 18.8332 3.33341 18.8332H15.0001V17.1665H3.33341V5.49984H1.66675Z"/>
</g>
<defs>
<clipPath id="clip0_12763_69812">
<rect width="20" height="20" fill="white" transform="translate(0 0.5)"/>
</clipPath>
</defs>
</svg>
