<svg width="64" height="64" viewBox="0 0 64 64" fill="none" xmlns="http://www.w3.org/2000/svg">
<path fill-rule="evenodd" clip-rule="evenodd" d="M32.0008 0C40.8354 0 48.8368 3.58179 54.6275 9.37268C60.4183 15.1636 64 23.162 64 32C64 40.838 60.4183 48.8364 54.6275 54.6273C48.8368 60.4182 40.8354 64 32.0008 64C23.1661 64 15.1648 60.4182 9.37401 54.6273C3.5817 48.838 0 40.8364 0 32.0016C0 23.1667 3.5817 15.1636 9.37245 9.37268C15.1632 3.58179 23.1614 0 32.0008 0ZM8.07641 50.5171C11.0531 43.5005 18.0211 38.5429 26.0928 38.5429H37.9088C45.9774 38.5429 52.9454 43.5005 55.9252 50.5171C59.8899 45.3985 62.2506 38.976 62.2506 32C62.2506 25.024 58.8643 16.0844 53.3925 10.6078C47.916 5.13426 40.3539 1.7479 32.0008 1.7479C23.6477 1.7479 16.0856 5.13426 10.6091 10.6093C5.13413 16.0844 1.74786 23.6467 1.74786 32.0016C1.74786 40.3565 4.11168 45.4 8.07641 50.5187V50.5171ZM31.8382 8.48153H32.1618C47.2812 8.48153 47.2812 35.6193 32.1618 35.6193H31.8382C16.7188 35.6193 16.7188 8.48153 31.8382 8.48153Z" fill="#BBBDBF"/>
</svg>
