<svg width="24" height="24" viewBox="0 0 24 24" fill="none" xmlns="http://www.w3.org/2000/svg">
<path d="M15.7239 19.213C15.249 19.213 14.8604 18.8192 14.8604 18.338C14.8604 17.3186 13.5522 16.4567 12.0022 16.4567C10.4522 16.4567 9.14394 17.3186 9.14394 18.338C9.14394 18.8192 8.75536 19.213 8.28042 19.213C7.80549 19.213 7.4169 18.8192 7.4169 18.338C7.4169 16.3036 9.43322 14.7067 12.0022 14.7067C14.5711 14.7067 16.5875 16.3036 16.5875 18.338C16.5875 18.8192 16.1989 19.213 15.7239 19.213Z"/>
<path d="M11.9978 13.4905C10.6119 13.4905 9.485 12.3662 9.485 10.9837C9.485 9.60118 10.6119 8.4768 11.9978 8.4768C13.3838 8.4768 14.5107 9.60118 14.5107 10.9837C14.5107 12.3662 13.3838 13.4905 11.9978 13.4905ZM11.9978 10.2268C11.5661 10.2268 11.212 10.5681 11.212 10.9837C11.212 11.3993 11.5661 11.7405 11.9978 11.7405C12.4296 11.7405 12.7836 11.3993 12.7836 10.9837C12.7836 10.5681 12.4296 10.2268 11.9978 10.2268Z"/>
<path d="M18.8412 22H5.15879C3.96714 22 3 21.02 3 19.8125V4.50438C3 3.29688 3.96714 2.31688 5.15879 2.31688H18.8412C20.0329 2.31688 21 3.29688 21 4.50438V19.8125C21 21.02 20.0329 22 18.8412 22ZM5.15879 4.06688C4.92132 4.06688 4.72703 4.26375 4.72703 4.50438V19.8125C4.72703 20.0531 4.92132 20.25 5.15879 20.25H18.8412C19.0787 20.25 19.273 20.0531 19.273 19.8125V4.50438C19.273 4.26375 19.0787 4.06688 18.8412 4.06688H5.15879Z"/>
<path d="M11.9978 4.06686C11.5228 4.06686 11.1342 3.67311 11.1342 3.19186V1.875C11.1342 1.39375 11.5228 1 11.9978 1C12.4727 1 12.8613 1.39375 12.8613 1.875V3.19186C12.8613 3.67311 12.4727 4.06686 11.9978 4.06686Z"/>
<path d="M8.14219 7.0551C7.81837 7.0551 7.52045 6.87135 7.37366 6.57385L6.00498 3.8351C5.7891 3.40197 5.9618 2.87698 6.38493 2.65823C6.81237 2.43948 7.33048 2.6101 7.54636 3.04322L8.67325 5.30072H15.3353L16.4622 3.04322C16.678 2.61447 17.1962 2.43948 17.6236 2.65823C18.051 2.87698 18.2194 3.40197 18.0035 3.8351L16.6349 6.57385C16.4881 6.86697 16.1902 7.0551 15.8663 7.0551H8.14219Z"/>
</svg>
