<svg width="22" height="22" viewBox="0 0 22 22" fill="none" xmlns="http://www.w3.org/2000/svg">
<path d="M4 1C4 0.45 3.55 0 3 0C2.45 0 2 0.45 2 1V5H0V15C0 16.3 0.84 17.4 2 17.82V22H4V17.82C5.16 17.4 6 16.3 6 15V5H4V1ZM3 16C2.45 16 2 15.55 2 15V13H4V15C4 15.55 3.55 16 3 16ZM2 11V7H4V11H2ZM12 1C12 0.45 11.55 0 11 0C10.45 0 10 0.45 10 1V5H8V15C8 16.3 8.84 17.4 10 17.82V22H12V17.82C13.16 17.4 14 16.3 14 15V5H12V1ZM11 16C10.45 16 10 15.55 10 15V13H12V15C12 15.55 11.55 16 11 16ZM10 11V7H12V11H10ZM20 5V1C20 0.45 19.55 0 19 0C18.45 0 18 0.45 18 1V5H16V15C16 16.3 16.84 17.4 18 17.82V22H20V17.82C21.16 17.4 22 16.3 22 15V5H20ZM19 16C18.45 16 18 15.55 18 15V13H20V15C20 15.55 19.55 16 19 16ZM18 11V7H20V11H18Z" />
</svg>
