<svg width="20" height="20" viewBox="0 0 20 20" fill="none" xmlns="http://www.w3.org/2000/svg">
<g clip-path="url(#clip0_18058_53042)">
<path d="M15.8333 2.5H4.16667C3.25 2.5 2.5 3.25 2.5 4.16667V15.8333C2.5 16.75 3.25 17.5 4.16667 17.5H15.8333C16.75 17.5 17.5 16.75 17.5 15.8333V4.16667C17.5 3.25 16.75 2.5 15.8333 2.5ZM10.0083 15C9.425 15 8.95833 14.5333 8.95833 13.95C8.95833 13.3583 9.425 12.9083 10.0083 12.9083C10.6 12.9083 11.05 13.3583 11.05 13.95C11.0417 14.525 10.6 15 10.0083 15ZM12.5167 8.83333C11.8833 9.75833 11.2833 10.05 10.9583 10.6417C10.825 10.8833 10.775 11.0417 10.775 11.8167H9.25833C9.25833 11.4083 9.19167 10.7417 9.51667 10.1667C9.925 9.44167 10.7 9.00833 11.15 8.36667C11.625 7.69167 11.3583 6.425 10.0083 6.425C9.125 6.425 8.69167 7.09167 8.50833 7.65833L7.13333 7.075C7.50833 5.95833 8.51667 5 9.99167 5C11.225 5 12.0667 5.55833 12.5 6.26667C12.8667 6.86667 13.0833 7.99167 12.5167 8.83333Z" fill="#D6DFEC"/>
</g>
<defs>
<clipPath id="clip0_18058_53042">
<rect width="20" height="20" fill="white"/>
</clipPath>
</defs>
</svg>
