<svg width="24" height="24" viewBox="0 0 24 24" fill="none" xmlns="http://www.w3.org/2000/svg">
<path fill-rule="evenodd" clip-rule="evenodd" d="M13.9279 11.2913C14.3092 11.981 14.9496 12.4781 15.7 12.6929V17.9509C15.7 18.1684 15.5377 18.4226 15.2181 18.6282C14.9025 18.8311 14.4493 18.9745 13.9108 18.9745C13.3723 18.9745 12.9191 18.8311 12.6035 18.6282C12.2838 18.4226 12.1215 18.1684 12.1215 17.9509V11.6267C12.1215 10.0354 10.5237 8.82595 8.5447 8.82595C6.56567 8.82595 4.96786 10.0354 4.96786 11.6267V16.3845C3.7676 16.7769 2.90002 17.8742 2.90002 19.1652C2.90002 20.7851 4.26591 22.1 5.94104 22.1C7.61617 22.1 8.98206 20.7851 8.98206 19.1652C8.98206 17.8179 8.03722 16.6816 6.75545 16.3373V11.6267C6.75545 11.4092 6.91775 11.155 7.23742 10.9494C7.55304 10.7464 8.00617 10.603 8.5447 10.603C9.08323 10.603 9.53636 10.7464 9.85198 10.9494C10.1716 11.155 10.3339 11.4092 10.3339 11.6267L10.3338 18.0573L10.3341 18.0622C10.4091 19.5986 11.9754 20.7516 13.9108 20.7516C15.8898 20.7516 17.4876 19.5421 17.4876 17.9509V12.6648C18.2107 12.4328 18.8238 11.9364 19.185 11.2586L21.7556 7.09404L21.7595 7.08628C21.7608 7.08372 21.762 7.08169 21.7647 7.07712L21.7701 7.06813C21.7752 7.05954 21.7822 7.04727 21.7886 7.03247C22.2395 6.16194 22.1975 5.1367 21.6839 4.30007C21.1451 3.42158 20.1873 2.90002 19.134 2.90002C18.6428 2.90002 18.2402 3.29902 18.2402 3.78857C18.2402 4.27812 18.6428 4.67712 19.134 4.67712C19.5654 4.67712 19.9449 4.88535 20.1559 5.2284C20.3401 5.53349 20.3584 5.88203 20.2051 6.20067L17.6396 10.3557L17.6356 10.3635C17.6328 10.369 17.629 10.3758 17.6238 10.3852L17.6234 10.386C17.6189 10.394 17.6131 10.4042 17.6082 10.4139C17.4078 10.7973 17.0182 11.0339 16.5541 11.0339H16.5462C16.0847 11.0339 15.6956 10.8078 15.4918 10.4292C15.4869 10.4195 15.4795 10.406 15.4739 10.3958L15.466 10.3814L15.4635 10.377L15.4627 10.3753L12.8309 6.21124C12.6704 5.89264 12.6852 5.54079 12.873 5.23232C13.0839 4.88552 13.4632 4.67712 13.8988 4.67712C14.39 4.67712 14.7926 4.27812 14.7926 3.78857C14.7926 3.29902 14.39 2.90002 13.8988 2.90002C12.837 2.90002 11.8793 3.42991 11.3407 4.31621C10.827 5.1613 10.7975 6.19062 11.2604 7.0646C11.267 7.07971 11.2755 7.095 11.2809 7.10449L11.2899 7.11957L11.2927 7.12414L11.294 7.12631L13.9279 11.2913ZM4.68762 19.1652C4.68762 18.5333 5.24304 18.0075 5.94104 18.0075C6.63904 18.0075 7.19446 18.5333 7.19446 19.1652C7.19446 19.7971 6.63904 20.3229 5.94104 20.3229C5.24304 20.3229 4.68762 19.7971 4.68762 19.1652Z" />
</svg>
