<svg width="20" height="20" viewBox="0 0 20 20" fill="none" xmlns="http://www.w3.org/2000/svg">
<path d="M9.99992 3.33334V0.833336L6.66659 4.16667L9.99992 7.5V5C12.7583 5 14.9999 7.24167 14.9999 10C14.9999 10.8417 14.7916 11.6417 14.4166 12.3333L15.6333 13.55C16.2833 12.525 16.6666 11.3083 16.6666 10C16.6666 6.31667 13.6833 3.33334 9.99992 3.33334ZM9.99992 15C7.24159 15 4.99992 12.7583 4.99992 10C4.99992 9.15833 5.20825 8.35834 5.58325 7.66667L4.36659 6.45C3.71659 7.475 3.33325 8.69167 3.33325 10C3.33325 13.6833 6.31659 16.6667 9.99992 16.6667V19.1667L13.3333 15.8333L9.99992 12.5V15Z" fill="#CBD2E6"/>
</svg>
