<svg width="24" height="24" viewBox="0 0 24 24" fill="none" xmlns="http://www.w3.org/2000/svg">
<path fill-rule="evenodd" clip-rule="evenodd" d="M1.17499 12.28C1.17499 6.2344 5.89493 1.17505 12 1.17505H20C21.5556 1.17505 22.825 2.44441 22.825 4.00005V12C22.825 18.1025 17.8183 22.8251 11.72 22.8251C6.03381 22.8251 1.17499 17.9551 1.17499 12.28ZM12 2.82505C6.86505 2.82505 2.82499 7.08569 2.82499 12.28C2.82499 17.045 6.94617 21.175 11.72 21.175C16.9617 21.175 21.175 17.1375 21.175 12V4.00005C21.175 3.35568 20.6444 2.82505 20 2.82505H12Z"/>
<path d="M17 15L14 13V15H7V9H14V11L17 9V15Z"/>
</svg>
