<svg width="20" height="20" viewBox="0 0 20 20" fill="none" xmlns="http://www.w3.org/2000/svg">
<path d="M10.4165 8.33334C10.4165 6.95834 9.29154 5.83334 7.91654 5.83334C6.54154 5.83334 5.41654 6.95834 5.41654 8.33334C5.41654 9.70834 6.54154 10.8333 7.91654 10.8333C9.29154 10.8333 10.4165 9.70834 10.4165 8.33334ZM7.91654 9.16667C7.4582 9.16667 7.0832 8.79167 7.0832 8.33334C7.0832 7.875 7.4582 7.5 7.91654 7.5C8.37487 7.5 8.74987 7.875 8.74987 8.33334C8.74987 8.79167 8.37487 9.16667 7.91654 9.16667ZM13.3332 10.8333C14.2582 10.8333 14.9999 10.0917 14.9999 9.16667C14.9999 8.24167 14.2582 7.5 13.3332 7.5C12.4082 7.5 11.6582 8.24167 11.6665 9.16667C11.6665 10.0917 12.4082 10.8333 13.3332 10.8333ZM9.99154 1.675C5.39154 1.675 1.6582 5.40834 1.6582 10.0083C1.6582 14.6083 5.39154 18.3417 9.99154 18.3417C14.5915 18.3417 18.3249 14.6083 18.3249 10.0083C18.3249 5.40834 14.5915 1.675 9.99154 1.675ZM4.86654 14.2667C5.4332 13.8167 6.7582 13.3417 7.91654 13.3417C7.97487 13.3417 8.04154 13.35 8.1082 13.35C8.3082 12.8167 8.66654 12.275 9.19154 11.8C8.72487 11.7167 8.2832 11.6667 7.91654 11.6667C6.8332 11.6667 5.09154 12.0417 3.97487 12.8583C3.5582 11.9917 3.32487 11.025 3.32487 10C3.32487 6.325 6.31654 3.33334 9.99154 3.33334C13.6665 3.33334 16.6582 6.325 16.6582 10C16.6582 11 16.4332 11.95 16.0332 12.8083C15.1999 12.3167 14.0665 12.0833 13.3332 12.0833C12.0665 12.0833 9.5832 12.7583 9.5832 14.3333V16.65C7.69154 16.5417 6.0082 15.6417 4.86654 14.2667Z" fill="#CBD2E6"/>
</svg>
