<svg width="50" height="30" viewBox="0 0 50 30" fill="none" xmlns="http://www.w3.org/2000/svg">
<g clip-path="url(#clip0_9669_36273)">
<path d="M28.7528 18.4236C28.4541 18.3526 28.4167 17.9269 28.7528 17.785C30.9559 16.7918 31.8148 14.5569 31.8148 12.6767C31.8148 8.81005 28.2674 6.50422 23.4503 6.50422H15.2352C15.0485 6.50422 14.8618 6.64612 14.8618 6.85897V16.2596C14.8618 16.437 14.7125 16.6144 14.4884 16.6144H4.85437C4.66766 16.6144 4.48096 16.4725 4.48096 16.2596V6.82349C4.48096 6.64612 4.33159 6.46875 4.10754 6.46875H0.373413C0.186706 6.46875 0 6.61065 0 6.82349V29.3851C0 29.5625 0.149365 29.7398 0.373413 29.7398H4.10754C4.29425 29.7398 4.48096 29.598 4.48096 29.3851V20.3037C4.48096 20.1263 4.63032 19.949 4.85437 19.949H14.4884C14.6751 19.949 14.8618 20.0909 14.8618 20.3037V29.3851C14.8618 29.5625 15.0112 29.7398 15.2352 29.7398H24.5706C29.6117 29.7398 33.0097 27.2212 33.0097 23.39C33.0097 19.5587 31.5907 19.204 28.8648 18.4236H28.7528ZM27.1845 12.8896C27.1845 14.6633 25.9895 16.508 21.9567 16.508H19.3055V9.90975H23.413C25.3921 9.90975 27.1845 10.903 27.1845 12.8896ZM24.4959 26.3343H20.5004C19.8282 26.3343 19.3055 25.8377 19.3055 25.1991V19.9844H22.6288C27.1098 19.9844 28.3794 21.4034 28.3794 23.2835C28.3794 25.1637 26.7364 26.3343 24.5332 26.3343H24.4959Z" fill="white"/>
<path d="M39.7315 15.833V10.1571C39.7315 9.97971 39.5821 9.87329 39.4328 9.87329H33.4208C33.2341 9.87329 33.1221 9.73139 33.1221 9.58949V6.8225C33.1221 6.64513 33.2714 6.53871 33.4208 6.53871H39.4328C39.6195 6.53871 39.7315 6.39681 39.7315 6.25491V0.54356C39.7315 0.366188 39.8808 0.259766 40.0302 0.259766H43.1295C43.3162 0.259766 43.4283 0.401663 43.4283 0.54356V6.18396C43.4283 6.36134 43.5776 6.46776 43.727 6.46776H49.7016C49.8883 6.46776 50.0003 6.60965 50.0003 6.75155V9.51854C50.0003 9.69591 49.851 9.80234 49.7016 9.80234H43.727C43.5403 9.80234 43.4283 9.94423 43.4283 10.0861V15.762C43.4283 15.9394 43.2789 16.0458 43.1295 16.0458H40.0302C39.8435 16.0458 39.7315 15.9039 39.7315 15.762V15.833Z" fill="url(#paint0_linear_9669_36273)"/>
</g>
<defs>
<linearGradient id="paint0_linear_9669_36273" x1="36.1841" y1="2.1399" x2="46.3019" y2="14.7133" gradientUnits="userSpaceOnUse">
<stop offset="0.3" stop-color="#99CC67"/>
<stop offset="0.8" stop-color="#85B35B"/>
</linearGradient>
<clipPath id="clip0_9669_36273">
<rect width="50" height="30" fill="white"/>
</clipPath>
</defs>
</svg>
