<svg width="340" height="54" viewBox="0 0 340 54" fill="none" xmlns="http://www.w3.org/2000/svg">
<g clip-path="url(#clip0_9669_36646)">
<path d="M313.118 31.3834V19.9858C313.118 19.6648 312.878 19.3437 312.479 19.3437H301.055C300.735 19.3437 300.416 19.1029 300.416 18.7016V13.0831C300.416 12.762 300.655 12.441 301.055 12.441H312.479C312.798 12.441 313.118 12.2002 313.118 11.7989V0.642115C313.118 0.321058 313.357 0 313.757 0H319.669C319.988 0 320.308 0.240793 320.308 0.642115V11.9594C320.308 12.2805 320.547 12.6015 320.947 12.6015H332.291C332.61 12.6015 332.93 12.8423 332.93 13.2436V18.8621C332.93 19.1832 332.69 19.5042 332.291 19.5042H320.947C320.627 19.5042 320.308 19.745 320.308 20.1464V31.5439C320.308 31.865 320.068 32.186 319.669 32.186H313.757C313.437 32.186 313.118 31.9452 313.118 31.5439V31.3834Z" fill="url(#paint0_linear_9669_36646)"/>
<path d="M307.127 51.0482V48.3192H306.088C306.008 48.3192 305.928 48.3192 305.928 48.1586V47.9179C305.928 47.8376 305.928 47.7573 306.088 47.7573H308.804C308.884 47.7573 308.964 47.7573 308.964 47.9179V48.1586C308.964 48.2389 308.964 48.3192 308.804 48.3192H307.766V51.0482C307.766 51.1284 307.766 51.2087 307.606 51.2087H307.286C307.206 51.2087 307.127 51.2087 307.127 51.0482ZM309.204 51.0482L309.523 47.9179C309.523 47.8376 309.523 47.7573 309.683 47.7573H310.082C310.162 47.7573 310.242 47.7573 310.242 47.8376L311.201 50.1653L312.159 47.8376C312.159 47.8376 312.239 47.7573 312.319 47.7573H312.719C312.799 47.7573 312.878 47.7573 312.878 47.9179L313.198 51.0482C313.198 51.1284 313.198 51.2087 313.038 51.2087H312.719C312.639 51.2087 312.559 51.2087 312.559 51.0482L312.399 48.881L311.52 51.0482C311.52 51.0482 311.44 51.1284 311.361 51.1284H311.121C311.041 51.1284 310.961 51.1284 310.961 51.0482L310.082 48.881L309.923 51.0482C309.923 51.1284 309.923 51.2087 309.763 51.2087H309.443C309.363 51.2087 309.283 51.2087 309.283 51.0482H309.204Z" fill="white"/>
<path d="M31.6753 52.6534V37.4032C31.6753 37.0821 31.4356 36.7611 31.0362 36.7611H15.1386C14.8191 36.7611 14.4995 37.0019 14.4995 37.4032V52.6534C14.4995 52.9745 14.2599 53.2956 13.8604 53.2956H7.789C7.46945 53.2956 7.1499 53.0548 7.1499 52.6534V13.1634C7.1499 12.8423 7.38956 12.5212 7.789 12.5212H14.0202C14.3398 12.5212 14.6593 12.762 14.6593 13.1634V30.2597C14.6593 30.5807 14.899 30.9018 15.2984 30.9018H31.1161C31.4356 30.9018 31.7552 30.661 31.7552 30.2597V13.1634C31.7552 12.8423 31.9948 12.5212 32.3943 12.5212H38.6255C38.945 12.5212 39.2646 12.762 39.2646 13.1634V52.6534C39.2646 52.9745 39.0249 53.2956 38.6255 53.2956H32.3943C32.0747 53.2956 31.7552 53.0548 31.7552 52.6534H31.6753Z" fill="white"/>
<path d="M72.178 47.8375C72.4177 48.0783 72.4177 48.4796 72.178 48.7204C68.3434 52.8139 63.71 53.9375 59.3162 53.9375C48.7711 53.9375 42.46 47.1151 42.46 38.6873C42.46 30.2596 49.2504 23.1963 58.5173 23.1963C67.7842 23.1963 73.616 28.0122 73.9355 38.9281C73.9355 39.2492 73.6959 39.5702 73.2964 39.5702H50.209C49.8895 39.5702 49.5699 39.8913 49.5699 40.2123C49.8895 44.5466 53.5643 47.9177 59.6357 47.9177C65.7071 47.9177 65.7071 46.7138 68.1038 44.7071C68.3434 44.5466 68.663 44.5466 68.9026 44.7071L72.178 47.9177V47.8375ZM50.8481 34.6741H65.8669C66.2664 34.6741 66.5859 34.2728 66.4261 33.8715C65.068 30.0188 61.3932 28.8951 58.5972 28.8951C55.8011 28.8951 52.0464 30.0188 50.3688 33.8715C50.209 34.2728 50.4487 34.7544 50.928 34.7544L50.8481 34.6741Z" fill="white"/>
<path d="M107.648 24.4805V52.7336C107.648 53.0546 107.408 53.3757 107.009 53.3757H101.097C100.778 53.3757 100.458 53.1349 100.458 52.7336V50.6467C100.458 50.0849 99.819 49.8441 99.4196 50.2454C97.2626 52.5731 94.0672 53.9375 90.4722 53.9375C81.7645 53.9375 76.0925 47.1151 76.0925 38.4465C76.0925 29.778 81.5249 23.1963 90.4722 23.1963C99.4196 23.1963 97.023 24.4003 99.4196 26.8885C99.819 27.2898 100.458 27.049 100.458 26.4871V24.4003C100.458 24.0792 100.698 23.7581 101.097 23.7581H107.009C107.328 23.7581 107.648 23.9989 107.648 24.4003V24.4805ZM91.9901 47.9177C96.8632 47.9177 100.698 44.6269 100.698 38.7676C100.698 32.9083 97.023 29.1359 91.7504 29.1359C86.4779 29.1359 83.2824 33.3899 83.2824 38.4465C83.2824 43.5032 86.5578 47.8375 91.9102 47.8375L91.9901 47.9177Z" fill="white"/>
<path d="M112.761 52.6534V13.1634C112.761 12.8423 113 12.5212 113.4 12.5212H119.311C119.631 12.5212 119.951 12.762 119.951 13.1634V52.6534C119.951 52.9745 119.711 53.2956 119.311 53.2956H113.4C113.08 53.2956 112.761 53.0548 112.761 52.6534Z" fill="white"/>
<path d="M136.008 23.8384H143.517C143.837 23.8384 144.156 24.0792 144.156 24.4806V28.7346C144.156 29.0556 143.917 29.3767 143.517 29.3767H136.008C135.688 29.3767 135.369 29.6175 135.369 30.0188V44.8677C135.369 46.6335 136.088 48.0783 138.245 48.0783C140.402 48.0783 141.121 46.8743 141.121 45.0282C141.121 43.1822 141.121 43.9045 140.961 43.3427C140.881 42.9414 141.121 42.6203 141.52 42.6203H146.154C146.393 42.6203 146.633 42.7808 146.713 43.0216C147.112 44.0651 147.192 45.5098 147.192 45.9914C147.192 50.3257 144.236 54.0981 137.925 54.0981C131.614 54.0981 128.259 52.0112 128.259 43.9045V30.0991C128.259 29.778 128.019 29.4569 127.62 29.4569H124.265C123.945 29.4569 123.625 29.2162 123.625 28.8148V24.5608C123.625 24.2398 123.865 23.9187 124.265 23.9187H128.099C128.419 23.9187 128.658 23.6779 128.658 23.4371L129.777 16.6146C129.777 16.2936 130.096 16.1331 130.336 16.1331H134.73C135.049 16.1331 135.369 16.3738 135.369 16.7752V23.4371C135.369 23.7582 135.609 24.0792 136.008 24.0792V23.8384Z" fill="white"/>
<path d="M150.068 12.5212H155.98C156.299 12.5212 156.619 12.762 156.619 13.1634V26.6478C156.619 27.2096 157.338 27.4504 157.657 27.0491C159.575 24.4806 162.531 23.1964 166.046 23.1964C173.315 23.1964 176.91 28.4939 176.91 37.0019V52.6534C176.91 52.9745 176.671 53.2956 176.271 53.2956H170.36C170.04 53.2956 169.72 53.0548 169.72 52.6534V37.0019C169.72 31.865 167.484 29.2162 163.969 29.2162C160.454 29.2162 156.459 31.865 156.459 38.5269V52.6534C156.459 52.9745 156.219 53.2956 155.82 53.2956H149.908C149.589 53.2956 149.269 53.0548 149.269 52.6534V13.1634C149.269 12.8423 149.509 12.5212 149.908 12.5212H150.068Z" fill="white"/>
<path d="M205.19 31.6242C204.711 31.865 204.791 32.5873 205.27 32.7479C209.824 34.1124 212.54 38.0453 212.54 42.1388C212.54 48.8007 206.948 53.2153 198.56 53.2153H182.502C182.183 53.2153 181.863 52.9745 181.863 52.5732V13.1634C181.863 12.8423 182.103 12.5212 182.502 12.5212H196.802C204.711 12.5212 210.623 16.6147 210.623 23.3569C210.623 30.0991 208.865 29.8584 205.19 31.6242ZM194.326 30.0991C201.036 30.0991 203.033 26.8083 203.033 23.7583C203.033 20.7082 200.078 18.5411 196.802 18.5411H189.932C189.612 18.5411 189.293 18.7819 189.293 19.1832V29.5373C189.293 29.8583 189.532 30.1794 189.932 30.1794H194.406L194.326 30.0991ZM189.293 36.119V46.7139C189.293 47.0349 189.532 47.356 189.932 47.356H198.56C202.235 47.356 204.951 45.2691 204.951 41.9783C204.951 38.6874 202.874 35.5571 195.444 35.5571H189.932C189.612 35.5571 189.293 35.7979 189.293 36.1992V36.119Z" fill="white"/>
<path d="M292.188 24.0793C292.267 23.9187 292.507 23.8385 292.667 23.8385H300.256V24.7214L290.35 37.0018C290.19 37.1623 290.19 37.4834 290.35 37.7242L294.504 44.2256C296.022 46.473 296.901 47.5165 299.058 47.5165C301.215 47.5165 300.975 47.3559 302.014 46.7941C302.333 46.6335 302.653 46.7941 302.813 47.0349L304.81 50.9678C304.97 51.2086 304.81 51.5297 304.65 51.6902C302.253 53.7771 299.377 53.9376 298.019 53.9376C293.546 53.9376 291.069 51.5297 289.072 48.6402L284.279 40.9348C283.959 40.4532 283.16 40.6137 283.16 41.2558V52.8139C283.16 53.135 282.921 53.456 282.521 53.456H276.61C276.29 53.456 275.97 53.2152 275.97 52.8139V13.083C275.97 12.762 276.21 12.4409 276.61 12.4409H282.521C282.841 12.4409 283.16 12.6817 283.16 13.083V34.1926C283.16 34.7544 283.879 34.9952 284.279 34.5939L292.267 24.0793H292.188Z" fill="white"/>
<path d="M249.847 24.6412C245.693 26.4873 242.418 30.0992 241.219 34.5137C240.101 38.5269 240.74 42.2994 242.418 45.51L245.773 42.3796C246.492 44.4665 245.933 46.7139 244.974 48.7205C244.974 48.8811 244.974 48.9613 244.974 49.1218C247.93 52.1719 252.084 54.018 256.478 54.018C265.026 54.018 272.375 47.1955 272.375 38.6875C272.375 30.1794 260.792 19.9056 249.847 24.7215V24.6412ZM256.478 47.8376C251.525 47.8376 247.77 43.7441 247.77 38.6072C247.77 33.4703 251.525 29.3768 256.478 29.3768C261.431 29.3768 265.186 33.4703 265.186 38.6072C265.186 43.7441 261.431 47.8376 256.478 47.8376Z" fill="white"/>
<path d="M224.283 24.4003C235.068 20.1463 246.252 28.253 246.252 38.6071C246.252 48.9612 238.903 53.9376 230.355 53.9376C221.807 53.9376 212.939 45.5901 214.777 35.7979C215.735 30.5807 219.49 26.3267 224.363 24.4003H224.283ZM230.275 47.8375C235.228 47.8375 238.983 43.744 238.983 38.6071C238.983 33.4702 235.228 29.3767 230.275 29.3767C225.322 29.3767 221.567 33.4702 221.567 38.6071C221.567 43.744 225.322 47.8375 230.275 47.8375Z" fill="white"/>
</g>
<defs>
<linearGradient id="paint0_linear_9669_36646" x1="307.206" y1="2.16714" x2="325.778" y2="28.9739" gradientUnits="userSpaceOnUse">
<stop offset="0.3" stop-color="#99CC67"/>
<stop offset="0.8" stop-color="#85B35B"/>
</linearGradient>
<clipPath id="clip0_9669_36646">
<rect width="340" height="53.9377" fill="white"/>
</clipPath>
</defs>
</svg>
