<svg width="226" height="221" viewBox="0 0 226 221" fill="none" xmlns="http://www.w3.org/2000/svg">
<g clip-path="url(#clip0_15449_93043)">
<path d="M119.188 175.329C125.702 176.102 148.409 178.793 166.4 163.221C179.863 151.577 183.71 135.726 185.524 128.257C190.937 105.958 187.246 80.4887 176.683 63.6175C147.277 16.607 52.0611 16.174 21.3359 62.0711C7.11331 83.3186 4.01132 118.53 18.2805 134.566C26.4852 143.783 33.5733 138.958 59.4128 147.865C93.0849 159.479 94.9616 172.453 119.204 175.329H119.188Z" fill="#83E6EC" fill-opacity="0.3"/>
<g clip-path="url(#clip1_15449_93043)">
<path d="M96.6927 179.95C98.8999 179.321 100.986 178.417 102.925 177.28L110.048 182.723L118.514 174.06L112.844 167.119C113.926 165.165 114.774 163.072 115.346 160.859L124.244 159.697L124.071 147.615L115.147 146.703C114.515 144.515 113.615 142.449 112.481 140.528L117.942 133.442L109.235 125.02L102.284 130.643C100.311 129.558 98.1988 128.714 95.9656 128.137L94.7971 119.285L82.6532 119.457L81.7357 128.335C79.6323 128.938 77.6329 129.79 75.7805 130.85L68.6136 125.382L60.1484 134.044L65.7399 140.89C64.5801 142.922 63.6799 145.11 63.0826 147.426L54.1846 148.606L54.3577 160.687L63.2817 161.6C63.9136 163.787 64.8224 165.862 65.9563 167.782L60.4859 174.878L69.1936 183.299L76.1614 177.659C78.1262 178.744 80.2382 179.588 82.4627 180.156L83.6313 189.009L95.7752 188.836L96.6927 179.958V179.95ZM87.9418 162.745C83.1725 162.047 79.8833 157.63 80.5845 152.894C81.2856 148.149 85.7259 144.877 90.4866 145.575C95.2558 146.272 98.545 150.689 97.8439 155.426C97.1428 160.17 92.7024 163.442 87.9418 162.745Z" fill="#89BEC8"/>
<path d="M153.197 97.9813C151.544 97.146 149.804 96.526 148.03 96.1386L146.835 89L137.02 89.4736L136.526 96.6983C134.804 97.258 133.133 98.033 131.575 99.0233L125.663 94.8211L119.059 102.063L123.837 107.505C122.997 109.15 122.383 110.863 121.993 112.62L114.826 113.808L115.302 123.573L122.539 124.064C123.101 125.786 123.889 127.457 124.884 129.016L120.66 134.897L127.94 141.467L133.41 136.714C134.994 137.515 136.647 138.109 138.335 138.496L139.538 145.669L149.354 145.196L149.839 138.074C151.648 137.515 153.405 136.705 155.041 135.672L160.953 139.874L167.557 132.632L162.779 127.19C163.618 125.545 164.233 123.823 164.623 122.058L171.798 120.869L171.322 111.105L164.069 110.614C163.506 108.892 162.727 107.23 161.723 105.671L165.947 99.7896L158.667 93.2194L153.197 97.9727V97.9813ZM148.826 112.973C151.258 116.004 150.756 120.43 147.709 122.85C144.663 125.27 140.213 124.77 137.781 121.739C135.349 118.708 135.851 114.282 138.898 111.862C141.945 109.443 146.394 109.942 148.826 112.973Z" fill="#89BEC8"/>
<path d="M93.4219 158.347C95.7509 156.03 95.7509 152.273 93.4219 149.956C91.0929 147.639 87.3168 147.639 84.9878 149.956C82.6588 152.273 82.6588 156.03 84.9878 158.347C87.3168 160.663 91.0929 160.663 93.4219 158.347Z" fill="#669AA4"/>
<path d="M146.785 120.81C148.705 118.9 148.705 115.803 146.785 113.893C144.865 111.983 141.752 111.983 139.832 113.893C137.912 115.803 137.912 118.9 139.832 120.81C141.752 122.72 144.865 122.72 146.785 120.81Z" fill="#669AA4"/>
</g>
<path opacity="0.4" d="M32.6978 70.3793C38.3013 91.1768 59.7034 103.494 80.5009 97.8906C101.298 92.2871 113.616 70.885 108.012 50.0875C102.409 29.29 81.0065 16.9728 60.209 22.5763C39.4116 28.1797 27.0944 49.5819 32.6978 70.3793Z" fill="#D3D5FC"/>
<path d="M67.3816 102.882C44.2209 101.58 26.3662 81.6441 27.6894 58.4619C29.0127 35.2796 48.9285 17.4357 72.1097 18.6913C95.2704 19.9929 113.079 39.9086 111.802 63.1115C110.479 86.2938 90.5629 104.138 67.3816 102.882ZM71.9606 22.1077C50.6319 20.9075 32.3023 37.3053 31.0822 58.6539C29.8621 80.0024 46.2274 98.332 67.5767 99.4862C88.9054 100.686 107.235 84.2887 108.409 62.9195C109.609 41.617 93.2433 23.2874 71.9606 22.1077Z" fill="#082787"/>
<path d="M96.3129 89.0746C123.489 119.764 126.054 116.989 153.23 147.678C153.27 148.083 152.133 153.272 148.737 156.226C145.342 159.179 139.769 159.822 139.273 159.821C112.885 127.494 117.778 126.442 91.3898 94.1152C92.6873 93.3139 89.6365 95.1472 96.3129 89.0746Z" fill="#082787"/>
<path d="M85.2331 32.8858C84.4711 27.9239 71.2301 23.9755 61.0294 27.8199C56.5184 29.5051 50.1668 33.6695 50.7247 37.4859C51.4212 42.2045 62.6721 45.7496 71.9206 43.4144C78.3299 41.792 85.8304 36.8482 85.22 32.8372L85.2331 32.8858Z" fill="white" fill-opacity="0.8"/>
</g>
<defs>
<clipPath id="clip0_15449_93043">
<rect width="225.365" height="220.306" fill="white" transform="matrix(-1 0 0 1 225.365 0)"/>
</clipPath>
<clipPath id="clip1_15449_93043">
<rect width="118" height="100" fill="white" transform="translate(54 89)"/>
</clipPath>
</defs>
</svg>
