<svg width="60" height="62" viewBox="0 0 60 62" fill="none" xmlns="http://www.w3.org/2000/svg">
<g clip-path="url(#clip0_18071_2750)">
<path d="M6.23652 61.1257H53.0874C60.1105 50.5816 61.9741 36.3821 57.7921 25.1947C54.3211 15.9099 47.5254 11.9107 44.896 10.3655C35.0031 4.55232 25.693 7.68697 22.8598 8.81353C12.4467 12.9522 -0.376195 25.7665 0.0393868 42.4948C0.258939 51.4018 4.14815 58.0557 6.23913 61.1257H6.23652Z" fill="#83E6EC" fill-opacity="0.3"/>
<path d="M17.5026 60.25L17.4329 60.4621L17.9091 60.9688L18.4145 60.745L18.6003 60.4621L18.6526 60.2441L17.5026 60.25Z" fill="#F6A19E"/>
<path d="M34.4046 60.244L34.3755 60.462L34.6079 60.8449L35.2816 60.786L35.4791 60.6564L35.543 60.462L35.5372 60.1851L34.4046 60.244Z" fill="#F6A19E"/>
<path d="M25.0301 21.5108C25.0301 21.5108 22.1667 25.2286 17.3227 60.2499H18.7747C18.7747 60.244 30.1936 28.0213 30.1936 28.0213V21.5049H25.0301V21.5108Z" fill="#027CFC"/>
<path d="M33.6552 19.5132C33.6552 19.5132 37.1111 22.2706 37.0937 29.6649C37.0879 32.9761 35.5429 60.179 35.5429 60.179L34.4103 60.2379C32.4007 49.88 30.9428 39.7047 29.2817 29.17C29.0435 29.1346 27.8238 29.0463 27.6147 28.7929C27.1501 28.2391 27.6031 27.2787 27.5915 26.8545C27.5508 25.1576 27.5392 21.2866 27.6496 19.8608C28.9855 19.9728 32.4007 19.6369 33.6552 19.5132Z" fill="#027CFC"/>
<path d="M35.537 60.1853C35.537 60.1853 37.082 32.9825 37.0878 29.6713C37.1052 22.271 33.6494 19.5195 33.6494 19.5195C33.359 19.5549 33.0628 19.5843 32.7607 19.6138L31.9476 20.1382C31.9476 20.1382 34.3928 34.6322 34.3289 43.2992C34.2941 48.1129 34.2999 54.7943 34.3115 59.7788C34.3406 59.932 34.3696 60.0852 34.3986 60.2384L35.5312 60.1794L35.537 60.1853Z" fill="#095FB9"/>
<path d="M34.3754 60.4619C34.3754 60.4619 33.812 61.0099 34.3754 61.5814H36.8032V60.4619H35.5428C35.5428 60.4619 34.962 60.8036 34.3754 60.4619Z" fill="#082787"/>
<path d="M35.8565 61.5814H37.75V61.4223C37.75 60.892 37.326 60.4619 36.8033 60.4619C36.2805 60.4619 35.8565 60.892 35.8565 61.4223V61.5814Z" fill="#082787"/>
<path d="M37.8312 61.7583H34.2766V61.5815H37.8312V61.7583Z" fill="#F9E0D2"/>
<path d="M18.6004 60.4619C18.6004 60.4619 19.1638 61.0099 18.6004 61.5814H15.7312L15.8357 60.4619H17.433C17.433 60.4619 18.0138 60.8036 18.6004 60.4619Z" fill="#082787"/>
<path d="M14.7845 61.5815H18.6992V61.7583H14.7845V61.5815Z" fill="#F9E0D2"/>
<path d="M15.8357 60.4619C15.313 60.4619 14.889 60.892 14.889 61.4223V61.5814H15.8357V60.4619Z" fill="#082787"/>
<path d="M24.7165 21.393C24.7165 21.393 22.1202 27.5912 19.6111 42.9691H37.3725C37.3725 42.9691 37.9882 30.4252 37.0937 26.6485C36.1935 22.8777 33.2197 8.85503 32.5866 7.8652L28.1608 6.89893L24.7513 8.27763C24.7513 8.27763 23.7814 12.4903 24.7223 21.393H24.7165Z" fill="white"/>
<path d="M46.8978 13.5567L47.6296 13.5862C47.6296 13.5862 48.495 14.2284 49.587 13.4565C50.6789 12.6847 49.3779 12.5845 49.3779 12.5845L47.0488 12.4844L46.8978 13.5567Z" fill="#F6A19E"/>
<path d="M47.6297 12.5903C48.2279 11.8302 48.4486 11.7124 48.5357 11.7595C48.6577 11.8243 48.6577 12.2839 48.3673 12.5313C48.164 12.7081 47.8678 12.7317 47.6297 12.5903Z" fill="#F6A19E"/>
<path d="M32.5807 7.85938C32.5807 7.85938 35.0725 9.33824 37.0182 10.6698C38.3134 11.5536 39.8526 11.9896 41.415 11.9248C41.6183 11.9189 41.8274 11.913 42.0365 11.9071C43.9938 11.8835 45.7072 12.1899 47.0896 12.4845V13.5627C47.0954 13.5627 38.7432 14.9827 33.905 12.7909C29.0668 10.5932 32.5807 7.85938 32.5807 7.85938Z" fill="#DCDCDC"/>
<path d="M39.266 13.9693C39.3531 13.604 39.4112 13.2033 39.4286 12.7968C39.4402 12.4138 39.4112 12.0544 39.3531 11.7186C38.5284 11.5123 37.7384 11.1588 37.024 10.6698C35.0783 9.33824 32.5866 7.85938 32.5866 7.85938C32.5866 7.85938 29.7057 10.8348 33.9109 12.7909C35.4616 13.5097 37.3841 13.8337 39.2718 13.9693H39.266Z" fill="#DCDCDC"/>
<path d="M24.6351 17.1152C24.2343 16.9502 23.8742 16.8206 23.5954 16.7617C23.5954 16.7617 25.6689 12.219 25.4424 10.6459C25.2159 9.07275 24.7454 8.27734 24.7454 8.27734C24.7454 8.27734 20.5171 13.2383 20.6216 16.526C20.6507 17.4274 21.3999 18.1816 22.4744 18.8061C23.2644 18.4232 24.0426 17.781 24.6409 17.1211L24.6351 17.1152Z" fill="white"/>
<path d="M28.7996 11.9306C28.7996 11.9306 27.4927 9.34409 26.1336 7.71204L28.1549 6.89307L30.1877 7.33496L28.7996 11.9247V11.9306Z" fill="#F9E0D2"/>
<path d="M28.1723 7.92383L28.6311 8.26556L28.4685 8.91366L27.9515 8.47766L28.1723 7.92383Z" fill="#B3145C"/>
<path d="M28.7996 11.9302C28.7996 11.9302 28.5673 11.4707 28.2014 10.8225L28.4685 8.91357C28.4685 8.91357 28.9216 9.49098 29.2468 10.4455L28.7996 11.9243V11.9302Z" fill="#B3145C"/>
<path d="M34.207 26.3303C34.056 20.2263 31.2855 10.6697 30.2691 7.35254L32.5807 7.85924C33.2138 8.84908 36.1934 22.8718 37.0879 26.6426C37.9881 30.4134 37.3667 42.9631 37.3667 42.9631H33.5855C33.9108 38.1612 34.3232 30.9672 34.207 26.3303Z" fill="#DCDCDC"/>
<path d="M24.5537 19.7373C25.7851 20.1792 27.1035 20.5091 28.1722 20.7389C28.4336 20.7978 28.6834 20.845 28.9099 20.8921C29.2526 20.9569 29.5488 21.01 29.7927 21.0512" stroke="#DCDCDC" stroke-width="4.27888" stroke-miterlimit="10"/>
<path d="M26.6506 4.68932L26.97 7.37013L28.1723 7.92396L29.1074 7.0991L28.7473 4.271L26.6506 4.68932Z" fill="#FB9C98"/>
<path d="M28.7472 4.27103L26.6563 4.68935L26.6795 4.88378C26.9002 5.80292 27.8005 6.65135 28.6659 6.46281C28.7879 6.43335 28.904 6.38622 29.0144 6.3214L28.753 4.26514L28.7472 4.27103Z" fill="#F26D6D"/>
<path d="M28.178 1.9143C28.8982 2.09695 29.2118 2.75095 29.3106 2.96305C29.7288 3.82916 29.7229 5.29624 28.8459 5.75581C28.027 6.18592 26.8247 5.52603 26.3832 4.59511C26.0638 3.92343 26.0464 2.90414 26.6911 2.30316C27.057 1.96143 27.6262 1.767 28.178 1.90841V1.9143Z" fill="#F6A19E"/>
<path d="M26.7145 4.28882C26.7319 4.39488 26.8133 4.82498 27.1443 4.98996C27.4754 5.15493 27.8878 4.92514 28.2247 4.7425C28.8113 4.42433 28.9391 4.12385 29.334 4.11206C29.5663 4.10617 29.758 4.20633 29.8858 4.28882C30.06 4.51271 30.4434 5.06066 30.2808 5.53201C30.031 6.23904 28.6661 6.39812 27.76 6.00336C26.9352 5.64985 26.2673 4.7425 26.4473 4.43023C26.4996 4.34185 26.6042 4.3065 26.7087 4.28882H26.7145Z" fill="#082787"/>
<path d="M26.8074 4.26514C26.7667 4.18854 26.3137 3.34011 26.639 2.68611C26.7029 2.55649 26.9178 2.13817 27.2779 2.08514C27.3882 2.06747 27.4579 2.09692 28.3117 2.4033C28.4744 2.46222 28.6021 2.49168 28.7648 2.47401C29.2991 2.41509 29.6011 1.79644 29.6186 1.77287C29.8509 1.28384 29.787 0.606278 29.4211 0.258656C28.8345 -0.306965 27.6728 0.170278 27.0978 0.594494C27.0978 0.594494 25.8258 1.54309 26.0349 3.40492C26.0465 3.4933 26.064 3.66417 26.1801 3.84092C26.3718 4.13552 26.6854 4.23568 26.8132 4.26514H26.8074Z" fill="#082787"/>
<path d="M25.9244 4.53622C25.8141 4.30055 25.9128 4.02363 26.1393 3.91168C26.3717 3.79973 26.6446 3.8999 26.755 4.12968C26.8653 4.36536 26.7666 4.64227 26.5401 4.75422C26.3078 4.86617 26.0348 4.766 25.9244 4.53622Z" fill="#F6A19E"/>
<path d="M24.5081 24.5474L23.0543 21.341L20.7166 22.4317C19.999 22.7665 19.6827 23.634 20.0128 24.362L20.2676 24.924C20.5977 25.652 21.4528 25.9729 22.1704 25.638L24.5081 24.5474Z" fill="#B3145C"/>
<path d="M24.2458 23.9088L21.9458 24.9812C21.2256 25.317 20.3718 24.9988 20.0407 24.2682L19.9188 24.0031C19.7968 23.3609 20.1162 22.6892 20.7261 22.4064L23.061 21.3164L24.2342 23.9147L24.2458 23.9088Z" fill="#E2438B"/>
<path d="M27.0681 23.3486L25.6143 20.1423L22.5749 21.5604C21.8572 21.8952 21.5409 22.7627 21.871 23.4907L22.1258 24.0527C22.4559 24.7807 23.311 25.1016 24.0287 24.7668L27.0681 23.3486Z" fill="#C5C2F9"/>
<path d="M25.6283 20.1202L26.7202 22.53C25.3146 23.1899 23.9091 23.8557 22.5035 24.5156C22.486 24.4979 22.4686 24.4802 22.4512 24.4685C22.4338 24.4508 22.4163 24.4331 22.3989 24.4154C22.3815 24.3978 22.3699 24.3801 22.3525 24.3624C22.3525 24.3624 22.3525 24.3624 22.3466 24.3565C22.335 24.3388 22.3176 24.3212 22.306 24.3035C22.306 24.3035 22.306 24.2976 22.3002 24.2917C22.2886 24.274 22.277 24.2564 22.2653 24.2446C22.2653 24.2446 22.2595 24.2328 22.2537 24.2328C22.2421 24.2151 22.2305 24.2033 22.2247 24.1856C22.2247 24.1856 22.2189 24.1739 22.2131 24.168C22.2014 24.1503 22.1956 24.1326 22.184 24.1149C22.184 24.1149 22.1782 24.1032 22.1724 24.0973C22.1608 24.0737 22.1492 24.0501 22.1376 24.0266L21.882 23.4609C21.8704 23.4374 21.8646 23.4138 21.853 23.3961C21.853 23.3902 21.8471 23.3785 21.8413 23.3726C21.8413 23.3608 21.8297 23.3431 21.8239 23.3313C21.8239 23.3195 21.8181 23.3136 21.8123 23.3019C21.8123 23.2901 21.8065 23.2724 21.8007 23.2606C21.8007 23.2488 21.8007 23.2429 21.7949 23.2312C21.7949 23.2194 21.7891 23.2076 21.7833 23.1899C21.7833 23.1781 21.7833 23.1664 21.7774 23.1605C21.7774 23.1487 21.7774 23.1369 21.7716 23.1251C21.7716 23.1133 21.7716 23.1015 21.7716 23.0898C21.7716 23.078 21.7716 23.0662 21.7716 23.0544C21.7716 23.0426 21.7716 23.0308 21.7716 23.0191C21.7716 23.0073 21.7716 22.9955 21.7716 22.9837C21.7716 22.9719 21.7716 22.9601 21.7716 22.9484C21.7716 22.9366 21.7716 22.9248 21.7716 22.913C21.7716 22.9012 21.7716 22.8894 21.7716 22.8776C21.7716 22.8659 21.7716 22.8541 21.7716 22.8423C21.7716 22.8305 21.7716 22.8187 21.7716 22.8069C21.7716 22.7952 21.7716 22.7834 21.7716 22.7716C21.7716 22.7598 21.7716 22.748 21.7716 22.7362C21.7716 22.7245 21.7716 22.7127 21.7716 22.7009C21.7716 22.6891 21.7716 22.6773 21.7716 22.6655C21.7716 22.6538 21.7716 22.642 21.7716 22.6302C21.7716 22.6184 21.7716 22.6066 21.7774 22.5948C21.7774 22.5831 21.7774 22.5713 21.7833 22.5595C21.7833 22.5477 21.7833 22.5359 21.7891 22.5241C21.7891 22.5124 21.7891 22.5006 21.7949 22.4947C21.7949 22.4829 21.8007 22.4711 21.8065 22.4593C21.8065 22.4475 21.8065 22.4358 21.8181 22.4299C21.8181 22.4181 21.8239 22.4063 21.8297 22.3945C21.8297 22.3827 21.8355 22.3768 21.8413 22.3651C21.8413 22.3533 21.8471 22.3415 21.853 22.3297C21.853 22.3179 21.8588 22.312 21.8646 22.3002C21.8646 22.2885 21.8762 22.2767 21.8762 22.2649C21.8762 22.2531 21.882 22.2472 21.8878 22.2354C21.8878 22.2236 21.8994 22.2119 21.9052 22.2001C21.9052 22.1883 21.9168 22.1824 21.9168 22.1706C21.9227 22.1588 21.9285 22.1471 21.9343 22.1353C21.9343 22.1294 21.9459 22.1176 21.9459 22.1117C21.9517 22.0999 21.9575 22.0881 21.9633 22.0764C21.9633 22.0705 21.9749 22.0587 21.9807 22.0528C21.9865 22.041 21.9924 22.0292 22.004 22.0174C22.004 22.0115 22.0156 21.9998 22.0214 21.9939C22.0272 21.9821 22.0388 21.9703 22.0446 21.9585C22.0446 21.9526 22.0562 21.9467 22.062 21.9349C22.0679 21.9232 22.0795 21.9114 22.0911 21.8996C22.0911 21.8937 22.1027 21.8878 22.1085 21.8819C22.1201 21.8701 22.1259 21.8584 22.1376 21.8466C22.1376 21.8466 22.1492 21.8348 22.155 21.8289C22.1666 21.8171 22.1782 21.8053 22.1898 21.7935C22.1898 21.7935 22.2014 21.7818 22.2073 21.7818C22.2189 21.77 22.2305 21.7582 22.2421 21.7464C22.2421 21.7464 22.2479 21.7405 22.2537 21.7346C22.2653 21.7228 22.2828 21.7111 22.2944 21.6993C22.3641 21.6404 22.4396 21.5932 22.5209 21.5461L25.6283 20.0967V20.1202Z" fill="#EFEEFE"/>
<path d="M54.7796 6.50391L24.5596 20.6209C23.8393 20.9567 23.5257 21.8228 23.8568 22.5534L24.1123 23.119C24.4434 23.8496 25.2972 24.1678 26.0174 23.8319L56.249 9.7032L54.7796 6.50391Z" fill="#F89F4F"/>
<path d="M54.8029 6.49219L24.5597 20.615C23.8394 20.9509 23.52 21.817 23.8511 22.5476L24.1066 23.1132C24.1996 23.3135 24.3273 23.4844 24.4842 23.6199C27.7542 22.0762 52.6306 10.4339 55.9006 8.89018L54.8029 6.49219Z" fill="#FDC854"/>
<path d="M58.4097 7.0166L56.249 9.69741C56.0341 9.57957 55.3546 9.17303 54.9712 8.29514C54.6169 7.47617 54.7389 6.73968 54.797 6.48633C55.9354 6.51579 57.0738 6.54525 58.2122 6.57471C58.4329 6.57471 58.5491 6.83984 58.4097 7.01071V7.0166Z" fill="#F26D6D"/>
<path d="M54.8028 6.49219C55.8773 6.52165 56.946 6.55111 58.0205 6.57467C57.8985 6.775 57.7766 6.97532 57.6488 7.16975C56.8937 7.77073 56.1387 8.36581 55.3836 8.96678C55.1861 8.71932 54.797 8.1537 54.7389 7.34651C54.7156 7.00478 54.7505 6.71608 54.8028 6.49219Z" fill="#FB9C98"/>
<path d="M58.4735 6.95784L57.7069 7.91233C57.5965 7.82984 57.3351 7.62363 57.1899 7.24654C57.0738 6.94606 57.0796 6.68092 57.0912 6.54541C57.4978 6.55719 57.9043 6.56898 58.3051 6.57487C58.4968 6.57487 58.6013 6.80465 58.4794 6.95784H58.4735Z" fill="#082787"/>
<path d="M28.9158 20.8919C29.2584 20.9567 29.5547 21.0098 29.7986 21.051C29.8393 21.0569 29.8799 21.0628 29.9148 21.0687C30.2458 21.1217 30.4375 21.1512 30.4375 21.1512L30.3271 20.7741L30.1122 20.0199C30.1122 20.0199 27.9574 18.7178 26.0175 17.7516C25.971 17.728 25.9245 17.7044 25.8839 17.6867C25.7038 17.5984 25.5296 17.51 25.3553 17.4334C25.0243 17.2802 24.7106 17.1388 24.4202 17.0269C23.9846 17.345 23.5606 17.7221 23.125 18.1051C22.8694 18.329 22.6429 18.5529 22.428 18.7767C24.0485 19.7312 26.4357 20.3734 28.1839 20.7446C28.4453 20.8036 28.695 20.8507 28.9216 20.8978L28.9158 20.8919Z" fill="white"/>
<path d="M30.1064 20.0199C30.1064 20.0199 27.9516 18.7178 26.0117 17.7516C25.9652 17.728 25.9187 17.7044 25.8781 17.6867C25.698 17.5984 25.5238 17.51 25.3495 17.4334C25.0185 17.2802 24.7048 17.1388 24.4144 17.0269" stroke="#DCDCDC" stroke-width="4.27888" stroke-miterlimit="10"/>
<path d="M30.6234 20.2322C31.3204 19.6489 31.5469 19.5841 31.6224 19.643C31.7211 19.7255 31.634 20.1497 31.3145 20.3206C31.0938 20.4384 30.815 20.403 30.6234 20.2322Z" fill="#F6A19E"/>
<path d="M29.7638 20.9804L30.4317 21.1572C30.5595 21.2632 30.7628 21.4105 31.0416 21.5225C31.2971 21.6285 31.8954 21.8701 32.3774 21.5814C32.7143 21.381 32.9524 20.9509 32.8421 20.7919C32.7317 20.621 32.3368 20.9156 31.7792 20.7388C31.4249 20.6269 31.39 20.4501 30.9544 20.2439C30.6176 20.0848 30.3097 20.0377 30.1006 20.02C29.9845 20.3382 29.8683 20.6563 29.7579 20.9804H29.7638Z" fill="#F6A19E"/>
<path d="M59.4116 61.8497H2.90072C2.80488 61.8497 2.72729 61.6878 2.72729 61.4878C2.72729 61.2879 2.80488 61.126 2.90072 61.126H59.4116C59.5074 61.126 59.585 61.2879 59.585 61.4878C59.585 61.6878 59.5074 61.8497 59.4116 61.8497Z" fill="#B9E7EF"/>
</g>
<defs>
<clipPath id="clip0_18071_2750">
<rect width="60" height="62" fill="white" transform="matrix(-1 0 0 1 60 0)"/>
</clipPath>
</defs>
</svg>
