<svg width="218" height="198" viewBox="0 0 218 198" fill="none" xmlns="http://www.w3.org/2000/svg">
<path d="M198.465 171.682C204.766 160.543 214.226 140.557 216.796 113.976C218.041 101.104 223.943 40.0708 185.372 12.8876C166.329 -0.532617 136.417 -5.72423 116.537 8.38551C93.5446 24.7057 97.1892 57.4716 77.2573 62.8181C62.469 66.7846 56.0113 49.943 39.0998 52.996C18.7396 56.6705 4.43487 85.35 0.94135 107.837C-4.5925 143.452 15.9369 170.323 19.2724 174.546C79.0033 173.591 138.734 172.636 198.465 171.681V171.682Z" fill="#83E6EC" fill-opacity="0.3"/>
<path d="M175.685 146.47C175.685 146.47 208.503 137.832 192.927 123.029C192.927 123.029 219.023 94.7445 197.939 99.2229C197.939 99.2229 199.339 56.6509 175.196 92.2441C175.196 92.2441 164.108 82.9056 170.526 110.271C170.526 110.271 148.398 104.23 175.684 146.47H175.685Z" fill="#84B25A"/>
<path fill-rule="evenodd" clip-rule="evenodd" d="M180.731 124.072C178.108 139.079 174.371 157.52 169.928 171.149L168.66 170.654C173.066 157.139 176.787 138.791 179.409 123.796C180.719 116.303 181.753 109.658 182.459 104.886C182.813 102.5 183.084 100.583 183.267 99.2621C183.358 98.6019 183.428 98.0909 183.474 97.7452C183.497 97.5723 183.515 97.4408 183.526 97.3526C183.532 97.3085 183.537 97.2752 183.54 97.253L183.544 97.2204C183.544 97.2201 183.544 97.22 184.21 97.3242C184.876 97.4284 184.876 97.4286 184.876 97.429L184.872 97.4629C184.869 97.4855 184.865 97.5193 184.859 97.5638C184.847 97.653 184.829 97.7855 184.806 97.9594C184.759 98.3071 184.689 98.8202 184.598 99.4827C184.414 100.808 184.142 102.73 183.788 105.121C183.08 109.904 182.044 116.563 180.731 124.072Z" fill="#99CC67"/>
<path fill-rule="evenodd" clip-rule="evenodd" d="M184.727 121.276C183.21 122.57 181.693 123.863 180.176 125.157L179.348 123.996C180.868 122.7 182.388 121.404 183.908 120.108L183.909 120.107C185.429 118.81 186.95 117.514 188.47 116.218L189.297 117.379C187.777 118.676 186.257 119.972 184.736 121.268L184.727 121.276Z" fill="#99CC67"/>
<path fill-rule="evenodd" clip-rule="evenodd" d="M180.407 105.949C181.231 107.54 182.055 109.131 182.879 110.721L181.708 111.448C180.886 109.861 180.064 108.275 179.243 106.689L179.234 106.673C178.411 105.083 177.587 103.493 176.764 101.903L177.935 101.177C178.759 102.767 179.583 104.358 180.407 105.949L180.407 105.949Z" fill="#99CC67"/>
<path d="M119.882 197.805C105.209 198.302 65.2056 198.612 21.4813 188.638C15.0227 187.165 3.02508 184.177 2.81958 179.463C2.59508 174.322 16.5148 169.735 21.6385 168.047C70.2826 152.019 218.218 160.906 217.395 177.947C217.003 186.037 183.316 191.31 160.932 194.814C148.141 196.817 138.547 197.173 119.882 197.805Z" fill="#84B25A"/>
<path d="M79.8651 164.688C89.5346 164.688 97.3733 163.412 97.3733 161.84C97.3733 160.267 89.5346 158.992 79.8651 158.992C70.1956 158.992 62.3569 160.267 62.3569 161.84C62.3569 163.412 70.1956 164.688 79.8651 164.688Z" fill="#99CC67"/>
<path d="M91.9368 135.015C97.3697 127.939 96.065 118.177 94.5108 106.545C93.1206 96.1433 91.4222 97.0237 89.3629 84.6445C87.5876 73.9713 88.3673 70.4148 86.2174 56.4864C84.4965 45.34 83.5847 39.7507 81.0695 38.9657C76.7021 37.6035 68.0236 47.4625 66.4841 58.3634C65.3141 66.6515 69.2065 68.9167 69.058 81.8286C69.0226 84.9298 68.3673 89.3194 67.0565 98.0978C64.6121 114.468 63.6295 115.493 63.911 120.937C64.1925 126.385 64.7373 136.931 71.3462 140.96C77.6968 144.831 87.1948 141.191 91.9368 135.015Z" fill="#84B25A"/>
<path d="M79.8652 95.6L83.306 161.839H76.7861L78.0537 95.6H79.8652Z" fill="#99CC67"/>
<path d="M148.897 169.92C159.335 169.92 167.797 168.527 167.797 166.809C167.797 165.091 159.335 163.699 148.897 163.699C138.459 163.699 129.997 165.091 129.997 166.809C129.997 168.527 138.459 169.92 148.897 169.92Z" fill="#99CC67"/>
<path d="M145.727 124.56C145.727 124.56 185.056 103.795 160.108 89.5548C160.108 89.5548 181.804 44.3936 157.318 56.992C157.318 56.992 142.937 1.19249 126.433 55.2293C126.433 55.2293 109.128 46.6512 127.46 80.1681C127.46 80.1681 95.8501 78.414 145.727 124.56Z" fill="#84B25A"/>
<path d="M157.839 162.418C158.266 161.878 160.211 159.31 159.693 156.127C159.383 154.218 158.162 151.917 157.043 152.038C155.951 152.156 155.213 154.55 155.155 156.298C155.047 159.573 157.287 161.878 157.839 162.418Z" fill="#84B25A"/>
<path d="M159.354 163.651C159.999 163.757 163.022 164.178 165.203 161.995C166.51 160.687 167.632 158.326 166.94 157.356C166.265 156.411 164.021 157.011 162.641 157.894C160.054 159.549 159.474 162.852 159.354 163.651Z" fill="#84B25A"/>
<path fill-rule="evenodd" clip-rule="evenodd" d="M158.212 164.261C158.116 160.74 157.775 157.56 157.337 154.788L158.212 164.261ZM157.337 154.788L156.728 154.903L157.337 154.788ZM156.728 154.903C157.162 157.648 157.499 160.796 157.594 164.281L156.728 154.903ZM158.212 164.261C158.235 165.114 158.243 165.947 158.238 166.759L157.62 166.754C157.625 165.95 157.617 165.126 157.594 164.281L157.594 164.281" fill="#99CC67"/>
<path fill-rule="evenodd" clip-rule="evenodd" d="M160.046 162.82C161.347 161.941 162.95 160.747 164.192 159.467L164.616 159.959C163.329 161.286 161.685 162.508 160.371 163.395C159.712 163.84 159.133 164.202 158.719 164.454C158.511 164.58 158.345 164.678 158.23 164.745C158.173 164.778 158.128 164.804 158.098 164.821C158.083 164.83 158.071 164.836 158.063 164.841L158.054 164.846L158.051 164.848C158.051 164.848 158.051 164.848 157.91 164.547C157.779 164.269 157.769 164.248 157.769 164.246L157.769 164.246L157.771 164.245L157.779 164.24C157.786 164.236 157.797 164.23 157.812 164.221C157.841 164.205 157.884 164.18 157.94 164.148C158.052 164.082 158.215 163.986 158.419 163.862C158.827 163.615 159.397 163.258 160.046 162.82Z" fill="#99CC67"/>
<path d="M145.75 99.2105L149.263 166.809H142.608L143.903 99.2105H145.75Z" fill="#99CC67"/>
<path d="M156.281 52.4387H156.506C156.491 52.2942 156.477 52.0836 156.492 51.8314C156.71 48.0123 159.108 44.8752 163.653 44.2895C168.565 43.6566 172.52 45.8992 174.344 47.1366C175.681 45.4911 177.629 44.4529 179.8 44.4529C183.831 44.4529 187.099 48.0283 187.099 52.4387H187.786C190.629 52.4387 193.068 54.7984 193.273 57.9005C193.503 61.3597 191.006 64.2436 187.892 64.2436H152.504C149.391 64.2436 146.893 61.3597 147.123 57.9005C147.328 54.7984 153.437 52.4387 156.279 52.4387H156.281Z" fill="white"/>
<path d="M49.9301 14.1911H50.1546C50.1399 14.0466 50.1261 13.8359 50.1408 13.5837C50.3593 9.76464 52.7571 6.62757 57.3023 6.04191C62.2144 5.40902 66.169 7.65154 67.9926 8.88898C69.3301 7.24346 71.2781 6.20533 73.4488 6.20533C77.4802 6.20533 80.7484 9.7807 80.7484 14.1911H81.4348C84.2782 14.1911 86.7165 16.5508 86.922 19.6529C87.1517 23.1121 84.6546 25.996 81.541 25.996H46.1525C43.0398 25.996 40.5418 23.1121 40.7715 19.6529C40.977 16.5508 47.0859 14.1911 49.9284 14.1911H49.9301Z" fill="white"/>
<path d="M49.038 172.223C54.1763 172.223 58.3417 171.551 58.3417 170.723C58.3417 169.894 54.1763 169.223 49.038 169.223C43.8998 169.223 39.7344 169.894 39.7344 170.723C39.7344 171.551 43.8998 172.223 49.038 172.223Z" fill="#99CC67"/>
<path d="M46.3893 156.934C49.0652 152.063 61.1051 129.022 53.0733 104.829C48.2604 90.3321 35.8052 74.1111 27.1785 76.7315C18.7659 79.2867 15.9683 99.1586 17.7012 112.954C20.9487 138.806 41.3874 153.532 46.3893 156.933V156.934Z" fill="#84B25A"/>
<path fill-rule="evenodd" clip-rule="evenodd" d="M35.2651 115.051C37.5522 126.041 41.2899 140.948 47.092 156.623C48.8513 161.376 50.8038 165.99 52.8504 170.399L51.5001 171.149C49.4366 166.704 47.4657 162.047 45.6882 157.245C39.8476 141.466 36.088 126.469 33.7884 115.419C32.6384 109.892 31.853 105.351 31.3549 102.188C31.1058 100.607 30.9285 99.3705 30.8133 98.528C30.7557 98.1068 30.7137 97.7841 30.6859 97.566C30.6721 97.457 30.6618 97.3741 30.6549 97.3182C30.6515 97.2902 30.6489 97.269 30.6472 97.2546L30.6445 97.2325C30.6445 97.2322 30.6445 97.232 31.3955 97.1257C32.1446 97.0197 32.1464 97.0194 32.1465 97.0195L32.1487 97.0382C32.1503 97.0513 32.1527 97.0712 32.1559 97.0978C32.1625 97.1511 32.1724 97.2313 32.186 97.3376C32.213 97.5503 32.2543 97.8674 32.3111 98.283C32.4248 99.114 32.6003 100.338 32.8474 101.907C33.3415 105.044 34.1218 109.557 35.2651 115.051Z" fill="#99CC67"/>
<path fill-rule="evenodd" clip-rule="evenodd" d="M28.517 125.436L39.6019 134.091L38.7222 135.439L27.6372 126.785L28.517 125.436Z" fill="#99CC67"/>
<path fill-rule="evenodd" clip-rule="evenodd" d="M37.091 109.015C36.3769 110.54 35.6629 112.065 34.949 113.589L33.6011 112.834C34.3152 111.309 35.0294 109.784 35.7436 108.259C36.824 105.951 37.9044 103.644 38.9846 101.336L40.3327 102.091C39.2523 104.4 38.1716 106.707 37.091 109.015Z" fill="#99CC67"/>
<path d="M117.548 181.525C139.85 181.525 157.93 179.41 157.93 176.801C157.93 174.192 139.85 172.077 117.548 172.077C95.2456 172.077 77.166 174.192 77.166 176.801C77.166 179.41 95.2456 181.525 117.548 181.525Z" fill="#99CC67"/>
<path d="M114.297 16.9969C117.772 17.403 119.75 20.9416 120.363 23.2691C121.175 26.3561 119.629 27.4821 120.585 29.7841C121.987 33.1602 125.812 31.9435 127.872 35.1259C130.298 38.8732 126.303 42.5837 128.316 47.7517C130.266 52.76 135.268 52.4842 136.157 56.6547C137.047 60.8261 132.911 65.1846 131.867 66.286C121.961 76.725 100.626 75.2117 94.4339 65.2337C93.3157 63.4323 91.3988 59.2722 92.8063 56.9787C94.1282 54.824 97.3869 55.9453 98.5767 53.6603C99.8183 51.277 96.9776 48.7029 98.2071 46.2148C99.3806 43.8391 102.514 45.0803 103.978 42.5724C105.321 40.2703 103.165 38.3934 104.347 34.9644C105.399 31.9142 107.515 32.2118 108.194 29.4611C108.972 26.307 106.45 24.857 107.159 21.9344C107.829 19.1619 111.03 16.6152 114.298 16.9978L114.297 16.9969Z" fill="#191245"/>
<path d="M115.261 109.542L115.233 113.048L116.013 113.056L116.041 109.55L115.261 109.542Z" fill="#F6A19E"/>
<path d="M116.034 109.559C116.034 109.559 114.708 108.025 113.306 109.533L113.234 118.586C113.398 118.63 114.199 118.829 114.998 118.313C115.004 118.309 115.011 118.304 115.017 118.3C115.624 117.898 115.974 117.156 115.98 116.38L116.009 112.717C116.009 112.717 115.182 111.14 116.034 109.56V109.559Z" fill="#D1729D"/>
<path d="M113.225 118.831L113.302 109.258L112.413 109.25L112.337 118.822L113.225 118.831Z" fill="#BBB4F8"/>
<path fill-rule="evenodd" clip-rule="evenodd" d="M115.675 114.738C115.736 114.697 115.796 114.656 115.856 114.616L115.958 114.796C115.898 114.837 115.838 114.878 115.777 114.919C115.62 115.026 115.462 115.132 115.305 115.239L115.202 115.059C115.36 114.952 115.518 114.845 115.675 114.738Z" fill="#E1EEF7"/>
<path fill-rule="evenodd" clip-rule="evenodd" d="M115.465 113.933C115.58 113.871 115.696 113.809 115.813 113.747L115.898 113.938C115.782 114 115.666 114.062 115.55 114.124L115.55 114.124C115.434 114.186 115.318 114.248 115.202 114.31L115.117 114.119C115.233 114.057 115.349 113.995 115.464 113.933L115.465 113.933Z" fill="#E1EEF7"/>
<path d="M117.618 109.694L116.032 109.831L116.012 112.281L117.471 112.37L117.618 109.694Z" fill="#F6A19E"/>
<path d="M116.61 112.72C116.61 112.72 155.162 93.7262 156.424 84.9129C157.52 77.2568 153.824 71.9972 131.737 71.0242L126.548 70.892L126.308 67.9873L118.628 62.5595C109.907 59.9307 101.521 68.2027 103.283 77.9095C103.505 79.1319 103.871 80.0595 104.325 81.2025C104.325 81.2025 106.049 85.5411 109.002 88.7396C115.91 96.2247 137.517 88.664 137.517 88.664L116.023 109.753L116.609 112.72H116.61Z" fill="#027CFC"/>
<path d="M156.593 82.5371C156.517 76.1789 151.458 71.8913 131.736 71.0232L126.548 70.891L126.308 67.9863L124.56 66.7516C124.331 66.8414 124.101 66.9321 123.87 67.0275C122.051 67.7737 120.619 68.4926 119.766 68.9413C119.945 70.0701 120.125 71.198 120.304 72.3268C128.083 71.9319 134.378 72.7736 138.737 73.6511C145.907 75.0945 149.372 76.945 151.655 78.4602C153.851 79.9177 155.499 81.43 156.593 82.5381L156.593 82.5371Z" fill="#095FB9"/>
<path d="M102.626 65.041C102.626 65.041 111.603 70.7682 126.838 65.6398L102.626 65.041Z" fill="#4463CD"/>
<path d="M102.615 68.1534C102.615 68.1534 92.1025 81.3601 95.83 106.553C99.5575 131.746 106.867 171.552 106.867 171.552L109.405 171.408L113.977 89.1106C113.977 89.1106 115.976 83.3636 116.178 69.0914L102.615 68.1543V68.1534Z" fill="#027CFC"/>
<path d="M106.795 171.552C106.795 171.552 106.861 172.695 106.587 173.491C106.313 174.288 108.52 174.428 108.552 174.405C108.584 174.381 109.593 173.491 109.593 173.491C109.593 173.491 109.289 172.491 109.333 171.408" fill="#F6A19E"/>
<path d="M110.332 175.086C110.252 174.196 109.923 173.55 109.728 173.224C109.419 173.098 109.012 172.974 108.526 172.926C107.64 172.841 106.921 173.055 106.499 173.224C106.311 173.485 105.872 174.165 105.818 175.149C105.783 175.772 105.915 176.27 106.018 176.564H110.217C110.3 176.23 110.388 175.712 110.332 175.086Z" fill="#D1729D"/>
<path d="M106.997 174.208H109.206C109.831 174.208 110.339 174.763 110.339 175.447V176.54H105.864V175.447C105.864 174.763 106.372 174.208 106.997 174.208Z" fill="#D1729D"/>
<path d="M110.339 176.028H105.808V177.099H110.339V176.028Z" fill="#BBB4F8"/>
<path fill-rule="evenodd" clip-rule="evenodd" d="M107.465 173.536C107.465 173.536 107.465 173.536 107.452 173.492C107.438 173.447 107.438 173.447 107.438 173.447L107.439 173.447L107.439 173.447L107.441 173.446C107.442 173.446 107.444 173.445 107.447 173.444C107.452 173.443 107.459 173.44 107.469 173.437C107.488 173.431 107.517 173.422 107.552 173.413C107.624 173.394 107.725 173.372 107.846 173.357C108.086 173.327 108.406 173.327 108.718 173.448L108.69 173.536C108.395 173.421 108.089 173.421 107.855 173.45C107.739 173.464 107.641 173.486 107.572 173.504C107.538 173.513 107.511 173.521 107.493 173.527C107.484 173.53 107.477 173.532 107.472 173.534C107.47 173.534 107.468 173.535 107.467 173.535L107.466 173.536L107.465 173.536Z" fill="#E1EEF7"/>
<path fill-rule="evenodd" clip-rule="evenodd" d="M107.465 174.026C107.465 174.026 107.465 174.026 107.452 173.982C107.438 173.937 107.438 173.937 107.438 173.937L107.439 173.937L107.439 173.937L107.441 173.937C107.442 173.936 107.444 173.935 107.447 173.934C107.452 173.933 107.459 173.93 107.469 173.927C107.488 173.921 107.517 173.913 107.552 173.903C107.624 173.884 107.725 173.862 107.846 173.847C108.086 173.817 108.406 173.817 108.718 173.938L108.69 174.026C108.395 173.911 108.089 173.911 107.855 173.94C107.739 173.954 107.641 173.976 107.572 173.994C107.538 174.003 107.511 174.011 107.493 174.017C107.484 174.02 107.477 174.022 107.472 174.024C107.47 174.025 107.468 174.025 107.467 174.026L107.466 174.026L107.465 174.026Z" fill="#E1EEF7"/>
<path d="M102.615 68.1536C102.615 68.1536 103.866 66.083 104.29 64.7275C104.715 63.3719 125.504 64.5858 125.504 64.5858L126.471 69.2106C126.471 69.2106 112.696 72.5035 102.615 68.1536Z" fill="#F6A19E"/>
<path d="M125.504 64.5856C125.504 64.5856 123.509 64.4694 120.743 64.3485L119.206 65.0409L119.812 70.2032C123.736 69.8632 126.472 69.2095 126.472 69.2095L125.504 64.5847V64.5856Z" fill="#F26D6D"/>
<path d="M104.901 32.7927L75.1919 14.0987L74.3682 16.4111L88.2429 29.392L101.095 39.0375C102.121 39.8074 103.534 39.2076 103.817 37.8813L104.901 32.7927Z" fill="#FB9C98"/>
<path d="M126.122 45.7773C125.748 42.5259 125.265 39.4493 124.712 36.5578C124.636 36.1601 124.371 35.8389 124.018 35.7114C120.807 34.5505 117.596 33.3886 114.385 32.2277L108.825 33.9223C108.523 33.7409 107.417 33.3971 106.587 32.9834C105.835 32.6084 104.306 32.0302 104.242 31.6486C102.842 34.3578 101.159 36.639 99.8555 38.9722C101.799 40.6319 101.383 40.8057 102.552 44.6418C103.337 46.8702 103.606 49.2714 103.371 51.6462C103.37 51.6584 103.368 51.6707 103.367 51.683C102.895 56.4543 102.678 60.9223 102.625 65.0408C106.513 65.2024 110.453 65.3346 114.443 65.4357C118.63 65.5405 122.762 65.6085 126.838 65.6407C127.087 59.7047 126.957 53.0244 126.122 45.7782L126.122 45.7773Z" fill="#D1729D"/>
<path d="M74.3682 16.4113L72.9556 15.3249C72.9556 15.3249 72.2061 15.2598 71.4264 14.642C71.277 14.5239 70.1364 13.6265 69.8964 12.0141C69.7885 11.2886 69.8333 10.2165 70.2236 10.0625C70.6476 9.89529 71.5024 10.7974 71.4782 10.7804L75.4216 14.2462L74.3673 16.4122L74.3682 16.4113Z" fill="#FB9C98"/>
<path d="M149.348 10.2503L150.594 9.06485C150.594 9.06485 151.336 8.93166 152.067 8.24681C152.207 8.11551 153.277 7.118 153.394 5.48948C153.447 4.75646 153.322 3.69282 152.921 3.57379C152.486 3.44533 151.702 4.42112 151.724 4.40222L148.056 8.21186L149.349 10.2503H149.348Z" fill="#FB9C98"/>
<path d="M126.123 45.7775C125.744 42.4874 125.254 39.3758 124.693 36.4541C124.629 36.1216 124.644 34.8936 124.349 34.7869C122.328 34.0557 120.068 34.2834 118.047 33.5522C117.43 34.0671 117.005 34.6716 116.841 35.381C116.542 36.6827 117.231 37.8928 117.348 38.1223C118.141 39.6658 118.641 46.5454 118.171 65.519C119.537 65.5464 120.908 65.57 122.286 65.5889C123.811 65.6107 125.329 65.6277 126.838 65.639C127.087 59.703 126.957 53.0227 126.122 45.7765L126.123 45.7775Z" fill="#B3155C"/>
<path d="M111.667 31.1774L111.617 26.0037L116.314 25.7543L116.373 31.5326C116.478 32.5782 117.643 33.4057 118.557 33.7363L120.207 34.0452C120.034 35.6435 118.541 39.5731 117.112 39.8093C114.405 40.2561 111.052 35.2534 109.523 33.709C110.531 33.402 111.601 32.3204 111.666 31.1783L111.667 31.1774Z" fill="#F6A19E"/>
<path d="M116.338 28.0649L116.313 25.7543L111.617 26.0037L111.651 29.5999C112.039 29.8918 112.474 30.0873 112.949 30.1449C114.269 30.3064 115.529 29.3769 116.337 28.0639L116.338 28.0649Z" fill="#F26D6D"/>
<path d="M111.571 20.4617C111.401 20.5958 110.117 21.6434 109.794 23.4571C109.366 25.8649 110.725 29.1068 112.949 29.3798C115.077 29.6405 117.051 27.0674 117.22 24.6199C117.37 22.4501 116.136 19.9251 114.322 19.5548C113.047 19.2941 111.919 20.1868 111.571 20.4636V20.4617Z" fill="#F6A19E"/>
<path d="M112.071 27.0834C112.064 27.345 112.485 27.5963 112.813 27.67C113.648 27.858 114.37 27.0003 114.464 26.886C114.256 26.7329 113.766 26.4193 113.14 26.4817C112.693 26.5261 112.08 26.7717 112.071 27.0843V27.0834Z" fill="white"/>
<path d="M123.144 33.9613L148.055 8.21198L149.348 10.2505L138.619 26.41L128.175 39.0651C127.341 40.0758 125.838 39.8519 125.281 38.6343L123.144 33.9613Z" fill="#FB9C98"/>
<path d="M121.347 34.3844L120.208 40.566L123.633 46.876C126.793 42.3013 127.935 40.6482 131.094 36.0734C129.061 34.4005 127.027 32.7276 124.993 31.0537L121.347 34.3835V34.3844Z" fill="#B3155C"/>
<path d="M74.2764 13.2173C74.0545 10.9238 73.7808 10.4005 73.5615 10.3825C73.2593 10.3589 72.7231 11.2705 72.9796 12.1461C73.1592 12.7592 73.6789 13.1899 74.2773 13.2164L74.2764 13.2173Z" fill="#FB9C98"/>
<path d="M149.12 7.08309C149.168 4.77728 149.402 4.23035 149.619 4.19351C149.918 4.1425 150.521 5.00304 150.332 5.89854C150.199 6.52576 149.714 7.00185 149.12 7.08214V7.08309Z" fill="#FB9C98"/>
<path d="M110.315 18.0879C109.746 18.9777 110.833 21.3969 112.406 22.2461C113.1 22.6211 113.942 22.7175 115.256 22.8696C116.75 23.0424 117.134 22.8799 117.536 23.2852C118.387 24.142 117.678 25.8857 118.296 26.1955C118.674 26.3845 119.345 25.9377 119.627 25.3643C120.194 24.2062 119.152 22.5748 118.677 21.8305C118.188 21.0653 117.338 20.0159 115.827 19.1279C114.082 18.103 110.997 17.0224 110.316 18.0888L110.315 18.0879Z" fill="#191245"/>
<path d="M118.371 24.1826C118.419 23.5592 117.997 23.0103 117.427 22.9574C116.857 22.9045 116.355 23.3665 116.307 23.9899C116.259 24.6133 116.681 25.1622 117.251 25.2151C117.821 25.268 118.322 24.8061 118.371 24.1826Z" fill="#F6A19E"/>
</svg>
