<svg width="218" height="198" viewBox="0 0 320 282" fill="none" xmlns="http://www.w3.org/2000/svg">
<path d="M271.943 277.968H45.1715C7.62716 236.246 3.84524 209.282 8.75257 191.787C16.4734 164.26 40.8662 149.894 43.7713 124.358C46.454 100.838 35.1737 96.4772 39.7015 76.1922C46.2315 46.963 75.2829 30.5936 91.1434 21.6624C111.087 10.4265 157.098 -9.45255 173.966 7.7026C185.979 19.9338 169.792 37.3378 180.575 56.5882C199.471 90.3485 269.875 73.7565 277.714 98.4285C282.922 114.837 254.59 131.298 262.455 150.339C266.381 159.847 274.625 158.851 285.997 172.156C297.644 185.776 301.465 201.412 302.564 208.798C307.825 244.208 277.714 272.848 271.943 277.955V277.968Z" fill="#83E6EC" fill-opacity="0.3"/>
<path d="M28.0275 101.722C33.3397 104.71 30.7625 118.212 29.9867 122.266C28.0669 132.32 21.6239 149.89 12.722 149.653C6.8575 149.495 1.65047 141.625 0.348712 134.979C-1.30807 126.53 3.3204 119.897 6.2132 115.751C11.7621 107.789 22.6758 98.7346 28.0406 101.735L28.0275 101.722Z" fill="#83E6EC" fill-opacity="0.3"/>
<path d="M192.561 33.5733C191.919 36.1585 190.517 43.4157 193.648 50.909C198.849 63.376 213.822 69.9639 226.53 68.4678C235.045 67.4573 244.831 62.5493 244.49 58.4942C244.032 53.0743 226.045 56.4076 213.338 43.5469C204.063 34.1507 203.578 22.1692 199.058 22.5235C195.233 22.8254 193.058 31.6048 192.574 33.5733H192.561Z" fill="#83E6EC" fill-opacity="0.3"/>
<path d="M216.724 276.012L209.651 178.604H116.059L109.536 276.012H216.724Z" fill="#F6A19E"/>
<path d="M116.106 178.604L109.927 271.318C137.598 266.913 165.623 247.317 179.537 222.254C186.723 209.316 190.721 193.888 191.296 178.604H116.106Z" fill="#E7827F"/>
<path d="M218.174 51.2554C189.12 25.4031 145.525 36.5051 142.688 37.2766C97.8381 49.3986 80.2513 93.3095 74.7987 107.38C74.3803 107.785 74.0403 108.269 73.818 108.844C73.1381 110.505 65.4757 125.242 59.8793 136.017C56.1919 143.105 52.7138 149.813 51.0924 153.017C48.8303 157.489 50.4517 162.955 54.7928 165.466L63.2921 170.579C63.4882 198.549 71.399 225.356 92.9478 238.014C130.671 260.179 189.381 226.795 216.461 187.644C243.292 148.846 253.845 83.0052 218.174 51.2554Z" fill="#F6A19E"/>
<path d="M164.1 145.367V124.113C165.632 127.566 169.091 129.972 173.112 129.972C177.134 129.972 182.963 125.564 182.963 120.136C182.963 114.709 178.549 110.301 173.112 110.301C167.676 110.301 165.632 112.707 164.1 116.16V100.347H185.282C181.824 98.817 179.413 95.364 179.413 91.3486C179.413 87.3332 183.828 81.5129 189.264 81.5129C194.701 81.5129 199.115 85.9206 199.115 91.3486C199.115 96.7766 196.705 98.817 193.247 100.347H218.359C218.83 99.3794 219.25 98.3723 219.603 97.339C227.804 73.4559 203.674 45.8844 176.898 57.9175C176.283 58.1922 175.667 58.493 175.051 58.8069L164.113 64.4442L153.175 58.8069C152.559 58.493 151.943 58.1922 151.328 57.9175C124.552 45.8844 100.435 73.4428 108.623 97.339C110.614 103.159 114.557 108.116 119.482 111.805L164.113 145.367H164.126C164.126 145.354 164.113 145.354 164.113 145.354L164.1 145.367Z" fill="#B3145C"/>
<path d="M243.576 205.217L243.716 205.565L242.803 206.379L241.833 206.02L241.468 205.565L241.369 205.205L243.576 205.217Z" fill="#FFC5AE"/>
<path d="M223.325 205.31L223.374 205.701L222.993 206.379L221.849 206.262L221.516 206.04L221.418 205.701V205.205L223.325 205.31Z" fill="#FFC5AE"/>
<path d="M240.16 136.746C240.16 136.746 245.457 141.924 243.779 205.206H241.15C241.15 205.192 230.807 148.254 230.807 148.254V136.746H240.16Z" fill="#095FB9"/>
<path d="M224.782 133.225C224.782 133.225 218.654 138.09 218.68 151.168C218.693 157.027 221.439 205.101 221.439 205.101L223.447 205.205C227.023 186.896 229.601 168.914 232.555 150.291C232.983 150.226 235.147 150.069 235.522 149.624C236.339 148.644 235.548 146.944 235.561 146.198C235.626 143.203 235.652 136.364 235.458 133.84C233.087 134.036 227.023 133.447 224.795 133.225H224.782Z" fill="#095FB9"/>
<path d="M221.402 205.114C221.402 205.114 218.693 157.031 218.68 151.171C218.654 138.091 224.699 133.225 224.699 133.225C225.211 133.29 225.735 133.343 226.259 133.395L227.677 134.324C227.677 134.324 223.396 159.948 223.498 175.265C223.549 183.78 223.549 195.591 223.536 204.394C223.485 204.669 223.434 204.931 223.383 205.205L221.402 205.101V205.114Z" fill="#027CFC"/>
<path d="M223.328 205.596C223.328 205.596 224.312 206.555 223.328 207.552H219.071V205.596H221.283C221.283 205.596 222.292 206.192 223.328 205.596Z" fill="#082787"/>
<path d="M220.636 207.552H217.115V207.28C217.115 206.348 217.9 205.596 218.875 205.596C219.85 205.596 220.636 206.348 220.636 207.28V207.552Z" fill="#082787"/>
<path d="M217.115 207.944H223.374V207.553H217.115V207.944Z" fill="#F9E0D2"/>
<path d="M241.448 205.596C241.448 205.596 240.39 206.555 241.448 207.552H246.846L246.654 205.596H243.646C243.646 205.596 242.561 206.192 241.448 205.596Z" fill="#082787"/>
<path d="M248.411 207.552H241.369V207.944H248.411V207.552Z" fill="#F9E0D2"/>
<path d="M246.455 205.596C247.321 205.596 248.02 206.348 248.02 207.28V207.552H246.455V205.596Z" fill="#082787"/>
<path d="M240.69 136.564C241.19 136.564 243.307 147.499 247.237 174.692H217.882C217.882 174.692 216.765 152.521 218.382 145.851C219.999 139.18 225.362 114.406 226.506 112.64L234.472 110.927L240.625 113.373C240.625 113.373 242.373 120.828 240.677 136.564H240.69Z" fill="white"/>
<path d="M201.076 122.571L199.695 122.622C199.695 122.622 198.081 123.732 196.03 122.392C193.979 121.051 196.413 120.885 196.413 120.885L200.775 120.707L201.062 122.558L201.076 122.571Z" fill="#F6A19E"/>
<path d="M199.511 120.947C198.566 119.663 198.22 119.463 198.07 119.551C197.874 119.663 197.874 120.436 198.335 120.847C198.658 121.134 199.131 121.184 199.5 120.947H199.511Z" fill="#F6A19E"/>
<path d="M226.663 112.491C226.663 112.491 222.199 115.121 218.713 117.488C216.402 119.066 213.635 119.842 210.841 119.723C210.476 119.71 210.097 119.697 209.718 119.697C206.22 119.644 203.152 120.197 200.685 120.723V122.642C200.685 122.642 215.619 125.167 224.274 121.262C232.929 117.356 226.65 112.505 226.65 112.505L226.663 112.491Z" fill="#B9E7EF"/>
<path d="M214.672 123.445C214.515 122.781 214.409 122.077 214.383 121.334C214.357 120.644 214.409 119.993 214.515 119.409C216 119.037 217.433 118.413 218.721 117.537C222.23 115.147 226.726 112.491 226.726 112.491C226.726 112.491 231.918 117.829 224.333 121.334C221.547 122.622 218.077 123.206 214.672 123.445Z" fill="#DCDCDC"/>
<path d="M240.868 129.029C241.58 128.726 242.215 128.502 242.72 128.396C242.72 128.396 239.042 120.294 239.444 117.496C239.845 114.686 240.687 113.274 240.687 113.274C240.687 113.274 248.198 122.115 248.016 127.987C247.965 129.597 246.631 130.943 244.727 132.051C243.316 131.365 241.943 130.23 240.881 129.043L240.868 129.029Z" fill="white"/>
<path d="M233.351 119.911C233.351 119.911 235.749 115.287 238.24 112.38L234.53 110.927L230.807 111.719L233.351 119.924V119.911Z" fill="#F9E0D2"/>
<path d="M237.066 106.967L236.486 111.564L234.386 112.492L232.763 111.126L233.433 106.232L237.066 106.967Z" fill="#FFC5AE"/>
<path d="M233.837 102.261C232.758 102.878 232.529 104.097 232.453 104.499C232.135 106.12 232.745 108.545 234.332 108.92C235.817 109.281 237.467 107.66 237.785 105.932C238.013 104.686 237.645 102.985 236.363 102.261C235.639 101.86 234.662 101.779 233.837 102.261Z" fill="#FFC5AE"/>
<path d="M237.217 105.45C237.23 105.629 237.283 106.416 236.811 106.844C236.207 107.383 235.183 107.01 234.921 106.913C234.343 106.706 234.264 106.458 233.858 106.402C233.267 106.333 232.729 106.775 232.375 107.148C232.361 107.493 232.375 108.142 232.781 108.652C233.543 109.633 235.196 109.495 236.207 108.86C237.545 108.017 238.149 106.057 237.703 105.588C237.585 105.464 237.388 105.45 237.204 105.464L237.217 105.45Z" fill="#082787"/>
<path d="M237.081 105.45C237.107 105.34 237.425 104.132 236.776 103.425C236.648 103.29 236.215 102.827 235.732 102.876C235.579 102.888 235.502 102.949 234.471 103.608C234.216 103.766 234.089 103.852 233.898 103.839C233.605 103.827 233.363 103.608 233.248 103.388C233.006 102.937 233.274 102.351 233.554 102.046C234.025 101.521 234.789 101.521 235.095 101.546C235.095 101.546 235.146 101.546 235.209 101.546C236.279 101.668 237.667 102.888 237.833 104.096C237.871 104.364 237.833 104.547 237.794 104.693C237.642 105.12 237.26 105.352 237.107 105.438L237.081 105.45Z" fill="#082787"/>
<path d="M238.617 105.601C238.696 105.18 238.42 104.76 238 104.681C237.579 104.602 237.158 104.878 237.079 105.299C237.001 105.719 237.277 106.14 237.697 106.219C238.118 106.298 238.539 106.022 238.617 105.601Z" fill="#FFC5AE"/>
<path d="M234.29 112.491L233.545 113.218L233.823 114.447L234.719 113.623L234.29 112.491Z" fill="#B3145C"/>
<path d="M233.214 119.924C233.214 119.924 233.648 119.092 234.328 117.911L233.825 114.448C233.825 114.448 232.983 115.495 232.372 117.226L233.2 119.911L233.214 119.924Z" fill="#B3145C"/>
<path d="M223.636 145.268C223.915 134.47 228.961 117.573 230.807 111.709L226.597 112.599C225.442 114.353 220.024 139.156 218.391 145.831C216.757 152.507 217.886 174.692 217.886 174.692H224.765C224.167 166.197 223.424 153.475 223.636 145.268Z" fill="#DCDCDC"/>
<path d="M233.168 135.509C232.549 135.623 232.009 135.711 231.575 135.787C231.509 135.787 231.43 135.812 231.364 135.825C230.771 135.913 230.416 135.963 230.416 135.963L230.613 135.32L231.008 134.033C231.008 134.033 234.894 131.812 238.397 130.159C238.476 130.121 238.555 130.083 238.647 130.045C238.976 129.894 239.293 129.742 239.609 129.616C240.201 129.351 240.781 129.111 241.294 128.922C242.085 129.465 242.849 130.108 243.639 130.764C244.1 131.143 244.508 131.534 244.89 131.913C241.966 133.541 237.659 134.626 234.498 135.269C234.024 135.37 233.577 135.446 233.168 135.522V135.509Z" fill="white"/>
<path fill-rule="evenodd" clip-rule="evenodd" d="M234.454 135.001C236.349 134.595 238.666 134.007 240.84 133.225L240.978 133.62C238.782 134.411 236.446 135.003 234.54 135.411C234.192 135.49 233.857 135.554 233.545 135.613C233.437 135.634 233.332 135.654 233.23 135.674L233.229 135.674C232.81 135.756 232.426 135.825 232.089 135.886C231.937 135.913 231.795 135.939 231.663 135.963L231.589 135.55C231.724 135.526 231.867 135.5 232.02 135.472C232.356 135.412 232.735 135.343 233.151 135.262C233.257 135.242 233.364 135.221 233.474 135.2C233.784 135.141 234.11 135.078 234.451 135.001L234.453 135.001L234.454 135.001Z" fill="#DCDCDC"/>
<path fill-rule="evenodd" clip-rule="evenodd" d="M241.369 128.935C240.857 129.135 240.277 129.39 239.682 129.673L239.678 129.675L239.674 129.677C239.423 129.783 239.173 129.906 238.91 130.036C238.846 130.068 238.78 130.1 238.714 130.132L238.71 130.134L238.706 130.136C238.619 130.174 238.545 130.211 238.465 130.252L238.464 130.253C236.702 131.137 234.842 132.173 233.422 132.989C232.712 133.397 232.112 133.749 231.69 134C231.48 134.125 231.313 134.225 231.199 134.293C231.142 134.327 231.099 134.354 231.069 134.372L231.025 134.398L231.025 134.398C231.025 134.399 231.025 134.399 230.916 134.213C230.807 134.027 230.807 134.027 230.807 134.027L230.852 133.999C230.882 133.981 230.926 133.955 230.983 133.92C231.097 133.852 231.265 133.751 231.476 133.626C231.9 133.374 232.501 133.021 233.213 132.612C234.636 131.794 236.503 130.753 238.275 129.865C238.275 129.865 238.276 129.864 238.276 129.864L238.276 129.864C238.354 129.825 238.437 129.782 238.534 129.74C238.596 129.709 238.658 129.679 238.72 129.648C238.983 129.519 239.245 129.39 239.506 129.279C240.106 128.994 240.694 128.735 241.217 128.531L241.369 128.935Z" fill="#DCDCDC"/>
<path d="M186.21 163.347L232.658 132.643C236.87 129.856 240.482 126.18 242.934 121.797L217.989 120.227C221.522 118.919 224.13 115.622 224.391 111.606C224.73 106.177 220.623 101.507 215.211 101.166C209.799 100.826 205.144 104.947 204.805 110.376C204.557 114.393 206.735 117.99 210.073 119.73L189.027 118.396L188.036 134.173C189.77 130.824 193.356 128.639 197.359 128.888C202.771 129.228 206.879 133.899 206.539 139.328C206.2 144.757 201.545 148.878 196.134 148.538C192.13 148.289 188.844 145.66 187.54 142.114L186.21 163.334H186.223L186.21 163.347Z" fill="#B3145C"/>
<path d="M230.024 134.454C228.707 133.267 228.282 133.132 228.144 133.267C227.952 133.448 228.117 134.304 228.721 134.65C229.146 134.89 229.668 134.815 230.024 134.469V134.454Z" fill="#FFC5AE"/>
<path d="M231.589 135.767L230.411 136.095C230.181 136.299 229.822 136.559 229.335 136.777C228.887 136.968 227.837 137.418 226.979 136.886C226.39 136.518 225.967 135.726 226.159 135.426C226.352 135.112 227.043 135.658 228.029 135.331C228.644 135.126 228.708 134.799 229.476 134.417C230.065 134.13 230.616 134.035 230.975 134.007C231.18 134.594 231.384 135.181 231.577 135.781L231.589 135.767Z" fill="#FFC5AE"/>
<path d="M265.171 276.39C264.802 276.39 264.459 276.142 264.354 275.763L245.14 199.784C244.415 196.92 241.992 195.9 240.135 195.9C238.278 195.9 239.305 195.534 239.305 195.076C239.305 194.618 239.674 194.252 240.135 194.252C241.61 194.252 243.046 194.71 244.204 195.534C245.482 196.449 246.364 197.783 246.773 199.391L265.987 275.37C266.106 275.815 265.829 276.26 265.381 276.377C265.316 276.39 265.25 276.404 265.171 276.404V276.39Z" fill="#095FB9"/>
<path d="M234.369 200.511C234.304 200.511 234.239 200.511 234.173 200.485C233.729 200.379 233.455 199.914 233.572 199.464C233.977 197.832 234.852 196.48 236.119 195.552C237.256 194.716 238.692 194.252 240.155 194.252C240.612 194.252 240.978 194.623 240.978 195.087C240.978 195.552 240.612 195.923 240.155 195.923C238.314 195.923 235.91 196.957 235.192 199.861C235.101 200.246 234.761 200.498 234.382 200.498L234.369 200.511Z" fill="#095FB9"/>
<path d="M215.598 276.404C215.532 276.404 215.466 276.404 215.4 276.377C214.953 276.272 214.677 275.814 214.795 275.368L233.856 199.186C233.961 198.74 234.422 198.465 234.869 198.583C235.316 198.687 235.592 199.146 235.474 199.592L216.413 275.774C216.321 276.154 215.979 276.404 215.598 276.404Z" fill="#027CFC"/>
<path d="M232.327 209.117H216.377C215.918 209.117 215.55 208.77 215.55 208.335C215.55 207.9 215.918 207.552 216.377 207.552H232.327C232.787 207.552 233.154 207.9 233.154 208.335C233.154 208.77 232.787 209.117 232.327 209.117Z" fill="#027CFC"/>
<path d="M248.366 209.117H232.416C231.957 209.117 231.589 208.77 231.589 208.335C231.589 207.9 231.957 207.552 232.416 207.552H248.366C248.826 207.552 249.193 207.9 249.193 208.335C249.193 208.77 248.826 209.117 248.366 209.117Z" fill="#095FB9"/>
<path d="M251.12 222.027H235.922C235.471 222.027 235.11 221.679 235.11 221.245C235.11 220.81 235.471 220.462 235.922 220.462H251.12C251.571 220.462 251.932 220.81 251.932 221.245C251.932 221.679 251.571 222.027 251.12 222.027Z" fill="#095FB9"/>
<path d="M254.625 234.936H238.675C238.216 234.936 237.848 234.502 237.848 233.958C237.848 233.415 238.216 232.98 238.675 232.98H254.625C255.085 232.98 255.452 233.415 255.452 233.958C255.452 234.502 255.085 234.936 254.625 234.936Z" fill="#095FB9"/>
<path d="M257.755 247.846H241.805C241.345 247.846 240.978 247.411 240.978 246.868C240.978 246.325 241.345 245.89 241.805 245.89H257.755C258.214 245.89 258.582 246.325 258.582 246.868C258.582 247.411 258.214 247.846 257.755 247.846Z" fill="#095FB9"/>
<path d="M249.143 276.39C248.777 276.39 248.438 276.142 248.333 275.763L229.439 199.784C228.721 196.92 226.319 195.9 224.478 195.9C222.637 195.9 223.655 195.534 223.655 195.076C223.655 194.618 224.021 194.252 224.478 194.252C225.94 194.252 227.363 194.71 228.512 195.534C229.779 196.449 230.654 197.783 231.059 199.391L249.953 275.37C250.057 275.815 249.796 276.26 249.352 276.377C249.287 276.39 249.221 276.404 249.156 276.404L249.143 276.39Z" fill="#095FB9"/>
<path d="M216.391 209.117C216.324 209.117 216.257 209.117 216.191 209.091C215.738 208.987 215.458 208.528 215.578 208.083L217.776 199.399C218.189 197.788 219.082 196.452 220.374 195.536C221.533 194.71 222.999 194.252 224.491 194.252C224.957 194.252 225.33 194.619 225.33 195.077C225.33 195.536 224.957 195.902 224.491 195.902C222.612 195.902 220.161 196.924 219.428 199.792L217.23 208.476C217.137 208.856 216.79 209.104 216.404 209.104L216.391 209.117Z" fill="#027CFC"/>
<path d="M199.55 276.403C199.485 276.403 199.42 276.403 199.355 276.377C198.912 276.273 198.639 275.816 198.756 275.372L215.486 208.18C215.59 207.736 216.046 207.462 216.489 207.58C216.931 207.684 217.205 208.141 217.088 208.585L200.357 275.777C200.266 276.155 199.927 276.403 199.55 276.403Z" fill="#027CFC"/>
<path d="M261.279 260.755H245.322C244.865 260.755 244.499 260.321 244.499 259.777C244.499 259.234 244.865 258.799 245.322 258.799H261.279C261.737 258.799 262.103 259.234 262.103 259.777C262.103 260.321 261.737 260.755 261.279 260.755Z" fill="#095FB9"/>
<path d="M278.748 279.533H7.21752C6.26202 279.533 5.47668 278.752 5.47668 277.773C5.47668 276.793 6.24893 276.012 7.21752 276.012H278.748C279.704 276.012 280.489 276.793 280.489 277.773C280.489 278.752 279.717 279.533 278.748 279.533Z" fill="#B9E7EF"/>
<path d="M318.26 279.533H288.489C287.533 279.533 286.748 278.752 286.748 277.773C286.748 276.793 287.52 276.012 288.489 276.012H318.26C319.215 276.012 320 276.793 320 277.773C320 278.752 319.228 279.533 318.26 279.533Z" fill="#B9E7EF"/>
</svg>
