<svg width="80" height="80" viewBox="0 0 80 80" fill="none" xmlns="http://www.w3.org/2000/svg">
<path d="M53.9135 13.9134C39.5063 6.22924 21.5976 11.6794 13.9135 26.0866C6.22934 40.4939 11.6795 58.4025 26.0867 66.0866C40.494 73.7708 58.4026 68.3206 66.0867 53.9134C73.7709 39.5061 68.3207 21.5975 53.9135 13.9134Z" fill="url(#paint0_linear_19066_75778)"/>
<path fill-rule="evenodd" clip-rule="evenodd" d="M56.4978 25.2192C58.0248 26.4654 58.2525 28.7135 57.0063 30.2405L37.3945 54.2724C36.7473 55.0655 35.7907 55.5424 34.7678 55.5821C33.745 55.6218 32.7543 55.2203 32.0477 54.4797L23.1749 45.1813C21.8142 43.7554 21.8671 41.4964 23.293 40.1357C24.719 38.775 26.978 38.8279 28.3387 40.2539L34.4206 46.6276L51.4765 25.7278C52.7226 24.2007 54.9707 23.9731 56.4978 25.2192Z" fill="white"/>
<defs>
<linearGradient id="paint0_linear_19066_75778" x1="26.0867" y1="66.0866" x2="53.9135" y2="13.9134" gradientUnits="userSpaceOnUse">
<stop stop-color="#84B25A"/>
<stop offset="0.979167" stop-color="#99CC67"/>
</linearGradient>
</defs>
</svg>
