<svg width="36" height="36" viewBox="0 0 36 36" fill="none" xmlns="http://www.w3.org/2000/svg">
<path d="M17.929 33C13.9412 33 10.1935 31.4366 7.3672 28.6054C1.54427 22.7563 1.54427 13.2437 7.3672 7.39463C10.1857 4.56341 13.9335 3 17.929 3C21.9245 3 25.6645 4.56341 28.4908 7.39463C34.3138 13.2437 34.3138 22.7563 28.4908 28.6054C25.6723 31.4366 21.9245 33 17.929 33ZM17.929 6.11123C14.7697 6.11123 11.7963 7.34797 9.55853 9.59583C4.94355 14.2316 4.94355 21.7763 9.55853 26.412C11.7963 28.6599 14.7697 29.8966 17.929 29.8966C21.0883 29.8966 24.0617 28.6599 26.2995 26.412C30.9145 21.7763 30.9145 14.2316 26.2995 9.59583C24.0617 7.34797 21.0883 6.11123 17.929 6.11123Z" fill="url(#paint0_linear_2115_11720)"/>
<path d="M26.2452 27.9053C25.8503 27.9053 25.4554 27.7497 25.1535 27.4464L8.81517 11.0346C8.2112 10.428 8.2112 9.44012 8.81517 8.83343C9.41914 8.22675 10.4025 8.22675 11.0065 8.83343L27.3448 25.2452C27.9488 25.8519 27.9488 26.8397 27.3448 27.4464C27.0428 27.7497 26.6479 27.9053 26.253 27.9053H26.2452Z" fill="url(#paint1_linear_2115_11720)"/>
<defs>
<linearGradient id="paint0_linear_2115_11720" x1="17.929" y1="3" x2="17.929" y2="33" gradientUnits="userSpaceOnUse">
<stop stop-color="#99CC67"/>
<stop offset="1" stop-color="#40B1B9"/>
</linearGradient>
<linearGradient id="paint1_linear_2115_11720" x1="17.929" y1="3" x2="17.929" y2="33" gradientUnits="userSpaceOnUse">
<stop stop-color="#99CC67"/>
<stop offset="1" stop-color="#40B1B9"/>
</linearGradient>
</defs>
</svg>
