<svg width="58" height="58" viewBox="0 0 58 58" fill="none" xmlns="http://www.w3.org/2000/svg">
<g clip-path="url(#clip0_15573_75042)">
<path d="M28.5233 37.3106C29.3403 37.3106 30.0211 36.6298 30.0211 35.8128V27.9149C30.0211 27.0979 29.3403 26.417 28.5233 26.417C27.7062 26.417 27.0254 27.0979 27.0254 27.9149V35.8128C27.0254 36.6298 27.7062 37.3106 28.5233 37.3106Z" fill="#999999"/>
<path d="M29.3403 38.6723C28.9318 38.5362 28.251 38.5362 27.8425 38.6723C27.5701 38.6723 27.434 38.9447 27.1616 39.0809C26.7531 39.4894 26.6169 39.8979 26.6169 40.4426C26.6169 40.9872 26.7531 41.5319 27.1616 41.8043C27.5701 42.0766 27.5701 42.0766 27.8425 42.2128C28.1148 42.2128 28.3872 42.3489 28.5233 42.3489C29.068 42.3489 29.4765 42.0766 29.885 41.8043C30.2935 41.3958 30.4297 40.9872 30.4297 40.4426C30.4297 39.8979 30.1574 39.4894 29.885 39.0809C29.6127 38.9447 29.4765 38.8085 29.2042 38.6723H29.3403Z" fill="#999999"/>
<path d="M17.085 47.5234H39.9616C41.5957 47.5234 43.0935 46.7064 43.9105 45.2085C44.8637 43.7106 44.8637 41.8042 43.9105 40.3064L32.4723 19.6085C31.6552 18.1106 30.1574 17.1574 28.3871 17.1574C26.6169 17.1574 25.2552 18.1106 24.302 19.6085L12.8637 40.3064C12.0467 41.8042 12.0467 43.7106 12.8637 45.2085C13.6808 46.7064 15.1786 47.5234 16.8127 47.5234H17.085ZM41.1871 43.5745C40.9148 44.1191 40.3701 44.3915 39.9616 44.3915H17.085C16.5403 44.3915 16.1318 44.1191 15.8595 43.5745C15.5871 43.0298 15.451 42.3489 15.8595 41.8042L27.2978 21.1064C27.5701 20.5617 28.1148 20.2894 28.6595 20.2894C29.2042 20.2894 29.7488 20.5617 30.0212 21.1064L41.4595 41.8042C41.7318 42.3489 41.7318 43.0298 41.4595 43.5745H41.1871Z" fill="#999999"/>
<path d="M10.685 6.26382C10.685 6.12765 10.5488 5.8553 10.2764 5.71913C9.5956 5.03828 8.37006 5.03828 7.68921 5.71913C7.55304 5.8553 7.41687 6.12765 7.2807 6.39999C7.2807 6.67233 7.14453 6.8085 7.14453 7.08084C7.14453 7.35318 7.14453 7.48935 7.2807 7.76169C7.2807 8.03403 7.55304 8.1702 7.68921 8.44254C8.09772 8.71488 8.50623 8.98722 8.91474 8.98722C9.32325 8.98722 9.86794 8.85105 10.2764 8.44254C10.685 8.03403 10.8211 7.62552 10.8211 7.08084C10.8211 6.53616 10.8211 6.67233 10.685 6.39999V6.26382Z" fill="#999999"/>
<path d="M53.034 0H4.96591C2.51484 0 0.199951 2.04255 0.199951 4.22128V52.4255C0.199951 55.4213 2.2425 57.6 4.96591 57.6H53.034C55.7574 57.6 57.7999 55.4213 57.7999 52.4255V4.22128C57.7999 2.04255 55.4851 0 53.034 0ZM54.668 10.6213C54.668 10.6213 54.668 10.8936 54.3957 10.8936H3.60421C3.60421 10.8936 3.33187 10.8936 3.33187 10.6213V4.22128C3.33187 3.81277 4.01272 3.13191 4.96591 3.13191H53.034C53.851 3.13191 54.5319 3.81277 54.668 4.08511V10.6213ZM3.33187 14.2979C3.33187 14.2979 3.33187 14.0255 3.60421 14.0255H54.3957C54.3957 14.0255 54.668 14.0255 54.668 14.2979V52.4255C54.668 53.6511 53.9872 54.4681 53.034 54.4681H4.96591C4.01272 54.4681 3.33187 53.6511 3.33187 52.4255V14.2979Z" fill="#999999"/>
<path d="M21.1702 5.71913C20.4894 5.03828 19.2639 5.03828 18.583 5.71913C18.4468 5.8553 18.3107 6.12765 18.1745 6.39999C18.1745 6.67233 18.0383 6.8085 18.0383 7.08084C18.0383 7.62552 18.1745 8.03403 18.583 8.44254C18.9915 8.85105 19.4 8.98722 19.9447 8.98722C20.4894 8.98722 20.3532 8.98722 20.6256 8.85105C20.8979 8.85105 21.0341 8.57871 21.3064 8.44254C21.5788 8.03403 21.8511 7.62552 21.8511 7.08084C21.8511 6.53616 21.8511 6.53616 21.7149 6.39999C21.7149 6.12765 21.4426 5.99148 21.3064 5.85531L21.1702 5.71913Z" fill="#999999"/>
<path d="M15.7235 5.71913C15.0426 5.03828 13.8171 5.03828 13.1362 5.71913C13.0001 5.99147 12.8639 6.12765 12.7277 6.26382C12.7277 6.53616 12.5916 6.67233 12.5916 6.94467C12.5916 7.48935 12.7277 7.89786 13.1362 8.30637C13.5447 8.71488 13.9533 8.85105 14.4979 8.85105C15.0426 8.85105 15.4511 8.71488 15.8596 8.30637C15.9958 8.1702 16.132 7.89786 16.2681 7.76169C16.2681 7.48935 16.4043 7.35318 16.4043 7.08084C16.4043 6.8085 16.4043 6.67233 16.2681 6.39999C16.2681 6.12765 15.9958 5.99147 15.8596 5.71913H15.7235Z" fill="#999999"/>
</g>
<defs>
<clipPath id="clip0_15573_75042">
<rect width="57.6" height="57.6" fill="white" transform="translate(0.199951)"/>
</clipPath>
</defs>
</svg>
