<svg width="36" height="36" viewBox="0 0 36 36" fill="none" xmlns="http://www.w3.org/2000/svg">
<path d="M23.3364 29.0186C22.6519 29.0186 22.092 28.4561 22.092 27.7686C22.092 26.3123 20.2067 25.0811 17.973 25.0811C15.7393 25.0811 13.854 26.3123 13.854 27.7686C13.854 28.4561 13.294 29.0186 12.6096 29.0186C11.9252 29.0186 11.3652 28.4561 11.3652 27.7686C11.3652 24.8623 14.2709 22.5811 17.973 22.5811C21.6751 22.5811 24.5808 24.8623 24.5808 27.7686C24.5808 28.4561 24.0208 29.0186 23.3364 29.0186Z" fill="url(#paint0_linear_2115_11717)"/>
<path d="M17.9667 20.8436C15.9694 20.8436 14.3455 19.2374 14.3455 17.2624C14.3455 15.2874 15.9694 13.6812 17.9667 13.6812C19.964 13.6812 21.5879 15.2874 21.5879 17.2624C21.5879 19.2374 19.964 20.8436 17.9667 20.8436ZM17.9667 16.1812C17.3445 16.1812 16.8343 16.6687 16.8343 17.2624C16.8343 17.8562 17.3445 18.3436 17.9667 18.3436C18.5889 18.3436 19.0991 17.8562 19.0991 17.2624C19.0991 16.6687 18.5889 16.1812 17.9667 16.1812Z" fill="url(#paint1_linear_2115_11717)"/>
<path d="M27.8287 33H8.11102C6.39374 33 5 31.6 5 29.875V8.00626C5 6.28126 6.39374 4.88126 8.11102 4.88126H27.8287C29.5459 4.88126 30.9397 6.28126 30.9397 8.00626V29.875C30.9397 31.6 29.5459 33 27.8287 33ZM8.11102 7.38126C7.76881 7.38126 7.48881 7.66251 7.48881 8.00626V29.875C7.48881 30.2188 7.76881 30.5 8.11102 30.5H27.8287C28.1709 30.5 28.4509 30.2188 28.4509 29.875V8.00626C28.4509 7.66251 28.1709 7.38126 27.8287 7.38126H8.11102Z" fill="url(#paint2_linear_2115_11717)"/>
<path d="M17.9666 7.38124C17.2822 7.38124 16.7222 6.81874 16.7222 6.13124V4.25C16.7222 3.5625 17.2822 3 17.9666 3C18.651 3 19.211 3.5625 19.211 4.25V6.13124C19.211 6.81874 18.651 7.38124 17.9666 7.38124Z" fill="url(#paint3_linear_2115_11717)"/>
<path d="M12.4104 11.6501C11.9437 11.6501 11.5144 11.3876 11.3028 10.9626L9.33046 7.05014C9.01936 6.43139 9.26823 5.68141 9.87799 5.36891C10.494 5.05641 11.2406 5.30014 11.5517 5.91889L13.1757 9.14389H22.7763L24.4002 5.91889C24.7113 5.30639 25.458 5.05641 26.074 5.36891C26.6899 5.68141 26.9326 6.43139 26.6215 7.05014L24.6491 10.9626C24.4376 11.3814 24.0082 11.6501 23.5416 11.6501H12.4104Z" fill="url(#paint4_linear_2115_11717)"/>
<defs>
<linearGradient id="paint0_linear_2115_11717" x1="17.9698" y1="3" x2="17.9698" y2="33" gradientUnits="userSpaceOnUse">
<stop stop-color="#99CC67"/>
<stop offset="1" stop-color="#40B1B9"/>
</linearGradient>
<linearGradient id="paint1_linear_2115_11717" x1="17.9698" y1="3" x2="17.9698" y2="33" gradientUnits="userSpaceOnUse">
<stop stop-color="#99CC67"/>
<stop offset="1" stop-color="#40B1B9"/>
</linearGradient>
<linearGradient id="paint2_linear_2115_11717" x1="17.9698" y1="3" x2="17.9698" y2="33" gradientUnits="userSpaceOnUse">
<stop stop-color="#99CC67"/>
<stop offset="1" stop-color="#40B1B9"/>
</linearGradient>
<linearGradient id="paint3_linear_2115_11717" x1="17.9698" y1="3" x2="17.9698" y2="33" gradientUnits="userSpaceOnUse">
<stop stop-color="#99CC67"/>
<stop offset="1" stop-color="#40B1B9"/>
</linearGradient>
<linearGradient id="paint4_linear_2115_11717" x1="17.9698" y1="3" x2="17.9698" y2="33" gradientUnits="userSpaceOnUse">
<stop stop-color="#99CC67"/>
<stop offset="1" stop-color="#40B1B9"/>
</linearGradient>
</defs>
</svg>
