<svg width="36" height="36" viewBox="0 0 36 36" fill="none" xmlns="http://www.w3.org/2000/svg">
<path d="M31.6214 33C30.9369 33 30.377 32.4375 30.377 31.75C30.377 25.525 24.7958 20.4625 17.9329 20.4625C11.07 20.4625 5.48881 25.525 5.48881 31.75C5.48881 32.4375 4.92883 33 4.24441 33C3.55998 33 3 32.4375 3 31.75C3 24.15 9.70113 17.9625 17.9329 17.9625C26.1646 17.9625 32.8658 24.1437 32.8658 31.75C32.8658 32.4375 32.3058 33 31.6214 33Z" fill="url(#paint0_linear_2115_11722)"/>
<path d="M17.9327 17.0625C13.9257 17.0625 10.6653 13.9062 10.6653 10.0312C10.6653 6.15625 13.9257 3 17.9327 3C21.9396 3 25.2 6.15625 25.2 10.0312C25.2 13.9062 21.9396 17.0625 17.9327 17.0625ZM17.9327 5.5C15.2945 5.5 13.1541 7.53125 13.1541 10.0312C13.1541 12.5312 15.3007 14.5625 17.9327 14.5625C20.5646 14.5625 22.7112 12.5312 22.7112 10.0312C22.7112 7.53125 20.5646 5.5 17.9327 5.5Z" fill="url(#paint1_linear_2115_11722)"/>
<path d="M21.3363 32.7436C20.6518 32.7436 20.0919 32.1811 20.0919 31.4936V23.6499C20.0919 22.9624 20.6518 22.3999 21.3363 22.3999C22.0207 22.3999 22.5807 22.9624 22.5807 23.6499V31.4936C22.5807 32.1811 22.0207 32.7436 21.3363 32.7436Z" fill="url(#paint2_linear_2115_11722)"/>
<path d="M25.3308 28.8249H17.3542C16.6697 28.8249 16.1098 28.2624 16.1098 27.5749C16.1098 26.8874 16.6697 26.3249 17.3542 26.3249H25.3308C26.0152 26.3249 26.5752 26.8874 26.5752 27.5749C26.5752 28.2624 26.0152 28.8249 25.3308 28.8249Z" fill="url(#paint3_linear_2115_11722)"/>
<defs>
<linearGradient id="paint0_linear_2115_11722" x1="17.9329" y1="3" x2="17.9329" y2="33" gradientUnits="userSpaceOnUse">
<stop stop-color="#99CC67"/>
<stop offset="1" stop-color="#40B1B9"/>
</linearGradient>
<linearGradient id="paint1_linear_2115_11722" x1="17.9329" y1="3" x2="17.9329" y2="33" gradientUnits="userSpaceOnUse">
<stop stop-color="#99CC67"/>
<stop offset="1" stop-color="#40B1B9"/>
</linearGradient>
<linearGradient id="paint2_linear_2115_11722" x1="17.9329" y1="3" x2="17.9329" y2="33" gradientUnits="userSpaceOnUse">
<stop stop-color="#99CC67"/>
<stop offset="1" stop-color="#40B1B9"/>
</linearGradient>
<linearGradient id="paint3_linear_2115_11722" x1="17.9329" y1="3" x2="17.9329" y2="33" gradientUnits="userSpaceOnUse">
<stop stop-color="#99CC67"/>
<stop offset="1" stop-color="#40B1B9"/>
</linearGradient>
</defs>
</svg>
