<svg width="36" height="36" viewBox="0 0 36 36" fill="none" xmlns="http://www.w3.org/2000/svg">
<path d="M31.6213 33H4.2444C3.55998 33 3 32.4375 3 31.75V4.25C3 3.5625 3.55998 3 4.2444 3H31.6213C32.3057 3 32.8657 3.5625 32.8657 4.25V31.75C32.8657 32.4375 32.3057 33 31.6213 33ZM5.48881 30.5H30.3769V5.49999H5.48881V30.5Z" fill="url(#paint0_linear_2115_11714)"/>
<path d="M23.6942 23.8622C23.2027 23.8622 22.7485 23.5685 22.5494 23.106L19.2081 15.2748L16.9682 22.2935C16.8002 22.831 16.2714 23.1811 15.7363 23.1623C15.1763 23.1436 14.7034 22.7498 14.5727 22.1998L13.0981 15.9435L11.0448 18.7373C10.8084 19.056 10.4413 19.2436 10.0431 19.2436H5.61926C4.93484 19.2436 4.37486 18.681 4.37486 17.9935C4.37486 17.306 4.93484 16.7435 5.61926 16.7435H9.40845L12.6812 12.2873C12.9675 11.8935 13.4528 11.706 13.9319 11.806C14.4047 11.906 14.7843 12.2685 14.8963 12.7435L15.9603 17.256L17.8517 11.331C18.0073 10.8372 18.4615 10.4873 18.9779 10.4623C19.4881 10.4498 19.9734 10.7373 20.1788 11.2185L23.2898 18.5123L23.632 16.8997C23.7564 16.3247 24.2604 15.9123 24.8515 15.9123H31.0362C31.7206 15.9123 32.2806 16.4748 32.2806 17.1623C32.2806 17.8498 31.7206 18.4123 31.0362 18.4123H25.8595L24.9075 22.8747C24.7955 23.4059 24.3475 23.806 23.8124 23.856C23.7751 23.856 23.7316 23.856 23.6942 23.856V23.8622Z" fill="url(#paint1_linear_2115_11714)"/>
<defs>
<linearGradient id="paint0_linear_2115_11714" x1="17.9328" y1="3" x2="17.9328" y2="33" gradientUnits="userSpaceOnUse">
<stop stop-color="#99CC67"/>
<stop offset="1" stop-color="#40B1B9"/>
</linearGradient>
<linearGradient id="paint1_linear_2115_11714" x1="17.9328" y1="3" x2="17.9328" y2="33" gradientUnits="userSpaceOnUse">
<stop stop-color="#99CC67"/>
<stop offset="1" stop-color="#40B1B9"/>
</linearGradient>
</defs>
</svg>
