<svg width="36" height="36" viewBox="0 0 36 36" fill="none" xmlns="http://www.w3.org/2000/svg">
<path d="M11.535 28.5524C10.4397 28.5524 9.41282 28.1211 8.63491 27.3459C7.04173 25.7393 7.04173 23.1263 8.63491 21.5259L21.6728 8.43572C21.903 8.19817 22.2204 8.06689 22.5503 8.06689C22.8801 8.06689 23.1975 8.19817 23.4278 8.43572L27.4543 12.4928C27.9397 12.9804 27.9397 13.7743 27.4543 14.2619L14.4164 27.3522C13.6447 28.1273 12.6178 28.5587 11.5225 28.5587L11.535 28.5524ZM22.5503 11.0863L10.3961 23.2888C9.76754 23.9202 9.76754 24.9454 10.3961 25.5705C11.006 26.1832 12.0577 26.1832 12.6676 25.5705L24.8218 13.3617L22.5503 11.0738V11.0863Z" fill="url(#paint0_linear_2115_11716)"/>
<path d="M4.24156 33.0094C3.92417 33.0094 3.60677 32.8844 3.36406 32.6406C2.87865 32.153 2.87865 31.3591 3.36406 30.8714L8.64144 25.5766C9.12686 25.089 9.91723 25.089 10.4027 25.5766C10.8881 26.0642 10.8881 26.8581 10.4027 27.3457L5.12526 32.6406C4.88255 32.8844 4.56516 33.0094 4.24777 33.0094H4.24156Z" fill="url(#paint1_linear_2115_11716)"/>
<path d="M28.1328 16.187C27.8154 16.187 27.4918 16.062 27.2491 15.8181L20.1233 8.64166C19.6379 8.15405 19.6379 7.36014 20.1233 6.87254C20.6088 6.38494 21.3991 6.38494 21.8845 6.87254L29.0103 14.049C29.4957 14.5366 29.4957 15.3305 29.0103 15.8181C28.7675 16.062 28.4502 16.1807 28.1328 16.1807V16.187Z" fill="url(#paint2_linear_2115_11716)"/>
<path d="M24.9528 12.205C24.6354 12.205 24.318 12.08 24.0753 11.8362C23.5899 11.3486 23.5899 10.5547 24.0753 10.0671L28.4192 5.70368C28.9046 5.21608 29.6949 5.21608 30.1804 5.70368C30.6658 6.19128 30.6658 6.9852 30.1804 7.4728L25.8365 11.8362C25.5938 12.08 25.2764 12.205 24.959 12.205H24.9528Z" fill="url(#paint3_linear_2115_11716)"/>
<path d="M31.624 10.1859C31.3066 10.1859 30.983 10.0608 30.7402 9.81704L26.0914 5.13482C25.606 4.64722 25.606 3.8533 26.0914 3.3657C26.5768 2.8781 27.3672 2.8781 27.8526 3.3657L32.5015 8.04793C32.9869 8.53553 32.9869 9.32944 32.5015 9.81704C32.2588 10.0608 31.9414 10.1796 31.624 10.1796V10.1859Z" fill="url(#paint4_linear_2115_11716)"/>
<path d="M18.2003 22.2635C17.8829 22.2635 17.5593 22.1385 17.3166 21.8947L13.676 18.2252C13.1906 17.7375 13.1906 16.9436 13.676 16.456C14.1614 15.9684 14.9518 15.9684 15.4372 16.456L19.0778 20.1255C19.5633 20.6131 19.5633 21.4071 19.0778 21.8947C18.8351 22.1385 18.5177 22.2572 18.2003 22.2572V22.2635Z" fill="url(#paint5_linear_2115_11716)"/>
<defs>
<linearGradient id="paint0_linear_2115_11716" x1="17.9328" y1="3" x2="17.9328" y2="33.0094" gradientUnits="userSpaceOnUse">
<stop stop-color="#99CC67"/>
<stop offset="1" stop-color="#40B1B9"/>
</linearGradient>
<linearGradient id="paint1_linear_2115_11716" x1="17.9328" y1="3" x2="17.9328" y2="33.0094" gradientUnits="userSpaceOnUse">
<stop stop-color="#99CC67"/>
<stop offset="1" stop-color="#40B1B9"/>
</linearGradient>
<linearGradient id="paint2_linear_2115_11716" x1="17.9328" y1="3" x2="17.9328" y2="33.0094" gradientUnits="userSpaceOnUse">
<stop stop-color="#99CC67"/>
<stop offset="1" stop-color="#40B1B9"/>
</linearGradient>
<linearGradient id="paint3_linear_2115_11716" x1="17.9328" y1="3" x2="17.9328" y2="33.0094" gradientUnits="userSpaceOnUse">
<stop stop-color="#99CC67"/>
<stop offset="1" stop-color="#40B1B9"/>
</linearGradient>
<linearGradient id="paint4_linear_2115_11716" x1="17.9328" y1="3" x2="17.9328" y2="33.0094" gradientUnits="userSpaceOnUse">
<stop stop-color="#99CC67"/>
<stop offset="1" stop-color="#40B1B9"/>
</linearGradient>
<linearGradient id="paint5_linear_2115_11716" x1="17.9328" y1="3" x2="17.9328" y2="33.0094" gradientUnits="userSpaceOnUse">
<stop stop-color="#99CC67"/>
<stop offset="1" stop-color="#40B1B9"/>
</linearGradient>
</defs>
</svg>
