<svg width="36" height="36" viewBox="0 0 36 36" fill="none" xmlns="http://www.w3.org/2000/svg">
<path d="M29.4437 33H18.1195C17.1862 33 16.3152 32.625 15.7552 31.875C15.1952 31.125 14.8841 30.25 15.0707 29.375L17.5596 13.8125C17.684 13.125 17.9951 12.5 18.5551 12L20.4839 10.25C20.6084 10.125 20.6706 9.9375 20.6706 9.8125V6.125C20.6706 5.4375 21.2306 4.875 21.915 4.875C22.5994 4.875 23.1594 5.4375 23.1594 6.125V9.75C23.1594 10.625 22.7861 11.5 22.1639 12.0625L20.235 13.8125C20.1106 13.9375 20.0484 14.0625 20.0484 14.1875L17.5596 29.75C17.5596 30 17.6218 30.1875 17.684 30.25C17.7462 30.3125 17.9329 30.5 18.1818 30.5H29.5059C29.7548 30.5 29.9414 30.375 30.0036 30.25C30.0659 30.1875 30.1903 30 30.1281 29.75L27.6393 14.1875C27.6393 14.0625 27.577 13.9375 27.4526 13.8125L25.5238 12.0625C24.9016 11.5 24.5282 10.625 24.5282 9.75V6.125C24.5282 5.4375 25.0882 4.875 25.7727 4.875C26.4571 4.875 27.0171 5.4375 27.0171 6.125V9.75C27.0171 9.9375 27.0793 10.125 27.2037 10.1875L29.1326 11.9375C29.6303 12.4375 30.0036 13.0625 30.1281 13.75L32.6169 29.3125C32.7413 30.1875 32.4925 31.125 31.9325 31.8125C31.3103 32.5 30.5014 32.9375 29.5681 32.9375L29.4437 33Z" fill="url(#paint0_linear_2115_11715)"/>
<path d="M9.53314 33C7.16876 33 5.23993 31.0625 5.23993 28.6875V4.25C5.23993 3.5625 5.79992 3 6.48434 3H12.6442C13.3286 3 13.8886 3.5625 13.8886 4.25V28.6875C13.8886 31.0625 11.9597 33 9.59536 33H9.53314ZM7.72875 5.5V28.6875C7.72875 29.6875 8.53761 30.5 9.53314 30.5C10.5287 30.5 11.3375 29.6875 11.3375 28.6875V5.5H7.72875Z" fill="url(#paint1_linear_2115_11715)"/>
<path d="M14.8841 5.5H4.24441C3.55998 5.5 3 4.9375 3 4.25C3 3.5625 3.55998 3 4.24441 3H14.8841C15.5685 3 16.1285 3.5625 16.1285 4.25C16.1285 4.9375 15.5685 5.5 14.8841 5.5Z" fill="url(#paint2_linear_2115_11715)"/>
<path d="M29.9414 22.5H18.1818C17.4973 22.5 16.9374 21.9375 16.9374 21.25C16.9374 20.5625 17.4973 20 18.1818 20H29.9414C30.6258 20 31.1858 20.5625 31.1858 21.25C31.1858 21.9375 30.6258 22.5 29.9414 22.5Z" fill="url(#paint3_linear_2115_11715)"/>
<path d="M27.6393 7.375H19.9239C19.2395 7.375 18.6795 6.8125 18.6795 6.125C18.6795 5.4375 19.2395 4.875 19.9239 4.875H27.6393C28.3237 4.875 28.8837 5.4375 28.8837 6.125C28.8837 6.8125 28.3237 7.375 27.6393 7.375Z" fill="url(#paint4_linear_2115_11715)"/>
<defs>
<linearGradient id="paint0_linear_2115_11715" x1="17.8241" y1="3" x2="17.8241" y2="33" gradientUnits="userSpaceOnUse">
<stop stop-color="#99CC67"/>
<stop offset="1" stop-color="#40B1B9"/>
</linearGradient>
<linearGradient id="paint1_linear_2115_11715" x1="17.8241" y1="3" x2="17.8241" y2="33" gradientUnits="userSpaceOnUse">
<stop stop-color="#99CC67"/>
<stop offset="1" stop-color="#40B1B9"/>
</linearGradient>
<linearGradient id="paint2_linear_2115_11715" x1="17.8241" y1="3" x2="17.8241" y2="33" gradientUnits="userSpaceOnUse">
<stop stop-color="#99CC67"/>
<stop offset="1" stop-color="#40B1B9"/>
</linearGradient>
<linearGradient id="paint3_linear_2115_11715" x1="17.8241" y1="3" x2="17.8241" y2="33" gradientUnits="userSpaceOnUse">
<stop stop-color="#99CC67"/>
<stop offset="1" stop-color="#40B1B9"/>
</linearGradient>
<linearGradient id="paint4_linear_2115_11715" x1="17.8241" y1="3" x2="17.8241" y2="33" gradientUnits="userSpaceOnUse">
<stop stop-color="#99CC67"/>
<stop offset="1" stop-color="#40B1B9"/>
</linearGradient>
</defs>
</svg>
