<svg width="36" height="36" viewBox="0 0 36 36" fill="none" xmlns="http://www.w3.org/2000/svg">
<path d="M17.933 33C17.6219 33 17.3108 32.875 17.0619 32.625C16.7508 32.3125 9.7199 25.5 6.73332 21.375C2.25345 15.25 1.75569 7.8125 5.61335 4.5C6.79554 3.5 8.28883 3 9.90656 3C12.5198 3 15.382 4.25 17.933 6.5625C20.484 4.25 23.3462 3 25.9594 3C28.5727 3 29.0704 3.5 30.2526 4.5C34.1103 7.8125 33.6125 15.1875 29.1327 21.375C26.1461 25.5 19.1152 32.3125 18.8041 32.625C18.5552 32.875 18.2441 33 17.933 33ZM9.90656 5.5C8.84881 5.5 7.91551 5.8125 7.16886 6.4375C4.36894 8.8125 5.11559 15 8.72437 19.9375C10.9643 23.0625 15.9419 28 17.933 30C19.924 28 24.8394 23.0625 27.1416 19.9375C30.7504 15 31.497 8.8125 28.6971 6.4375C27.9505 5.8125 27.0794 5.5 25.9594 5.5C23.7195 5.5 21.044 6.875 18.8041 9.125C18.3063 9.625 17.4974 9.625 17.0619 9.125C14.822 6.875 12.1465 5.5 9.90656 5.5Z" fill="url(#paint0_linear_2115_11710)"/>
<path d="M14.1997 24.4375H4.24441C3.55998 24.4375 3 23.875 3 23.1875C3 22.5 3.55998 21.9375 4.24441 21.9375H13.2664L14.9463 15.4375C15.0708 14.9375 15.5063 14.5625 16.0041 14.5C16.5018 14.5 16.9996 14.6875 17.2485 15.1875L20.1728 20.75H30.3147C30.9992 20.75 31.5591 21.375 31.5591 22.0625C31.5591 22.75 30.9992 23.3125 30.3147 23.3125H19.364C18.9284 23.3125 18.4929 23 18.244 22.5625L16.5018 19.1875L15.3819 23.5C15.2574 24.0625 14.7596 24.4375 14.1997 24.4375Z" fill="url(#paint1_linear_2115_11710)"/>
<defs>
<linearGradient id="paint0_linear_2115_11710" x1="17.9243" y1="3" x2="17.9243" y2="33" gradientUnits="userSpaceOnUse">
<stop stop-color="#99CC67"/>
<stop offset="1" stop-color="#40B1B9"/>
</linearGradient>
<linearGradient id="paint1_linear_2115_11710" x1="17.9243" y1="3" x2="17.9243" y2="33" gradientUnits="userSpaceOnUse">
<stop stop-color="#99CC67"/>
<stop offset="1" stop-color="#40B1B9"/>
</linearGradient>
</defs>
</svg>
