<svg width="36" height="36" viewBox="0 0 36 36" fill="none" xmlns="http://www.w3.org/2000/svg">
<path d="M17.7335 28.6304C17.0489 28.6304 16.4888 28.0678 16.4888 27.3801V19.366C16.4888 18.6783 17.0489 18.1157 17.7335 18.1157C18.4181 18.1157 18.9782 18.6783 18.9782 19.366V27.3801C18.9782 28.0678 18.4181 28.6304 17.7335 28.6304Z" fill="url(#paint0_linear_2115_11718)"/>
<path d="M21.7226 24.6171H13.7442C13.0597 24.6171 12.4996 24.0545 12.4996 23.3668C12.4996 22.6792 13.0597 22.1166 13.7442 22.1166H21.7226C22.4071 22.1166 22.9672 22.6792 22.9672 23.3668C22.9672 24.0545 22.4071 24.6171 21.7226 24.6171Z" fill="url(#paint1_linear_2115_11718)"/>
<path d="M21.8658 9.77643H13.595C12.9104 9.77643 12.3503 9.21381 12.3503 8.52617V4.25026C12.3503 3.56262 12.9104 3 13.595 3H21.8658C22.5504 3 23.1105 3.56262 23.1105 4.25026V8.52617C23.1105 9.21381 22.5504 9.77643 21.8658 9.77643ZM14.8397 7.27591H20.6211V5.50052H14.8397V7.27591Z" fill="url(#paint2_linear_2115_11718)"/>
<path d="M26.2281 33H9.24467C8.5601 33 8 32.4374 8 31.7497V21.6476C8 19.0846 9.45004 17.1217 12.4186 15.6651V12.5895C12.4186 11.9019 12.9787 11.3393 13.6632 11.3393H21.8096C22.4941 11.3393 23.0542 11.9019 23.0542 12.5895V15.6651C26.0228 17.1217 27.4728 19.0846 27.4728 21.6476V31.7497C27.4728 32.4374 26.9127 33 26.2281 33ZM10.4893 30.4995H24.9835V21.6476C24.9835 20.4974 24.5665 19.0033 21.3242 17.6218C20.8636 17.428 20.5649 16.9717 20.5649 16.4716V13.846H14.9079V16.4716C14.9079 16.9717 14.6092 17.428 14.1487 17.6218C10.9063 19.0033 10.4893 20.5036 10.4893 21.6476V30.4995Z" fill="url(#paint3_linear_2115_11718)"/>
<defs>
<linearGradient id="paint0_linear_2115_11718" x1="17.7364" y1="3" x2="17.7364" y2="33" gradientUnits="userSpaceOnUse">
<stop stop-color="#99CC67"/>
<stop offset="1" stop-color="#40B1B9"/>
</linearGradient>
<linearGradient id="paint1_linear_2115_11718" x1="17.7364" y1="3" x2="17.7364" y2="33" gradientUnits="userSpaceOnUse">
<stop stop-color="#99CC67"/>
<stop offset="1" stop-color="#40B1B9"/>
</linearGradient>
<linearGradient id="paint2_linear_2115_11718" x1="17.7364" y1="3" x2="17.7364" y2="33" gradientUnits="userSpaceOnUse">
<stop stop-color="#99CC67"/>
<stop offset="1" stop-color="#40B1B9"/>
</linearGradient>
<linearGradient id="paint3_linear_2115_11718" x1="17.7364" y1="3" x2="17.7364" y2="33" gradientUnits="userSpaceOnUse">
<stop stop-color="#99CC67"/>
<stop offset="1" stop-color="#40B1B9"/>
</linearGradient>
</defs>
</svg>
