<svg width="36" height="36" viewBox="0 0 36 36" fill="none" xmlns="http://www.w3.org/2000/svg">
<path d="M24.2006 32.7931H11.7188C10.2358 32.7931 9 31.6759 9 30.3103V12.7448C9 11.8138 9.55612 10.8828 10.4212 10.3862L13.2018 8.83448C13.3254 8.83448 13.3254 8.71035 13.3254 8.71035V5.73103C13.3872 4.24138 14.6848 3 16.3532 3H19.6281C21.2347 3 22.5941 4.24138 22.5941 5.73103V8.77241C22.5941 8.77241 22.5941 8.89655 22.7177 8.89655L25.4983 10.4483C26.3633 10.9448 26.9195 11.8138 26.9195 12.8069V30.3103C26.9195 31.6759 25.6836 32.7931 24.2006 32.7931ZM11.4717 30.2483C11.4717 30.2483 11.5952 30.3103 11.7188 30.3103H24.2006C24.3242 30.3103 24.386 30.3103 24.4478 30.2483V12.7448C24.4478 12.7448 24.4478 12.6207 24.3242 12.6207L21.5436 11.069C20.6785 10.5724 20.1224 9.70345 20.1224 8.71035V5.73103C20.1224 5.73103 19.9371 5.48276 19.6281 5.48276H16.3532C16.0442 5.48276 15.8588 5.66897 15.8588 5.73103V8.77241C15.8588 9.70345 15.3027 10.6345 14.4376 11.131L11.657 12.6828C11.5334 12.6828 11.5334 12.8069 11.5334 12.8069V30.3103L11.4717 30.2483Z" fill="url(#paint0_linear_2115_11721)"/>
<path d="M21.2965 25.7793H14.314C13.6343 25.7793 13.0782 25.2207 13.0782 24.5379V17.5241C13.0782 16.8414 13.6343 16.2828 14.314 16.2828H21.2965C21.9762 16.2828 22.5323 16.8414 22.5323 17.5241V24.5379C22.5323 25.2207 21.9762 25.7793 21.2965 25.7793ZM15.5499 23.2966H20.0606V18.7655H15.5499V23.2966Z" fill="url(#paint1_linear_2115_11721)"/>
<defs>
<linearGradient id="paint0_linear_2115_11721" x1="17.9597" y1="3" x2="17.9597" y2="32.7931" gradientUnits="userSpaceOnUse">
<stop stop-color="#99CC67"/>
<stop offset="1" stop-color="#40B1B9"/>
</linearGradient>
<linearGradient id="paint1_linear_2115_11721" x1="17.9597" y1="3" x2="17.9597" y2="32.7931" gradientUnits="userSpaceOnUse">
<stop stop-color="#99CC67"/>
<stop offset="1" stop-color="#40B1B9"/>
</linearGradient>
</defs>
</svg>
