<svg width="36" height="36" viewBox="0 0 36 36" fill="none" xmlns="http://www.w3.org/2000/svg">
<path d="M23.672 32.8753C22.3681 32.8753 21.0642 32.501 19.9466 31.815L6.47282 23.4574C3.182 21.4615 2.00227 17.158 3.92709 13.9148L4.17545 13.4782C5.35518 11.42 7.52837 10.2349 9.94991 10.2349C12.3715 10.2349 12.5577 10.6091 13.6754 11.2952L27.1491 19.5904C30.4399 21.6486 31.6197 25.9522 29.6949 29.1954L29.4465 29.632C28.2668 31.6902 26.0936 32.8753 23.672 32.8753ZM9.94991 12.6674C8.39764 12.6674 7.09373 13.4158 6.28655 14.7256L6.03818 15.1622C4.79636 17.2204 5.60354 20.027 7.77673 21.3368L21.2505 29.632C21.9956 30.0686 22.8648 30.3181 23.7341 30.3181C25.2864 30.3181 26.5903 29.5696 27.3975 28.2599L27.6459 27.8233C28.8877 25.7651 28.0805 22.9584 25.9073 21.6486L12.4336 13.4158C11.6885 12.9792 10.8192 12.7297 9.94991 12.7297V12.6674Z" fill="url(#paint0_linear_2115_11719)"/>
<path d="M13.8616 27.8233C13.6754 27.8233 13.427 27.8233 13.2407 27.6362C12.6198 27.262 12.4335 26.5135 12.8061 25.9522L18.7668 15.8482C19.1394 15.2245 19.8845 15.0374 20.4433 15.4116C21.0642 15.7859 21.2505 16.5343 20.8779 17.0956L14.9172 27.1996C14.6688 27.5738 14.2963 27.8233 13.8616 27.8233Z" fill="url(#paint1_linear_2115_11719)"/>
<path d="M26.0315 16.5343H25.9073C24.1067 16.5343 22.4302 15.7235 21.1884 14.4137C19.9466 13.104 19.3256 11.42 19.3877 9.61123C19.5119 5.99376 22.6165 3 26.2177 3H26.3419C28.1426 3 29.819 3.81081 31.0608 5.12058C32.3027 6.43035 32.9236 8.11435 32.8615 9.92308C32.7373 13.5405 29.6327 16.5343 26.0315 16.5343ZM26.2177 5.4948C23.9204 5.4948 21.9335 7.3659 21.8714 9.6736C21.8714 10.7963 22.2439 11.8565 22.989 12.6674C23.7962 13.4782 24.8517 13.9771 25.9694 13.9771H26.0315C28.3288 13.9771 30.3158 12.106 30.3778 9.79834C30.3778 8.67568 30.0053 7.61539 29.2602 6.80457C28.453 5.99376 27.3975 5.4948 26.2798 5.4948H26.2177Z" fill="url(#paint2_linear_2115_11719)"/>
<path d="M31.6197 11.1081L20.5675 10.8586C19.8845 10.8586 19.3256 10.2973 19.3256 9.61123C19.3256 8.92516 19.8845 8.36383 20.5675 8.36383L31.6197 8.61331C32.3027 8.61331 32.8615 9.17464 32.8615 9.86071C32.8615 10.5468 32.3027 11.1081 31.6197 11.1081Z" fill="url(#paint3_linear_2115_11719)"/>
<defs>
<linearGradient id="paint0_linear_2115_11719" x1="17.9329" y1="3" x2="17.9329" y2="32.8753" gradientUnits="userSpaceOnUse">
<stop stop-color="#99CC67"/>
<stop offset="1" stop-color="#40B1B9"/>
</linearGradient>
<linearGradient id="paint1_linear_2115_11719" x1="17.9329" y1="3" x2="17.9329" y2="32.8753" gradientUnits="userSpaceOnUse">
<stop stop-color="#99CC67"/>
<stop offset="1" stop-color="#40B1B9"/>
</linearGradient>
<linearGradient id="paint2_linear_2115_11719" x1="17.9329" y1="3" x2="17.9329" y2="32.8753" gradientUnits="userSpaceOnUse">
<stop stop-color="#99CC67"/>
<stop offset="1" stop-color="#40B1B9"/>
</linearGradient>
<linearGradient id="paint3_linear_2115_11719" x1="17.9329" y1="3" x2="17.9329" y2="32.8753" gradientUnits="userSpaceOnUse">
<stop stop-color="#99CC67"/>
<stop offset="1" stop-color="#40B1B9"/>
</linearGradient>
</defs>
</svg>
