<svg width="36" height="36" viewBox="0 0 36 36" fill="none" xmlns="http://www.w3.org/2000/svg">
<path d="M22.8579 29.7819C20.7738 29.7819 19.0816 28.0821 19.0816 25.9886C19.0816 23.8951 20.7738 22.1953 22.8579 22.1953C24.942 22.1953 26.6342 23.8951 26.6342 25.9886C26.6342 28.0821 24.942 29.7819 22.8579 29.7819ZM22.8579 24.695C22.1487 24.695 21.5701 25.2762 21.5701 25.9886C21.5701 26.701 22.1487 27.2822 22.8579 27.2822C23.5671 27.2822 24.1457 26.701 24.1457 25.9886C24.1457 25.2762 23.5671 24.695 22.8579 24.695Z" fill="url(#paint0_linear_2115_11712)"/>
<path d="M9.79965 29.7819C7.71552 29.7819 6.02334 28.0821 6.02334 25.9886C6.02334 23.8951 7.71552 22.1953 9.79965 22.1953C11.8838 22.1953 13.576 23.8951 13.576 25.9886C13.576 28.0821 11.8838 29.7819 9.79965 29.7819ZM9.79965 24.695C9.09042 24.695 8.51185 25.2762 8.51185 25.9886C8.51185 26.701 9.09042 27.2822 9.79965 27.2822C10.5089 27.2822 11.0875 26.701 11.0875 25.9886C11.0875 25.2762 10.5089 24.695 9.79965 24.695Z" fill="url(#paint1_linear_2115_11712)"/>
<path d="M29.204 12.6091H4.24425C3.55991 12.6091 3 12.0467 3 11.3593C3 10.6719 3.55991 10.1094 4.24425 10.1094H28.4948L30.5478 6.61614C30.8962 6.02246 31.6614 5.82247 32.2524 6.17243C32.8434 6.52239 33.0425 7.29104 32.6941 7.88471L30.2803 11.9905C30.0563 12.3717 29.6519 12.6029 29.2102 12.6029L29.204 12.6091Z" fill="url(#paint2_linear_2115_11712)"/>
<path d="M11.218 24.4076C10.9194 24.4076 10.627 24.3013 10.3843 24.0889C9.87418 23.6264 9.83064 22.839 10.291 22.3266L20.8361 10.528C21.2964 10.0156 22.0803 9.97186 22.5905 10.4343C23.1006 10.8967 23.1441 11.6842 22.6838 12.1966L12.1387 23.9951C11.8961 24.2701 11.5539 24.4076 11.2118 24.4076H11.218Z" fill="url(#paint3_linear_2115_11712)"/>
<path d="M21.763 24.4076C21.4209 24.4076 21.0849 24.2701 20.8361 23.9951L10.291 12.1966C9.83064 11.6842 9.87418 10.8905 10.3843 10.4343C10.8945 9.97186 11.6784 10.0156 12.1387 10.528L22.6838 22.3266C23.1441 22.839 23.1006 23.6327 22.5905 24.0889C22.354 24.3013 22.0554 24.4076 21.7568 24.4076H21.763Z" fill="url(#paint4_linear_2115_11712)"/>
<path d="M26.4728 9.2033H23.4493C22.7649 9.2033 22.205 8.64087 22.205 7.95346C22.205 7.26604 22.7649 6.70361 23.4493 6.70361H26.4728C27.1572 6.70361 27.7171 7.26604 27.7171 7.95346C27.7171 8.64087 27.1572 9.2033 26.4728 9.2033Z" fill="url(#paint5_linear_2115_11712)"/>
<defs>
<linearGradient id="paint0_linear_2115_11712" x1="17.9329" y1="6" x2="17.9329" y2="29.7819" gradientUnits="userSpaceOnUse">
<stop stop-color="#99CC67"/>
<stop offset="1" stop-color="#40B1B9"/>
</linearGradient>
<linearGradient id="paint1_linear_2115_11712" x1="17.9329" y1="6" x2="17.9329" y2="29.7819" gradientUnits="userSpaceOnUse">
<stop stop-color="#99CC67"/>
<stop offset="1" stop-color="#40B1B9"/>
</linearGradient>
<linearGradient id="paint2_linear_2115_11712" x1="17.9329" y1="6" x2="17.9329" y2="29.7819" gradientUnits="userSpaceOnUse">
<stop stop-color="#99CC67"/>
<stop offset="1" stop-color="#40B1B9"/>
</linearGradient>
<linearGradient id="paint3_linear_2115_11712" x1="17.9329" y1="6" x2="17.9329" y2="29.7819" gradientUnits="userSpaceOnUse">
<stop stop-color="#99CC67"/>
<stop offset="1" stop-color="#40B1B9"/>
</linearGradient>
<linearGradient id="paint4_linear_2115_11712" x1="17.9329" y1="6" x2="17.9329" y2="29.7819" gradientUnits="userSpaceOnUse">
<stop stop-color="#99CC67"/>
<stop offset="1" stop-color="#40B1B9"/>
</linearGradient>
<linearGradient id="paint5_linear_2115_11712" x1="17.9329" y1="6" x2="17.9329" y2="29.7819" gradientUnits="userSpaceOnUse">
<stop stop-color="#99CC67"/>
<stop offset="1" stop-color="#40B1B9"/>
</linearGradient>
</defs>
</svg>
