<svg width="36" height="36" viewBox="0 0 36 36" fill="none" xmlns="http://www.w3.org/2000/svg">
<path d="M24.152 18.3331C22.4849 18.3331 20.9789 17.4428 20.198 16.011L16.0829 9.4308C16.0829 9.4308 16.0519 9.38099 16.0395 9.34987C15.3392 8.01764 15.3826 6.44885 16.1572 5.1602C16.9691 3.8093 18.4131 3 20.0183 3C20.7 3 21.2578 3.56028 21.2578 4.24507C21.2578 4.92986 20.7 5.49014 20.0183 5.49014C19.287 5.49014 18.6424 5.84499 18.283 6.44262C17.9607 6.978 17.9359 7.59431 18.2148 8.14837L22.3238 14.7223C22.3238 14.7223 22.3548 14.7784 22.3672 14.8033C22.7142 15.4569 23.3773 15.8429 24.152 15.8429H24.1644C24.9453 15.8429 25.6084 15.4383 25.9493 14.7784C25.9617 14.7535 25.9803 14.7224 25.9927 14.6974L30.0024 8.1297C30.2689 7.57564 30.238 6.96555 29.9219 6.4364C29.5625 5.84499 28.9179 5.49014 28.1928 5.49014C27.5111 5.49014 26.9533 4.92986 26.9533 4.24507C26.9533 3.56028 27.5111 3 28.1928 3C29.7855 3 31.2296 3.79685 32.0415 5.1353C32.8161 6.4115 32.8781 7.97406 32.1964 9.30006C32.184 9.33119 32.1654 9.35609 32.153 9.38099L28.137 15.9612C27.3747 17.4117 25.8626 18.3206 24.1892 18.3331H24.152Z" fill="url(#paint0_linear_2115_11711)"/>
<path d="M20.0369 30.8709C17.0621 30.8709 14.7195 29.0843 14.6079 26.7747C14.6079 26.7435 14.6079 26.7062 14.6079 26.6751V16.6211C14.6079 15.7807 13.3932 14.8469 11.6579 14.8469C9.92259 14.8469 8.70788 15.7807 8.70788 16.6211V24.5647C8.70788 25.2494 8.1501 25.8097 7.46838 25.8097C6.78665 25.8097 6.22888 25.2494 6.22888 24.5647V16.6211C6.22888 14.2306 8.61492 12.3567 11.6579 12.3567C14.7009 12.3567 17.0869 14.2306 17.0869 16.6211V26.6066C17.0869 27.447 18.3016 28.3808 20.0369 28.3808C21.7722 28.3808 22.987 27.447 22.987 26.6066V17.1876C22.987 16.5028 23.5447 15.9425 24.2265 15.9425C24.9082 15.9425 25.466 16.5028 25.466 17.1876V26.6066C25.466 28.9971 23.0799 30.8709 20.0369 30.8709Z" fill="url(#paint1_linear_2115_11711)"/>
<path d="M7.59233 33C5.05755 33 3 30.9892 3 28.524C3 26.0587 5.05755 24.0479 7.59233 24.0479C10.1271 24.0479 12.1847 26.0587 12.1847 28.524C12.1847 30.9892 10.1271 33 7.59233 33ZM7.59233 26.5381C6.4272 26.5381 5.479 27.4283 5.479 28.524C5.479 29.6196 6.4272 30.5099 7.59233 30.5099C8.75747 30.5099 9.70567 29.6196 9.70567 28.524C9.70567 27.4283 8.75747 26.5381 7.59233 26.5381Z" fill="url(#paint2_linear_2115_11711)"/>
<defs>
<linearGradient id="paint0_linear_2115_11711" x1="17.8341" y1="3" x2="17.8341" y2="33" gradientUnits="userSpaceOnUse">
<stop stop-color="#99CC67"/>
<stop offset="1" stop-color="#40B1B9"/>
</linearGradient>
<linearGradient id="paint1_linear_2115_11711" x1="17.8341" y1="3" x2="17.8341" y2="33" gradientUnits="userSpaceOnUse">
<stop stop-color="#99CC67"/>
<stop offset="1" stop-color="#40B1B9"/>
</linearGradient>
<linearGradient id="paint2_linear_2115_11711" x1="17.8341" y1="3" x2="17.8341" y2="33" gradientUnits="userSpaceOnUse">
<stop stop-color="#99CC67"/>
<stop offset="1" stop-color="#40B1B9"/>
</linearGradient>
</defs>
</svg>
