<svg width="36" height="36" viewBox="0 0 36 36" fill="none" xmlns="http://www.w3.org/2000/svg">
<path d="M25.8286 33H6.11102C4.39374 33 3 31.6 3 29.875V8.63125C3 6.90625 4.39374 5.50625 6.11102 5.50625H25.8286C27.5459 5.50625 28.9397 6.90625 28.9397 8.63125V29.875C28.9397 31.6 27.5459 33 25.8286 33ZM6.11102 8.00625C5.76881 8.00625 5.48881 8.2875 5.48881 8.63125V29.875C5.48881 30.2187 5.76881 30.5 6.11102 30.5H25.8286C26.1709 30.5 26.4509 30.2187 26.4509 29.875V8.63125C26.4509 8.2875 26.1709 8.00625 25.8286 8.00625H6.11102Z" fill="url(#paint0_linear_2115_11709)"/>
<path d="M15.9729 8.00625C15.2885 8.00625 14.7285 7.44375 14.7285 6.75625V4.25C14.7285 3.5625 15.2885 3 15.9729 3C16.6574 3 17.2174 3.5625 17.2174 4.25V6.75625C17.2174 7.44375 16.6574 8.00625 15.9729 8.00625Z" fill="url(#paint1_linear_2115_11709)"/>
<path d="M21.7906 18.65H10.4976C9.81313 18.65 9.25315 18.0875 9.25315 17.4C9.25315 16.7125 9.81313 16.15 10.4976 16.15H21.7906C22.475 16.15 23.035 16.7125 23.035 17.4C23.035 18.0875 22.475 18.65 21.7906 18.65Z" fill="url(#paint2_linear_2115_11709)"/>
<path d="M21.5354 12.275H10.4042C9.93757 12.275 9.50825 12.0125 9.2967 11.5875L7.32432 7.675C7.01321 7.05625 7.26209 6.30625 7.87185 5.99375C8.48161 5.68125 9.23448 5.925 9.54558 6.54375L11.1695 9.76875H20.7701L22.3941 6.54375C22.7052 5.93125 23.4518 5.68125 24.0678 5.99375C24.6838 6.30625 24.9265 7.05625 24.6154 7.675L22.643 11.5875C22.4314 12.0062 22.0021 12.275 21.5354 12.275Z" fill="url(#paint3_linear_2115_11709)"/>
<path d="M18.6982 28.4813C18.3311 28.4813 17.9889 28.3188 17.7524 28.0375L15.021 24.8063C14.5792 24.2813 14.6414 23.4938 15.1641 23.0438C15.6867 22.5938 16.4707 22.6625 16.9187 23.1875L18.6609 25.25C20.7764 22.65 26.034 16.825 31.3912 15.8062C32.0631 15.6812 32.7164 16.125 32.8471 16.8C32.9778 17.4813 32.5298 18.1313 31.8578 18.2625C26.034 19.3688 19.7746 27.8813 19.7124 27.9625C19.4884 28.2688 19.1337 28.4625 18.7542 28.475C18.7418 28.475 18.7231 28.475 18.7106 28.475L18.6982 28.4813Z" fill="url(#paint4_linear_2115_11709)"/>
<defs>
<linearGradient id="paint0_linear_2115_11709" x1="17.9349" y1="3" x2="17.9349" y2="33" gradientUnits="userSpaceOnUse">
<stop stop-color="#99CC67"/>
<stop offset="1" stop-color="#40B1B9"/>
</linearGradient>
<linearGradient id="paint1_linear_2115_11709" x1="17.9349" y1="3" x2="17.9349" y2="33" gradientUnits="userSpaceOnUse">
<stop stop-color="#99CC67"/>
<stop offset="1" stop-color="#40B1B9"/>
</linearGradient>
<linearGradient id="paint2_linear_2115_11709" x1="17.9349" y1="3" x2="17.9349" y2="33" gradientUnits="userSpaceOnUse">
<stop stop-color="#99CC67"/>
<stop offset="1" stop-color="#40B1B9"/>
</linearGradient>
<linearGradient id="paint3_linear_2115_11709" x1="17.9349" y1="3" x2="17.9349" y2="33" gradientUnits="userSpaceOnUse">
<stop stop-color="#99CC67"/>
<stop offset="1" stop-color="#40B1B9"/>
</linearGradient>
<linearGradient id="paint4_linear_2115_11709" x1="17.9349" y1="3" x2="17.9349" y2="33" gradientUnits="userSpaceOnUse">
<stop stop-color="#99CC67"/>
<stop offset="1" stop-color="#40B1B9"/>
</linearGradient>
</defs>
</svg>
