<svg width="36" height="36" viewBox="0 0 36 36" fill="none" xmlns="http://www.w3.org/2000/svg">
<path d="M13.7216 33C13.1308 33 12.5399 32.6223 12.2713 32.0288L10.445 28.5755C9.47812 29.1151 8.29638 29.5468 7.38321 28.6295C6.47005 27.7122 6.89978 26.5252 7.43693 25.554L3.99914 23.7194C3.19341 23.3417 2.8174 22.5324 3.08598 21.723C3.46199 20.6978 4.96602 19.7266 6.25519 20.1043L10.8747 21.1295L15.548 15.7878L4.85859 10.3921C4.05286 9.96043 3.78428 9.04317 4.16029 8.17986C4.64373 6.99281 6.25519 5.96763 7.70551 6.29137L22.2087 8.5036L25.6465 4.78058C26.3985 3.97122 27.9025 3 29.4603 3C30.4271 3 31.2329 3.32374 31.9312 3.97122C32.5757 4.6187 32.898 5.48201 32.898 6.39928C32.898 7.96403 31.9312 9.42086 31.1254 10.2302L27.4191 13.6835L29.6214 28.2518C29.9437 29.7086 28.9231 31.3273 27.7414 31.8129C26.8819 32.1906 25.9688 31.8669 25.539 31.1115C25.539 31.0576 20.2749 20.3201 20.2749 20.3201L14.9571 25.0144L15.9777 29.7086C16.3 30.9496 15.3331 32.5144 14.3125 32.8381C14.1514 32.8921 13.9365 32.946 13.7753 32.946L13.7216 33ZM20.9195 16.705L27.2042 29.3849C27.3116 29.1691 27.4191 28.9532 27.3653 28.7914V28.6835L24.9482 12.8201L29.514 8.55755C29.9974 8.07194 30.5346 7.15468 30.5883 6.39928C30.5883 6.07554 30.4808 5.80576 30.266 5.58993C30.0511 5.3741 29.7825 5.26619 29.4603 5.26619C28.7082 5.26619 27.7951 5.80576 27.3116 6.34532L23.0681 10.9317L7.16835 8.5036C7.00721 8.5036 6.79235 8.5036 6.57748 8.66547L19.2006 14.9784L11.6804 23.6115L6.57748 22.4784L10.7673 24.6906L10.0153 25.7698C9.85412 25.9856 9.74669 26.1475 9.63926 26.3094C9.80041 26.2014 9.96155 26.0935 10.1764 25.9317L11.2507 25.1763L13.4531 29.3849L12.325 24.205L20.9195 16.6511V16.705Z" fill="url(#paint0_linear_2115_11723)"/>
<defs>
<linearGradient id="paint0_linear_2115_11723" x1="17.949" y1="3" x2="17.949" y2="33" gradientUnits="userSpaceOnUse">
<stop stop-color="#99CC67"/>
<stop offset="1" stop-color="#40B1B9"/>
</linearGradient>
</defs>
</svg>
