<svg width="36" height="37" viewBox="0 0 36 37" fill="none" xmlns="http://www.w3.org/2000/svg">
<path fill-rule="evenodd" clip-rule="evenodd" d="M27.2996 20.9375C26.813 20.9375 26.4371 21.3328 26.4371 21.7625C26.4371 22.1922 26.813 22.5875 27.2996 22.5875C27.7963 22.5875 28.1621 22.2199 28.1621 21.7625C28.1621 21.3328 27.7862 20.9375 27.2996 20.9375ZM25.3121 21.7625C25.3121 20.6922 26.2112 19.8125 27.2996 19.8125C28.388 19.8125 29.2871 20.6922 29.2871 21.7625C29.2871 22.8801 28.378 23.7125 27.2996 23.7125C26.2112 23.7125 25.3121 22.8328 25.3121 21.7625ZM21.1496 20.9375C20.663 20.9375 20.2871 21.3329 20.2871 21.7625C20.2871 22.1922 20.663 22.5875 21.1496 22.5875C21.6463 22.5875 22.0121 22.2199 22.0121 21.7625C22.0121 21.3329 21.6362 20.9375 21.1496 20.9375ZM19.1621 21.7625C19.1621 20.6922 20.0612 19.8125 21.1496 19.8125C22.238 19.8125 23.1371 20.6922 23.1371 21.7625C23.1371 22.8801 22.2279 23.7125 21.1496 23.7125C20.0612 23.7125 19.1621 22.8329 19.1621 21.7625ZM21.1231 25.3272C21.184 25.0226 21.4803 24.825 21.785 24.886C23.3996 25.2089 25.0497 25.2089 26.6643 24.886C26.969 24.825 27.2653 25.0226 27.3262 25.3272C27.3872 25.6318 27.1896 25.9282 26.885 25.9891C25.1246 26.3412 23.3247 26.3412 21.5643 25.9891C21.2597 25.9282 21.0621 25.6318 21.1231 25.3272Z" fill="url(#paint0_linear_19587_5308)"/>
<path fill-rule="evenodd" clip-rule="evenodd" d="M4.29966 6.3125C3.91151 6.3125 3.5625 6.62889 3.5625 7.1421V16.5842C3.5625 17.0974 3.91151 17.4138 4.29966 17.4138H8.73913C8.88164 17.4138 9.01885 17.4679 9.12301 17.5652L13.5571 21.7052V17.9763C13.5571 17.6657 13.8089 17.4138 14.1196 17.4138H18.2003C18.5885 17.4138 18.9375 17.0974 18.9375 16.5842V7.1421C18.9375 6.62889 18.5885 6.3125 18.2003 6.3125H4.29966ZM2.4375 7.1421C2.4375 6.08163 3.21863 5.1875 4.29966 5.1875H18.2003C19.2814 5.1875 20.0625 6.08163 20.0625 7.1421V16.5842C20.0625 17.6447 19.2814 18.5388 18.2003 18.5388H14.6821V23C14.6821 23.224 14.5492 23.4267 14.3437 23.5159C14.1382 23.6052 13.8994 23.564 13.7357 23.4111L8.51735 18.5388H4.29966C3.21863 18.5388 2.4375 17.6447 2.4375 16.5842V7.1421ZM5.8125 10.25C5.8125 9.93934 6.06434 9.6875 6.375 9.6875H16.125C16.4357 9.6875 16.6875 9.93934 16.6875 10.25C16.6875 10.5607 16.4357 10.8125 16.125 10.8125H6.375C6.06434 10.8125 5.8125 10.5607 5.8125 10.25ZM5.8125 14C5.8125 13.6893 6.06434 13.4375 6.375 13.4375H16.125C16.4357 13.4375 16.6875 13.6893 16.6875 14C16.6875 14.3107 16.4357 14.5625 16.125 14.5625H6.375C6.06434 14.5625 5.8125 14.3107 5.8125 14Z" fill="url(#paint1_linear_19587_5308)"/>
<path fill-rule="evenodd" clip-rule="evenodd" d="M15.1875 19.2888V29.525C15.1875 29.8357 15.4393 30.0875 15.75 30.0875H32.25C32.5607 30.0875 32.8125 29.8357 32.8125 29.525V16.25C32.8125 15.9393 32.5607 15.6875 32.25 15.6875H20.8125V16.8125H31.6875V28.9625H16.3125V19.2888H15.1875ZM20.625 31.1503C20.3143 31.1503 20.0625 31.4022 20.0625 31.7128C20.0625 32.0235 20.3143 32.2753 20.625 32.2753H27.375C27.6857 32.2753 27.9375 32.0235 27.9375 31.7128C27.9375 31.4022 27.6857 31.1503 27.375 31.1503H20.625Z" fill="url(#paint2_linear_19587_5308)"/>
<defs>
<linearGradient id="paint0_linear_19587_5308" x1="24.2246" y1="19.8125" x2="24.2246" y2="26.2532" gradientUnits="userSpaceOnUse">
<stop stop-color="#99CC67"/>
<stop offset="1" stop-color="#40B1B9"/>
</linearGradient>
<linearGradient id="paint1_linear_19587_5308" x1="11.25" y1="5.1875" x2="11.25" y2="23.5625" gradientUnits="userSpaceOnUse">
<stop stop-color="#99CC67"/>
<stop offset="1" stop-color="#40B1B9"/>
</linearGradient>
<linearGradient id="paint2_linear_19587_5308" x1="24" y1="15.6875" x2="24" y2="32.2753" gradientUnits="userSpaceOnUse">
<stop stop-color="#99CC67"/>
<stop offset="1" stop-color="#40B1B9"/>
</linearGradient>
</defs>
</svg>
