<svg width="36" height="37" viewBox="0 0 36 37" fill="none" xmlns="http://www.w3.org/2000/svg">
<path fill-rule="evenodd" clip-rule="evenodd" d="M18 7.0625C11.269 7.0625 5.8125 12.519 5.8125 19.25C5.8125 25.981 11.269 31.4375 18 31.4375C24.731 31.4375 30.1875 25.981 30.1875 19.25C30.1875 12.519 24.731 7.0625 18 7.0625ZM4.6875 19.25C4.6875 11.8977 10.6477 5.9375 18 5.9375C25.3523 5.9375 31.3125 11.8977 31.3125 19.25C31.3125 26.6023 25.3523 32.5625 18 32.5625C10.6477 32.5625 4.6875 26.6023 4.6875 19.25Z" fill="url(#paint0_linear_16906_76662)"/>
<path d="M25.8698 12.1406C25.4136 11.4562 24.6532 11 23.8168 11C22.9804 11 23.0719 11.3041 23.0719 11.6843C23.0719 12.0645 23.4366 12.2166 23.8168 12.2166C24.273 12.2166 24.6532 12.4447 24.8813 12.8249C25.1094 13.129 25.1094 13.5853 24.8813 13.8894L22.6002 17.6152C22.3721 17.9954 21.9919 18.2995 21.4597 18.2995C21.0035 18.2995 20.5472 18.0714 20.3191 17.6152L18.038 13.9654C17.8859 13.5853 17.8859 13.2051 18.038 12.9009C18.2661 12.5207 18.6463 12.2926 19.1025 12.2926C19.5588 12.2926 19.7108 12.0645 19.7108 11.6843C19.7108 11.3041 19.4827 11.076 19.1025 11.076C18.2661 11.076 17.5058 11.5323 17.0495 12.2166C16.6694 12.9009 16.5933 13.7373 17.0495 14.4977L19.3306 18.1475C19.6348 18.7558 20.2431 19.212 20.9274 19.3641V24.1544C20.9274 24.7627 20.091 25.2949 19.1786 25.2949C18.2661 25.2949 17.4297 24.7627 17.4297 24.1544V18.6037C17.4297 17.3111 16.1371 16.3226 14.5403 16.3226C12.9435 16.3226 11.6509 17.3111 11.6509 18.6037V22.5576C10.5864 22.7857 9.75 23.7742 9.75 24.8387C9.75 25.9032 10.8145 27.1959 12.1832 27.1959C13.5518 27.1959 14.6164 26.1313 14.6164 24.8387C14.6164 23.5461 13.856 22.7857 12.7915 22.5576V18.6037C12.7915 17.9954 13.6279 17.4631 14.5403 17.4631C15.4528 17.4631 16.2892 17.9954 16.2892 18.6037V24.2304C16.2892 25.447 17.5818 26.4355 19.1786 26.4355C20.7753 26.4355 22.068 25.447 22.068 24.1544V19.288C22.7523 19.1359 23.2846 18.6797 23.5887 18.1475L25.8698 14.4217C26.25 13.7373 26.2935 12.9009 25.9134 12.2166L25.8698 12.1406ZM13.4758 24.7627C13.4758 25.447 12.8675 25.9793 12.1832 25.9793C11.4988 25.9793 10.8906 25.447 10.8906 24.7627C10.8906 24.0783 11.4988 23.5461 12.1832 23.5461C12.8675 23.5461 13.4758 24.0783 13.4758 24.7627Z" fill="url(#paint1_linear_16906_76662)"/>
<defs>
<linearGradient id="paint0_linear_16906_76662" x1="18" y1="5.9375" x2="18" y2="32.5625" gradientUnits="userSpaceOnUse">
<stop stop-color="#99CC67"/>
<stop offset="1" stop-color="#40B1B9"/>
</linearGradient>
<linearGradient id="paint1_linear_16906_76662" x1="17.9638" y1="11" x2="17.9638" y2="27.1959" gradientUnits="userSpaceOnUse">
<stop stop-color="#99CC67"/>
<stop offset="1" stop-color="#40B1B9"/>
</linearGradient>
</defs>
</svg>
