<svg width="36" height="37" viewBox="0 0 36 37" fill="none" xmlns="http://www.w3.org/2000/svg">
<path fill-rule="evenodd" clip-rule="evenodd" d="M3.1875 7.11396C3.1875 6.03052 4.03628 5.1875 5.11871 5.1875H19.7579C20.8404 5.1875 21.6891 6.03052 21.6891 7.11396V14.7236H20.5641V7.11396C20.5641 6.65553 20.2227 6.3125 19.7579 6.3125H5.11871C4.6539 6.3125 4.3125 6.65553 4.3125 7.11396V16.3651C4.3125 16.8236 4.6539 17.1666 5.11871 17.1666H7.14201C7.45267 17.1666 7.70451 17.4184 7.70451 17.7291V21.3298L11.8699 17.3237C11.9747 17.2229 12.1144 17.1666 12.2598 17.1666H14.0512C14.0509 17.1819 14.0508 17.1972 14.0508 17.2126V18.2916H12.4864L7.53194 23.0566C7.36939 23.2129 7.1292 23.2571 6.9217 23.1687C6.7142 23.0804 6.57951 22.8767 6.57951 22.6512V18.2916H5.11871C4.03628 18.2916 3.1875 17.4486 3.1875 16.3651V7.11396ZM7.59155 9.60474C7.59155 9.29408 7.84339 9.04224 8.15405 9.04224H17.1399C17.4506 9.04224 17.7024 9.29408 17.7024 9.60474C17.7024 9.9154 17.4506 10.1672 17.1399 10.1672H8.15405C7.84339 10.1672 7.59155 9.9154 7.59155 9.60474ZM8.15405 12.897C7.84339 12.897 7.59155 13.1488 7.59155 13.4595C7.59155 13.7701 7.84339 14.022 8.15405 14.022H17.1399C17.4506 14.022 17.7024 13.7701 17.7024 13.4595C17.7024 13.1488 17.4506 12.897 17.1399 12.897H8.15405Z" fill="url(#paint0_linear_17485_4729)"/>
<path fill-rule="evenodd" clip-rule="evenodd" d="M16.5445 16.4111C16.0797 16.4111 15.7383 16.7542 15.7383 17.2126V26.4638C15.7383 26.9222 16.0797 27.2652 16.5445 27.2652H24.0426C24.188 27.2652 24.3278 27.3215 24.4325 27.4223L28.5979 31.4284V27.8277C28.5979 27.5171 28.8497 27.2652 29.1604 27.2652H31.1837C31.6485 27.2652 31.9899 26.9222 31.9899 26.4638V17.2126C31.9899 16.7542 31.6485 16.4111 31.1837 16.4111H16.5445ZM14.6133 17.2126C14.6133 16.1292 15.4621 15.2861 16.5445 15.2861H31.1837C32.2661 15.2861 33.1149 16.1292 33.1149 17.2126V26.4638C33.1149 27.5472 32.2661 28.3902 31.1837 28.3902H29.7229V32.7498C29.7229 32.9753 29.5882 33.1791 29.3807 33.2674C29.1732 33.3557 28.933 33.3116 28.7705 33.1552L23.816 28.3902H16.5445C15.4621 28.3902 14.6133 27.5472 14.6133 26.4638V17.2126Z" fill="url(#paint1_linear_17485_4729)"/>
<path fill-rule="evenodd" clip-rule="evenodd" d="M18.6004 19.7035C18.6004 19.3928 18.8522 19.141 19.1629 19.141H28.2082C28.5189 19.141 28.7707 19.3928 28.7707 19.7035C28.7707 20.0141 28.5189 20.266 28.2082 20.266H19.1629C18.8522 20.266 18.6004 20.0141 18.6004 19.7035Z" fill="url(#paint2_linear_17485_4729)"/>
<path fill-rule="evenodd" clip-rule="evenodd" d="M18.6004 23.4988C18.6004 23.1882 18.8522 22.9363 19.1629 22.9363H28.2082C28.5189 22.9363 28.7707 23.1882 28.7707 23.4988C28.7707 23.8095 28.5189 24.0613 28.2082 24.0613H19.1629C18.8522 24.0613 18.6004 23.8095 18.6004 23.4988Z" fill="url(#paint3_linear_17485_4729)"/>
<defs>
<linearGradient id="paint0_linear_17485_4729" x1="12.4383" y1="5.1875" x2="12.4383" y2="23.2137" gradientUnits="userSpaceOnUse">
<stop stop-color="#99CC67"/>
<stop offset="1" stop-color="#40B1B9"/>
</linearGradient>
<linearGradient id="paint1_linear_17485_4729" x1="23.8641" y1="15.2861" x2="23.8641" y2="33.3123" gradientUnits="userSpaceOnUse">
<stop stop-color="#99CC67"/>
<stop offset="1" stop-color="#40B1B9"/>
</linearGradient>
<linearGradient id="paint2_linear_17485_4729" x1="23.8641" y1="15.2861" x2="23.8641" y2="33.3123" gradientUnits="userSpaceOnUse">
<stop stop-color="#99CC67"/>
<stop offset="1" stop-color="#40B1B9"/>
</linearGradient>
<linearGradient id="paint3_linear_17485_4729" x1="23.8641" y1="15.2861" x2="23.8641" y2="33.3123" gradientUnits="userSpaceOnUse">
<stop stop-color="#99CC67"/>
<stop offset="1" stop-color="#40B1B9"/>
</linearGradient>
</defs>
</svg>
