<svg width="36" height="37" viewBox="0 0 36 37" fill="none" xmlns="http://www.w3.org/2000/svg">
<path fill-rule="evenodd" clip-rule="evenodd" d="M17.0625 3.5C17.0625 3.18934 16.8107 2.9375 16.5 2.9375C16.1893 2.9375 15.9375 3.18934 15.9375 3.5V5.1875H9.01081C9.00329 5.18735 8.99577 5.18735 8.98824 5.1875H6.40981C5.04365 5.1875 3.9375 6.29634 3.9375 7.6625V29.3375C3.9375 30.7037 5.04365 31.8125 6.40981 31.8125H26.5902C27.9564 31.8125 29.0625 30.7037 29.0625 29.3375V18.9288C28.6833 19.1942 28.3079 19.4717 27.9375 19.7587V29.3375C27.9375 30.0838 27.3335 30.6875 26.5902 30.6875H6.40981C5.66646 30.6875 5.0625 30.0838 5.0625 29.3375V7.6625C5.0625 6.91617 5.66646 6.3125 6.40981 6.3125H8.66053L10.4776 9.76215C10.5749 9.94687 10.7665 10.0625 10.9753 10.0625H22.0247C22.2335 10.0625 22.4251 9.94687 22.5224 9.76215L24.3395 6.3125H26.5902C27.3335 6.3125 27.9375 6.91617 27.9375 7.6625V15.1678C28.3073 14.9328 28.6826 14.707 29.0625 14.4924V7.6625C29.0625 6.29634 27.9564 5.1875 26.5902 5.1875H24.0118C24.0042 5.18735 23.9967 5.18735 23.9892 5.1875H17.0625V3.5ZM29.0625 15.7947C28.6831 16.0229 28.3078 16.263 27.9375 16.5125V18.3502C28.3073 18.08 28.6827 17.8188 29.0625 17.5696V15.7947ZM11.3148 8.9375L9.93206 6.3125H23.0679L21.6852 8.9375H11.3148ZM10.5 14.1875C10.1893 14.1875 9.9375 14.4393 9.9375 14.75C9.9375 15.0607 10.1893 15.3125 10.5 15.3125H22.5C22.8107 15.3125 23.0625 15.0607 23.0625 14.75C23.0625 14.4393 22.8107 14.1875 22.5 14.1875H10.5ZM10.5 17.9375C10.1893 17.9375 9.9375 18.1893 9.9375 18.5C9.9375 18.8107 10.1893 19.0625 10.5 19.0625H22.5C22.8107 19.0625 23.0625 18.8107 23.0625 18.5C23.0625 18.1893 22.8107 17.9375 22.5 17.9375H10.5Z" fill="url(#paint0_linear_17485_4707)"/>
<path d="M18.1046 28.025C17.9073 28.025 17.7101 28.025 17.5128 27.7291L14.0608 23.6853C13.7649 23.3894 13.8635 22.8962 14.0608 22.6003C14.3567 22.3045 14.8498 22.4031 15.1457 22.6003L18.006 25.9538C20.0772 23.488 27.1786 15.0058 34.3786 13.625C34.7731 13.625 35.1676 13.8223 35.2663 14.2168C35.2663 14.6113 35.069 15.0058 34.6745 15.1045C26.8827 16.5839 18.795 27.5318 18.6964 27.7291C18.5978 27.9264 18.4005 28.025 18.1046 28.025Z" fill="url(#paint1_linear_17485_4707)"/>
<defs>
<linearGradient id="paint0_linear_17485_4707" x1="16.5" y1="2.9375" x2="16.5" y2="31.8125" gradientUnits="userSpaceOnUse">
<stop stop-color="#99CC67"/>
<stop offset="1" stop-color="#40B1B9"/>
</linearGradient>
<linearGradient id="paint1_linear_17485_4707" x1="24.5701" y1="13.625" x2="24.5701" y2="28.025" gradientUnits="userSpaceOnUse">
<stop stop-color="#99CC67"/>
<stop offset="1" stop-color="#40B1B9"/>
</linearGradient>
</defs>
</svg>
