<svg width="36" height="37" viewBox="0 0 36 37" fill="none" xmlns="http://www.w3.org/2000/svg">
<path fill-rule="evenodd" clip-rule="evenodd" d="M17.9945 9.48408C19.7455 7.81809 21.691 6.67985 23.5665 6.20761C25.5351 5.71192 27.4646 5.94592 28.9545 7.13234C29.0217 7.1549 29.0846 7.19014 29.1395 7.23675C30.8683 8.70396 31.5039 11.1512 31.263 13.8001C31.0208 16.4623 29.8913 19.4257 27.9545 22.0764L27.9528 22.0788C26.5368 23.9955 24.136 26.5835 22.108 28.6758C21.0904 29.7258 20.1601 30.6574 19.4844 31.3266C19.1464 31.6612 18.8719 31.9303 18.6818 32.1159C18.5868 32.2087 18.5128 32.2807 18.4625 32.3295L18.4051 32.3851L18.3855 32.404C18.3855 32.4041 18.3852 32.4044 17.9945 31.9996C17.6039 32.4044 17.6039 32.4043 17.6038 32.4043L17.584 32.3851L17.5266 32.3295C17.4763 32.2807 17.4023 32.2087 17.3073 32.1159C17.1171 31.9303 16.8427 31.6612 16.5047 31.3266C15.8289 30.6574 14.8987 29.7258 13.881 28.6758C11.853 26.5835 9.45228 23.9955 8.03628 22.0788L8.03452 22.0764C6.09787 19.4258 4.96787 16.4619 4.73321 13.7985C4.49993 11.1507 5.15004 8.70564 6.9046 7.23916C8.38572 5.92772 10.3747 5.66993 12.4023 6.18626C14.284 6.66541 16.2421 7.8165 17.9945 9.48408ZM17.9945 31.9996L17.6038 32.4043C17.8217 32.6146 18.1676 32.6143 18.3855 32.404L17.9945 31.9996ZM17.9945 31.2146C18.1748 31.0383 18.4116 30.8056 18.6928 30.5272C19.3646 29.8619 20.2892 28.9359 21.3002 27.8928C22.0339 27.1359 22.8099 26.3206 23.5661 25.5007C23.5654 25.4998 23.5646 25.4989 23.5639 25.498C22.6642 24.3948 20.7071 23.5621 18.058 23.5621C16.749 23.5621 15.5501 23.7802 14.5719 24.1488C13.604 24.5135 12.8874 25.0116 12.4735 25.5555C13.2137 26.3569 13.9715 27.1527 14.6889 27.8928C15.6999 28.9359 16.6244 29.8619 17.2963 30.5272C17.5775 30.8056 17.8143 31.0383 17.9945 31.2146ZM11.7061 24.7152C12.2908 24.0257 13.1594 23.4788 14.1752 23.096C15.2942 22.6744 16.6293 22.4371 18.058 22.4371C20.804 22.4371 23.1035 23.2691 24.3304 24.6627C25.3781 23.4995 26.3432 22.3641 27.047 21.4116C28.8773 18.9062 29.921 16.1341 30.1426 13.6982C30.359 11.3182 29.7889 9.34947 28.5245 8.19392C28.4627 8.17134 28.4049 8.13792 28.3539 8.09474C27.194 7.11173 25.6128 6.85245 23.8412 7.29856C22.0645 7.74594 20.1372 8.89824 18.3954 10.6675C18.2896 10.7749 18.1452 10.8353 17.9945 10.8353C17.8438 10.8353 17.6994 10.7749 17.5937 10.6675C15.8515 8.8979 13.9093 7.7309 12.1247 7.27646C10.3443 6.8231 8.77161 7.0852 7.64512 8.08611C7.64065 8.09008 7.63611 8.09398 7.63152 8.09781C6.26129 9.23919 5.63824 11.2524 5.85386 13.6997C6.06838 16.1345 7.11169 18.906 8.94209 21.4116C9.65643 22.3784 10.6401 23.5337 11.7061 24.7152ZM17.9998 13.8121C16.2394 13.8121 14.8123 15.2392 14.8123 16.9996C14.8123 18.76 16.2394 20.1871 17.9998 20.1871C19.7602 20.1871 21.1873 18.76 21.1873 16.9996C21.1873 15.2392 19.7602 13.8121 17.9998 13.8121ZM13.6873 16.9996C13.6873 14.6179 15.6181 12.6871 17.9998 12.6871C20.3815 12.6871 22.3123 14.6179 22.3123 16.9996C22.3123 19.3813 20.3815 21.3121 17.9998 21.3121C15.6181 21.3121 13.6873 19.3813 13.6873 16.9996Z" fill="url(#paint0_linear_17485_4721)"/>
<defs>
<linearGradient id="paint0_linear_17485_4721" x1="17.9998" y1="5.9375" x2="17.9998" y2="32.5619" gradientUnits="userSpaceOnUse">
<stop stop-color="#99CC67"/>
<stop offset="1" stop-color="#40B1B9"/>
</linearGradient>
</defs>
</svg>
