<svg width="36" height="37" viewBox="0 0 36 37" fill="none" xmlns="http://www.w3.org/2000/svg">
<path fill-rule="evenodd" clip-rule="evenodd" d="M5.38727 7.0625C4.25666 7.0625 3.5625 7.77692 3.5625 8.4125V30.0875C3.5625 30.7231 4.25666 31.4375 5.38727 31.4375H30.6127C31.7433 31.4375 32.4375 30.7231 32.4375 30.0875V8.4125C32.4375 7.77692 31.7433 7.0625 30.6127 7.0625H5.38727ZM2.4375 8.4125C2.4375 6.93559 3.88097 5.9375 5.38727 5.9375H30.6127C32.119 5.9375 33.5625 6.93559 33.5625 8.4125V30.0875C33.5625 31.5644 32.119 32.5625 30.6127 32.5625H5.38727C3.88097 32.5625 2.4375 31.5644 2.4375 30.0875V8.4125Z" fill="url(#paint0_linear_17485_1982)"/>
<path fill-rule="evenodd" clip-rule="evenodd" d="M18.1003 10.8125C15.9625 10.8125 14.2295 12.5455 14.2295 14.6833C14.2295 16.8211 15.9625 18.5542 18.1003 18.5542C20.2381 18.5542 21.9712 16.8211 21.9712 14.6833C21.9712 12.5455 20.2381 10.8125 18.1003 10.8125ZM13.1045 14.6833C13.1045 11.9242 15.3412 9.6875 18.1003 9.6875C20.8594 9.6875 23.0962 11.9242 23.0962 14.6833C23.0962 17.4425 20.8594 19.6792 18.1003 19.6792C15.3412 19.6792 13.1045 17.4425 13.1045 14.6833ZM21.5661 19.7927C21.7081 19.5164 22.0472 19.4075 22.3235 19.5495C25.5586 21.212 27.7622 24.5827 27.7622 28.4498C27.7622 28.7605 27.5104 29.0123 27.1997 29.0123C26.8891 29.0123 26.6372 28.7605 26.6372 28.4498C26.6372 25.0199 24.6833 22.027 21.8093 20.5501C21.533 20.4081 21.4241 20.069 21.5661 19.7927ZM14.1561 19.7727C14.3092 20.043 14.2143 20.3862 13.944 20.5394C11.3449 22.0121 9.5625 24.975 9.5625 28.45C9.5625 28.7606 9.31066 29.0125 9 29.0125C8.68934 29.0125 8.4375 28.7606 8.4375 28.45C8.4375 24.5909 10.4198 21.2432 13.3894 19.5606C13.6596 19.4074 14.0029 19.5024 14.1561 19.7727ZM16.4009 21.3479C16.4502 21.0812 16.6828 20.8875 16.9541 20.8875H18.7793C19.0506 20.8875 19.2832 21.0812 19.3325 21.3479L20.2865 26.5189C20.3323 26.7668 20.2075 27.0148 19.9812 27.1259L18.156 28.0216C18.0028 28.0968 17.8237 28.0984 17.6691 28.0259L15.761 27.1301C15.5295 27.0215 15.4005 26.7703 15.4469 26.5189L16.4009 21.3479ZM17.4223 22.0125L16.6319 26.2962L17.9028 26.8927L19.1029 26.3038L18.3111 22.0125H17.4223Z" fill="url(#paint1_linear_17485_1982)"/>
<defs>
<linearGradient id="paint0_linear_17485_1982" x1="18" y1="5.9375" x2="18" y2="32.5625" gradientUnits="userSpaceOnUse">
<stop stop-color="#99CC67"/>
<stop offset="1" stop-color="#40B1B9"/>
</linearGradient>
<linearGradient id="paint1_linear_17485_1982" x1="18.0999" y1="9.6875" x2="18.0999" y2="29.0125" gradientUnits="userSpaceOnUse">
<stop stop-color="#99CC67"/>
<stop offset="1" stop-color="#40B1B9"/>
</linearGradient>
</defs>
</svg>
