<svg width="36" height="37" viewBox="0 0 36 37" fill="none" xmlns="http://www.w3.org/2000/svg">
<path fill-rule="evenodd" clip-rule="evenodd" d="M18 6.3125C11.269 6.3125 5.8125 11.769 5.8125 18.5C5.8125 25.231 11.269 30.6875 18 30.6875C24.731 30.6875 30.1875 25.231 30.1875 18.5C30.1875 11.769 24.731 6.3125 18 6.3125ZM4.6875 18.5C4.6875 11.1477 10.6477 5.1875 18 5.1875C25.3523 5.1875 31.3125 11.1477 31.3125 18.5C31.3125 25.8523 25.3523 31.8125 18 31.8125C10.6477 31.8125 4.6875 25.8523 4.6875 18.5Z" fill="url(#paint0_linear_17485_1991)"/>
<path fill-rule="evenodd" clip-rule="evenodd" d="M13.9538 12.7718C14.1193 12.6693 14.3261 12.6596 14.5005 12.7463L25.0005 17.968C25.1912 18.0628 25.312 18.2573 25.3125 18.4704C25.313 18.6835 25.193 18.8785 25.0026 18.9742L14.5026 24.2526C14.3283 24.3402 14.1209 24.3312 13.9548 24.2288C13.7887 24.1264 13.6875 23.9452 13.6875 23.75V13.25C13.6875 13.0553 13.7882 12.8744 13.9538 12.7718ZM14.8125 14.1579V22.8377L23.4922 18.4743L14.8125 14.1579Z" fill="url(#paint1_linear_17485_1991)"/>
<defs>
<linearGradient id="paint0_linear_17485_1991" x1="18" y1="5.1875" x2="18" y2="31.8125" gradientUnits="userSpaceOnUse">
<stop stop-color="#99CC67"/>
<stop offset="1" stop-color="#40B1B9"/>
</linearGradient>
<linearGradient id="paint1_linear_17485_1991" x1="19.5" y1="12.6875" x2="19.5" y2="24.3125" gradientUnits="userSpaceOnUse">
<stop stop-color="#99CC67"/>
<stop offset="1" stop-color="#40B1B9"/>
</linearGradient>
</defs>
</svg>
